<?xml version="1.0"?>
<svg xmlns="http://www.w3.org/2000/svg" height="512px" viewBox="0 0 512 512" width="512px"><path d="m256 211c-24.8125 0-45 20.1875-45 45s20.1875 45 45 45 45-20.1875 45-45-20.1875-45-45-45zm0 0" fill="#FFA600"/><path d="m466 91c-11.128906 0-21.195312 4.210938-29.058594 10.925781-24.5-6.097656-57.253906-4.363281-94.972656 5.085938-17.363281-61.480469-46.316406-107.011719-85.96875-107.011719-39.65625 0-68.609375 45.539062-85.96875 107.023438-37.734375-9.457032-70.488281-11.199219-94.976562-5.097657-7.863282-6.714843-17.925782-10.925781-29.054688-10.925781-24.8125 0-46 20.1875-46 45 0 20.183594 14.445312 37.101562 32.78125 42.789062 7.46875 23.980469 24.988281 50.613282 51.203125 77.621094-6.367187 6.597656-12.929687 13.199219-18.355469 19.789063-32.859375 39.941406-44.101562 75.820312-32.625 102.242187-1.175781 4.011719-2.003906 8.171875-2.003906 12.558594 0 24.8125 20.1875 45 45 45 16.527344 0 30.847656-9.054688 38.671875-22.371094 16.871094-.757812 35.457031-3.628906 55.363281-8.636718 17.359375 61.476562 46.3125 107.007812 85.964844 107.007812 39.761719 0 68.761719-45.777344 86.105469-107.511719 57.9375 15.179688 113.273437 16.1875 134.734375-20.988281 15.367187-26.632812 4.554687-64.730469-30.46875-107.300781-5.425782-6.589844-11.988282-13.191407-18.355469-19.789063 26.214844-27.007812 43.738281-53.640625 51.203125-77.621094 18.335938-5.6875 32.78125-22.605468 32.78125-42.789062 0-24.8125-21.1875-45-46-45zm-44.296875 38.023438c-.359375 2.289062-.703125 4.585937-.703125 6.976562 0 18.53125 11.265625 34.460938 27.300781 41.351562-7.003906 16.386719-21.070312 36.484376-42.054687 58.179688-14.613282-13.105469-30.601563-25.960938-48.105469-38.351562-1.976563-20.980469-4.984375-41.492188-9.035156-60.9375 29.632812-7.410157 54.59375-9.613282 72.597656-7.21875zm-128.203125 191.925781c-12.488281 7.210937-25.136719 13.671875-37.765625 19.753906-12.242187-5.976563-24.671875-12.496094-37.234375-19.753906-12.773438-7.371094-24.726562-14.863281-35.964844-22.394531-.960937-13.722657-1.535156-27.894532-1.535156-42.554688 0-14.605469.570312-28.726562 1.527344-42.402344 11.535156-7.753906 23.484375-15.339844 35.972656-22.550781 12.734375-7.351563 25.238281-13.925781 37.503906-19.917969 12.261719 5.992188 24.765625 12.566406 37.496094 19.917969 12.488281 7.210937 24.433594 14.796875 35.972656 22.550781.957032 13.675782 1.527344 27.796875 1.527344 42.402344 0 14.660156-.574219 28.832031-1.535156 42.554688-11.238282 7.53125-23.191406 15.023437-35.964844 22.394531zm31.996094 15.484375c-1.496094 10.726562-3.207032 21.085937-5.21875 30.882812-9.449219-3.140625-19.230469-6.8125-29.21875-10.855468 5.820312-3.128907 11.644531-6.179688 17.441406-9.523438 5.882812-3.398438 11.324219-7 16.996094-10.503906zm-104.945313 19.847656c-9.78125 3.902344-19.472656 7.527344-28.914062 10.644531-1.976563-9.675781-3.65625-19.914062-5.132813-30.492187 5.671875 3.503906 11.113282 7.105468 16.996094 10.503906 5.203125 3.003906 10.984375 6.148438 17.050781 9.34375zm-69.179687-80.183594c-8.566406-6.648437-16.515625-13.261718-23.894532-19.796875 7.601563-6.75 15.394532-13.421875 23.886719-20.023437-.207031 6.582031-.363281 13.164062-.363281 19.722656 0 6.683594.15625 13.390625.371094 20.097656zm35.109375-100.351562c1.5-10.8125 3.230469-21.25 5.257812-31.117188 9.484375 3.148438 19.355469 6.84375 29.457031 10.941406-5.902343 3.171876-11.796874 6.085938-17.695312 9.492188-5.902344 3.40625-11.300781 7.140625-17.019531 10.683594zm104.316406-20.175782c10.101563-4.101562 19.976563-7.796874 29.464844-10.945312 2.027343 9.867188 3.753906 20.308594 5.257812 31.121094-5.71875-3.539063-11.117187-7.277344-17.019531-10.683594s-11.796875-6.324219-17.703125-9.492188zm69.839844 80.707032c8.492187 6.601562 16.285156 13.273437 23.886719 20.023437-7.375 6.539063-15.328126 13.148438-23.894532 19.796875.214844-6.707031.371094-13.414062.371094-20.097656 0-6.558594-.15625-13.140625-.363281-19.722656zm-104.636719-206.277344c20.488281 0 42.335938 33.363281 57.144531 85.476562-18.464843 6.035157-37.65625 13.804688-57.152343 22.753907-19.492188-8.945313-38.683594-16.710938-57.140626-22.742188 14.808594-52.121093 36.65625-85.488281 57.148438-85.488281zm-93.105469 106.25c-4.050781 19.441406-7.058593 39.949219-9.035156 60.929688-17.503906 12.390624-33.492187 25.246093-48.105469 38.351562-20.980468-21.695312-35.046875-41.796875-42.054687-58.179688 16.035156-6.890624 27.300781-22.820312 27.300781-41.351562 0-2.386719-.34375-4.683594-.703125-6.972656 17.996094-2.386719 42.960937-.179688 72.597656 7.222656zm-42.699219 246.785156c-3.78125-21.011718-22.105468-37.035156-44.195312-37.035156-5.980469 0-11.664062 1.226562-16.890625 3.351562 2.632813-14.671874 12.738281-33.488281 29.679687-54.09375 4.984376-6.054687 11.0625-12.140624 16.933594-18.222656 14.394532 12.855469 30.636719 25.507813 48.144532 37.867188 1.960937 20.769531 4.921874 41.082031 8.917968 60.347656-15.296875 3.875-29.613281 6.496094-42.589844 7.785156zm135.804688 98.964844c-20.46875 0-42.292969-33.292969-57.101562-85.316406 18.699218-6.144532 38.085937-13.859375 57.710937-22.914063 17.824219 7.992188 37.0625 15.683594 56.683594 22.210938-14.8125 52.429687-36.730469 86.019531-57.292969 86.019531zm194.855469-113.5c-10.25 17.726562-49.207031 20.464844-101.746094 7.234375 4.046875-19.414063 7.046875-39.886719 9.023437-60.832031 17.507813-12.363282 33.75-25.011719 48.144532-37.867188 5.871094 6.082032 11.953125 12.167969 16.9375 18.222656 25.71875 31.289063 36.0625 58.667969 27.640625 73.242188zm0 0" fill="#FFA600"/></svg>
