<?xml version="1.0" encoding="iso-8859-1"?>
<!-- Generator: Adobe Illustrator 19.0.0, SVG Export Plug-In . SVG Version: 6.00 Build 0)  -->
<svg xmlns="http://www.w3.org/2000/svg" xmlns:xlink="http://www.w3.org/1999/xlink" version="1.1" id="Capa_1" x="0px" y="0px" viewBox="0 0 512 512" style="enable-background:new 0 0 512 512;" xml:space="preserve" width="512px" height="512px">
<g>
	<g>
		<g>
			<path d="M100.571,416v-46.5l-87.643,87.643h46.5C82.141,457.118,100.547,438.712,100.571,416z" fill="#FFA600"/>
			<path d="M155.429,416v-82.286c0.038-32.806,26.623-59.391,59.429-59.429h59.429v-36.571H0v36.571h59.429     c32.806,0.038,59.391,26.623,59.429,59.429V416c-0.038,32.806-26.623,59.391-59.429,59.429H0V512h274.286v-36.571h-59.429     C182.051,475.391,155.467,448.806,155.429,416z" fill="#FFA600"/>
			<polygon points="499.072,0 232.357,0 12.928,219.429 279.643,219.429    " fill="#FFA600"/>
			<polygon points="292.571,232.357 292.571,261.358 391.25,162.679 512,41.929 512,12.928    " fill="#FFA600"/>
			<polygon points="292.571,469.943 292.571,498.286 459.657,322.843 512,270.501 512,241.499 472.75,280.75    " fill="#FFA600"/>
			<path d="M499.071,228.571h-46.5c-0.779-0.052-1.548-0.207-2.286-0.461c-0.738,0.254-1.507,0.41-2.286,0.461     c-25.503-0.042-48.143-16.333-56.285-40.501l-101.82,101.82c-1.718,1.711-4.042,2.674-6.467,2.681h-68.571     c-22.712,0.025-41.118,18.431-41.143,41.143V416c0.025,22.712,18.431,41.118,41.143,41.143h64.652l180.152-189.161     L499.071,228.571z M216.777,426.603c-2.616,2.637-6.567,3.43-9.998,2.006s-5.658-4.783-5.637-8.497     c0-5.049,4.093-9.143,9.143-9.143c5.049,0,9.143,4.093,9.143,9.143C219.453,422.543,218.497,424.883,216.777,426.603z      M253.474,388.134l-9.143,9.58c-3.486,3.654-9.275,3.79-12.929,0.304c-3.654-3.486-3.79-9.275-0.304-12.929l9.143-9.58     c2.255-2.364,5.6-3.345,8.775-2.573c3.175,0.771,5.697,3.178,6.616,6.313C256.552,382.383,255.729,385.77,253.474,388.134z      M290.045,349.821l-9.143,9.58c-3.486,3.654-9.275,3.79-12.929,0.304c-3.654-3.486-3.79-9.275-0.304-12.929l9.143-9.58     c3.486-3.654,9.275-3.79,12.929-0.304C293.395,340.379,293.531,346.167,290.045,349.821z M326.616,311.509l-9.143,9.58     c-3.486,3.654-9.275,3.79-12.929,0.304c-3.654-3.486-3.79-9.275-0.304-12.929l9.143-9.58c3.486-3.654,9.275-3.79,12.929-0.304     C329.967,302.067,330.103,307.855,326.616,311.509z M363.188,273.196l-9.143,9.58c-2.255,2.364-5.6,3.345-8.775,2.573     c-3.175-0.771-5.697-3.178-6.616-6.313c-0.919-3.135-0.096-6.522,2.159-8.886l9.143-9.58c3.486-3.654,9.275-3.79,12.929-0.304     C366.538,263.754,366.674,269.542,363.188,273.196z M390.491,244.571c-1.705,1.753-4.046,2.741-6.491,2.741     c-2.445,0-4.786-0.989-6.491-2.741c-1.734-1.674-2.694-3.992-2.651-6.402c-0.022-3.714,2.206-7.073,5.637-8.497     s7.382-0.632,9.998,2.006c1.683,1.744,2.633,4.068,2.651,6.491C393.184,240.579,392.224,242.897,390.491,244.571z" fill="#FFA600"/>
		</g>
	</g>
</g>
<g>
</g>
<g>
</g>
<g>
</g>
<g>
</g>
<g>
</g>
<g>
</g>
<g>
</g>
<g>
</g>
<g>
</g>
<g>
</g>
<g>
</g>
<g>
</g>
<g>
</g>
<g>
</g>
<g>
</g>
</svg>
