<?xml version="1.0" encoding="iso-8859-1"?>
<!-- Generator: Adobe Illustrator 19.0.0, SVG Export Plug-In . SVG Version: 6.00 Build 0)  -->
<svg xmlns="http://www.w3.org/2000/svg" xmlns:xlink="http://www.w3.org/1999/xlink" version="1.1" id="Capa_1" x="0px" y="0px" viewBox="0 0 512 512" style="enable-background:new 0 0 512 512;" xml:space="preserve" width="512px" height="512px">
<g>
	<g>
		<g>
			<polygon points="512,246.857 512,150.071 415.214,246.857    " fill="#FFA600"/>
			<polygon points="246.857,512 246.857,415.214 150.08,512    " fill="#FFA600"/>
			<path d="M484.572,0H45.714C20.479,0.03,0.03,20.479,0,45.714v438.857C0.017,499.713,12.287,511.984,27.429,512h85.42     c7.28,0.021,14.266-2.871,19.402-8.031l117.274-117.277l0.022-0.022l137.127-137.131l0.004-0.004l117.286-117.289     c5.127-5.155,8.014-12.123,8.036-19.393V27.429C511.984,12.287,499.713,0.017,484.572,0z M82.286,475.429     c-25.247,0-45.714-20.467-45.714-45.714S57.038,384,82.286,384S128,404.467,128,429.714     C127.97,454.949,107.521,475.399,82.286,475.429z M82.286,128c-25.247,0-45.714-20.467-45.714-45.714     s20.467-45.714,45.714-45.714S128,57.038,128,82.286C127.97,107.521,107.521,127.97,82.286,128z M429.714,128     C404.467,128,384,107.533,384,82.286s20.467-45.714,45.714-45.714s45.714,20.467,45.714,45.714     C475.399,107.521,454.949,127.97,429.714,128z" fill="#FFA600"/>
		</g>
	</g>
</g>
<g>
</g>
<g>
</g>
<g>
</g>
<g>
</g>
<g>
</g>
<g>
</g>
<g>
</g>
<g>
</g>
<g>
</g>
<g>
</g>
<g>
</g>
<g>
</g>
<g>
</g>
<g>
</g>
<g>
</g>
</svg>
