<?xml version="1.0" encoding="iso-8859-1"?>
<!DOCTYPE svg PUBLIC "-//W3C//DTD SVG 1.1//EN" "http://www.w3.org/Graphics/SVG/1.1/DTD/svg11.dtd">
<svg xmlns="http://www.w3.org/2000/svg" xmlns:xlink="http://www.w3.org/1999/xlink" version="1.1" viewBox="0 0 280.12 280.12" enable-background="new 0 0 280.12 280.12" width="512px" height="512px">
  <g>
    <g>
      <path d="m188.234,15.329l-52.132,52.133c-7.025,7.025-10.894,16.366-10.894,26.301 0,5.661 1.27,11.123 3.652,16.079l101.908-101.667c-13.858-6.709-31.046-4.333-42.534,7.154z" fill="#FFFFFF"/>
    </g>
    <g>
      <path d="m186.357,154.894c9.525,0 19.05-3.625 26.301-10.876l52.133-52.133c7.025-7.025 10.895-16.366 10.895-26.301 0-5.699-1.289-11.195-3.701-16.177l-101.628,101.87c5.047,2.401 10.52,3.617 16,3.617z" fill="#FFFFFF"/>
    </g>
    <g>
      <path d="m68.562,135.002l-52.133,52.133c-7.025,7.025-10.895,16.366-10.895,26.302 0,5.702 1.291,11.202 3.706,16.187l101.963-101.732c-5.026-2.464-10.579-3.784-16.341-3.784-9.935-0.001-19.276,3.868-26.3,10.894z" fill="#FFFFFF"/>
    </g>
    <g>
      <path d="m66.684,274.568c9.523,0 19.051-3.627 26.302-10.877l52.132-52.133c7.025-7.025 10.895-16.366 10.895-26.302 0-5.637-1.258-11.076-3.619-16.015l-101.83,101.649c5.08,2.44 10.595,3.678 16.12,3.678z" fill="#FFFFFF"/>
    </g>
    <path d="m166.487,95.954l-69.433,69.433c-4.881,4.881-4.881,12.796 0,17.678 4.881,4.881 12.796,4.882 17.678,0l69.433-69.433c4.881-4.882 4.881-12.796 0-17.678-4.881-4.881-12.796-4.881-17.678,0z" fill="#FFFFFF"/>
    <path d="m70.69,209.429c-4.881-4.881-12.796-4.882-17.678,0l-49.351,49.352c-4.882,4.881-4.882,12.796-1.33227e-15,17.678 4.881,4.881 12.796,4.881 17.677,0l49.352-49.352c4.882-4.882 4.882-12.797 0-17.678z" fill="#FFFFFF"/>
    <path d="m276.459,3.661c-4.881-4.881-12.796-4.882-17.678,0l-49.351,49.352c-4.882,4.882-4.882,12.796 0,17.678 4.881,4.882 12.796,4.881 17.677,0l49.352-49.352c4.881-4.882 4.881-12.797 0-17.678z" fill="#FFFFFF"/>
  </g>
</svg>
