<svg height="512pt" viewBox="0 0 512 512" width="512pt" xmlns="http://www.w3.org/2000/svg"><path d="m301.035156 349.449219c43.511719 27.78125 81.179688 42.195312 109.652344 48.023437 23.835938 4.882813 54.058594 5.992188 66.152344-14.972656 6.710937-11.632812 8.671875-32.3125-20.097656-64.773438-19.136719-21.585937-50.382813-47.0625-96.582032-71.035156.222656 2.789063.839844 5.464844.839844 8.308594 0 41.710938-24.640625 77.519531-59.964844 94.449219zm0 0"/><path d="m135.0625 255.542969c-32.578125 18.808593-60.921875 40.882812-79.804688 62.183593-28.769531 32.460938-26.808593 53.144532-20.097656 64.773438 12.101563 20.980469 42.359375 19.84375 66.152344 14.972656 27.859375-5.699218 61.15625-19.207031 93.75-38.015625 5.550781-3.203125 10.636719-6.648437 15.902344-10.007812-35.324219-16.929688-59.964844-52.738281-59.964844-94.449219 0-2.84375.617188-5.519531.839844-8.308594-5.59375 2.902344-11.183594 5.617188-16.777344 8.851563zm0 0"/><path d="m15 90h90c8.289062 0 16-6.710938 16-15s-7.710938-15-16-15h-90c-8.289062 0-15 6.710938-15 15s6.710938 15 15 15zm0 0"/><path d="m75 0c-8.289062 0-15 6.710938-15 15s6.710938 15 15 15h113.574219c8.289062 0 15-6.710938 15-15s-6.710938-15-15-15zm0 0"/><path d="m452 120h-137.121094c-.742187-10.210938-1.894531-20.265625-3.417968-30h64.539062c24.8125 0 45-20.1875 45-45s-20.1875-45-45-45c-8.289062 0-15 6.710938-15 15s6.710938 15 15 15c8.277344 0 15 6.722656 15 15s-6.722656 15-15 15h-70.835938c-9.605468-34.898438-25.757812-60-49.164062-60s-39.558594 25.101562-49.164062 60h-40.835938c-8.289062 0-15 6.710938-15 15s6.710938 14.988281 15 14.988281h34.539062c-1.523437 9.738281-2.675781 19.800781-3.417968 30.011719h-122.121094c-8.289062 0-15 6.710938-15 15s6.710938 15 15 15h121c0 6.300781.4375 12.335938.710938 18.476562 16.894531-11.613281 37.289062-18.476562 59.289062-18.476562s42.394531 6.863281 59.289062 18.476562c.273438-6.140624.710938-12.175781.710938-18.476562h136c16.539062 0 30 13.460938 30 30s-13.460938 30-30 30h-15c-8.289062 0-15 6.710938-15 15s6.710938 15 15 15h15c33.089844 0 60-26.910156 60-60s-26.910156-60-60-60zm0 0"/><path d="m30 135c0 8.285156-6.714844 15-15 15s-15-6.714844-15-15 6.714844-15 15-15 15 6.714844 15 15zm0 0"/><path d="m30 15c0 8.285156-6.714844 15-15 15s-15-6.714844-15-15 6.714844-15 15-15 15 6.714844 15 15zm0 0"/><path d="m256 180c-41.351562 0-75 33.648438-75 75s33.648438 75 75 75 75-33.648438 75-75-33.648438-75-75-75zm0 90c-8.285156 0-15-6.714844-15-15s6.714844-15 15-15 15 6.714844 15 15-6.714844 15-15 15zm0 0"/><path d="m262.449219 359.347656c-2.175781.136719-4.242188.652344-6.449219.652344s-4.273438-.515625-6.445312-.652344c-12.363282 9.09375-25.335938 17.929688-39.492188 26.097656-4.875 2.8125-9.78125 5.238282-14.683594 7.828126l-14.230468 101.601562c-.617188 4.308594.671874 8.671875 3.515624 11.953125 2.855469 3.28125 6.984376 5.171875 11.335938 5.171875h120c4.351562 0 8.480469-1.890625 11.339844-5.171875 2.839844-3.28125 4.128906-7.644531 3.515625-11.953125l-14.234375-101.609375c-13.347656-7.050781-26.328125-13.453125-54.171875-33.917969zm0 0"/></svg>