<?xml version="1.0"?>
<svg xmlns="http://www.w3.org/2000/svg" height="512px" viewBox="-11 0 512 512" width="512px"><path d="m426.152344 317.820312c-35.410156-27.488281-77.6875-53.875-99.738282-67.160156l-.265624.445313c-3.664063-11.316407-9.632813-21.601563-17.347657-30.304688-.46875-26.027343-2.125-74.191406-7.953125-118.046875-6.757812-50.8125-18.675781-102.753906-55.890625-102.753906-37.359375 0-49.277343 52.421875-56.011719 103.699219-5.882812 44.800781-7.425781 94.910156-7.832031 117.097656-7.542969 8.511719-13.40625 18.53125-17.09375 29.546875-22.253906 13.390625-63.421875 39.082031-98.589843 66.175781-40.410157 31.140625-79.226563 67.3125-60.652344 99.480469 7.742187 13.414062 21.082031 18.535156 37.433594 18.535156 22.929687-.003906 51.777343-10.074218 79.410156-21.476562 38.484375-15.878906 78.433594-36.875 102-49.804688v148.746094h42.667968v-148.742188c23.453126 12.863282 64.707032 34.5625 103.882813 50.578126 26.941406 11.007812 55.066406 20.714843 77.546875 20.714843 16.3125 0 29.652344-5.109375 37.414062-18.550781 18.414063-31.890625-19.484374-67.527344-58.980468-98.179688zm-138.527344-40.488281c0 23.527344-19.144531 42.667969-42.667969 42.667969-23.527343 0-42.667969-19.140625-42.667969-42.667969 0-23.523437 19.140626-42.664062 42.667969-42.664062 23.523438 0 42.667969 19.140625 42.667969 42.664062zm-42.582031-228.570312c7.816406 17.789062 17.3125 64.488281 20.351562 145.730469-13.371093-3.296876-27.464843-3.304688-40.835937-.007813.8125-20.65625 2.335937-47.300781 5.203125-72.964844 4.804687-43.007812 11.097656-63.398437 15.28125-72.757812zm-198.203125 342.957031c11.363281-15.601562 47.0625-47.246094 116.164062-90.667969 3.898438 13.453125 11.023438 25.542969 20.480469 35.378907-72.175781 38.148437-117.449219 53.25-136.644531 55.289062zm259.589844-55.292969c9.457031-9.835937 16.578124-21.917969 20.476562-35.367187 69.082031 43.441406 104.75 75.070312 116.136719 90.644531-19.1875-2.070313-64.433594-17.15625-136.613281-55.277344zm0 0" fill="#FFA600"/><path d="m415.625 277.332031h42.664062c0-81.574219-45.40625-154.816406-118.5-191.144531l-18.988281 38.207031c58.488281 29.070313 94.824219 87.671875 94.824219 152.9375zm0 0" fill="#FFA600"/><path d="m166.707031 125.617188-19.59375-37.902344c-71.238281 36.828125-115.488281 109.484375-115.488281 189.617187h42.664062c0-64.109375 35.410157-122.246093 92.417969-151.714843zm0 0" fill="#FFA600"/></svg>
