<?xml version="1.0" encoding="iso-8859-1"?>
<!-- Generator: Adobe Illustrator 19.0.0, SVG Export Plug-In . SVG Version: 6.00 Build 0)  -->
<svg xmlns="http://www.w3.org/2000/svg" xmlns:xlink="http://www.w3.org/1999/xlink" version="1.1" id="Capa_1" x="0px" y="0px" viewBox="0 0 512 512" style="enable-background:new 0 0 512 512;" xml:space="preserve" width="512px" height="512px">
<g>
	<g>
		<path d="M256,270.105c-30.145,0-55.412,24.352-55.412,55.399c0,30.547,24.858,55.399,55.412,55.399s55.412-24.852,55.412-55.399    C311.412,294.52,286.205,270.105,256,270.105z" fill="#FFFFFF"/>
	</g>
</g>
<g>
	<g>
		<path d="M268.589,38.829c-5.927-9.113-19.261-9.098-25.179,0c-1.75,2.699-42.827,67.001-42.827,147.418    c0,24.813,1.86,48.836,5.3,70.12c29.965-21.69,70.372-21.631,100.234,0c3.44-21.284,5.3-45.307,5.3-70.12    C311.417,105.83,270.339,41.528,268.589,38.829z" fill="#FFFFFF"/>
	</g>
</g>
<g>
	<g>
		<path d="M171.045,316.68c-21.246,8.02-43.672,19.127-63.246,30.441C38.203,387.329,3.115,455.09,1.645,457.949    c-4.932,9.712,1.799,21.23,12.589,21.784c29.953,1.715,94.617-5.168,148.981-36.59c21.469-12.407,41.328-26.023,58.017-39.649    C187.751,388.521,167.118,353.536,171.045,316.68z" fill="#FFFFFF"/>
	</g>
</g>
<g>
	<g>
		<path d="M510.355,457.949c-1.47-2.859-36.558-70.62-106.154-110.828c-21.449-12.396-43.127-22.794-63.246-30.441    c3.934,36.917-16.759,71.864-50.187,86.815c17.916,14.632,38.226,28.209,58.017,39.649c49.12,28.386,112.013,38.707,148.981,36.59    C508.558,479.178,515.287,467.661,510.355,457.949z" fill="#FFFFFF"/>
	</g>
</g>
<g>
</g>
<g>
</g>
<g>
</g>
<g>
</g>
<g>
</g>
<g>
</g>
<g>
</g>
<g>
</g>
<g>
</g>
<g>
</g>
<g>
</g>
<g>
</g>
<g>
</g>
<g>
</g>
<g>
</g>
</svg>
