<?xml version="1.0"?>
<svg xmlns="http://www.w3.org/2000/svg" height="512px" viewBox="-2 0 512 512" width="512px"><path d="m471.011719 104.320312c34.238281-34.226562 36.320312-86.113281 36.390625-88.304687l.527344-16.015625-16.019532.523438c-2.191406.074218-54.101562 2.15625-88.339844 36.382812-27.941406 27.929688-34.464843 67.625-35.960937 82.46875l-18.878906 18.847656c.691406-4.804687 1.09375-9.738281 1.09375-14.796875 0-48.398437-35.230469-86.5625-36.730469-88.164062l-10.957031-11.695313-10.957031 11.695313c-1.5 1.601562-36.730469 39.765625-36.730469 88.164062 0 35.382813 18.816406 65.277344 29.53125 79.433594l-20.679688 20.640625c.636719-4.621094 1.007813-9.367188 1.007813-14.222656 0-48.402344-35.234375-86.566406-36.734375-88.167969l-10.953125-11.695313-10.957032 11.695313c-1.5 1.601563-36.734374 39.765625-36.734374 88.167969 0 35.148437 18.574218 64.886718 29.324218 79.15625l-21.53125 21.492187c.628906-4.578125.988282-9.277343.988282-14.082031 0-48.402344-35.234376-86.566406-36.734376-88.167969l-10.957031-11.695312-10.953125 11.695312c-1.5 1.601563-36.734375 39.765625-36.734375 88.167969 0 35.089844 18.515625 64.789062 29.269531 79.085938l-111.601562 111.410156 21.210938 21.234375 113.941406-113.742188c11.449218 8.664063 33.222656 22.625 59.882812 27.648438-2.496094-11.085938-3.820312-22.613281-3.820312-34.445313 0-20.574218 3.992187-40.234375 11.230468-58.253906-.820312.101562-1.636718.207031-2.449218.320312l3.960937-3.953124c15.898438-36.855469 45.539063-66.445313 82.433594-82.28125-.003906 0-.003906 0-.007813 0l20.644532-20.609376c4.035156 3 9.203125 6.535157 15.300781 10.09375 8.378906-1.390624 16.976563-2.125 25.742187-2.125 24.722657 0 48.121094 5.753907 68.941407 15.984376 32.527343-9.679688 55.410156-30.773438 56.640625-31.925782l11.699218-10.949218-11.699218-10.953126c-1.597656-1.5-39.777344-36.71875-88.195313-36.71875-4.253906 0-8.421875.285157-12.496093.78125l16.28125-16.253906c15.386718-1.628906 54.273437-8.386718 81.769531-35.871094zm0 0" fill="#FFFFFF"/><path d="m349.824219 362.832031c-13.351563 0-24.214844 10.855469-24.214844 24.203125s10.863281 24.207032 24.214844 24.207032c13.351562 0 24.214843-10.859376 24.214843-24.207032s-10.863281-24.203125-24.214843-24.203125zm0 0" fill="#FFFFFF"/><path d="m348.070312 262.074219c-68.929687 0-125.007812 56.058593-125.007812 124.960937 0 68.90625 56.078125 124.964844 125.007812 124.964844 68.929688 0 125.007813-56.058594 125.007813-124.964844 0-68.902344-56.078125-124.960937-125.007813-124.960937zm60.90625 87.050781-11.699218 11.695312c1.949218 3.515626 3.515625 7.273438 4.652344 11.210938h16.535156v30.007812h-16.535156c-1.136719 3.9375-2.703126 7.695313-4.652344 11.210938l11.699218 11.695312-21.226562 21.21875-11.699219-11.695312c-3.519531 1.953125-7.277343 3.515625-11.214843 4.652344v16.53125h-30.019532v-16.53125c-3.941406-1.136719-7.699218-2.699219-11.214844-4.652344l-11.703124 11.695312-21.226563-21.21875 11.703125-11.695312c-1.953125-3.515625-3.519531-7.273438-4.65625-11.210938h-16.535156v-30.007812h16.535156c1.136719-3.9375 2.703125-7.695312 4.65625-11.210938l-11.703125-11.695312 21.226563-21.21875 11.703124 11.695312c3.515626-1.949218 7.273438-3.515624 11.214844-4.652343v-16.53125h30.019532v16.53125c3.9375 1.136719 7.695312 2.703125 11.214843 4.652343l11.699219-11.695312zm0 0" fill="#FFFFFF"/></svg>
