<?xml version="1.0"?>
<svg xmlns="http://www.w3.org/2000/svg" height="512px" viewBox="0 0 64 64" width="512px"><path d="m26 10h12a3 3 0 0 0 0-6h-12a3 3 0 0 0 0 6z" fill="#FFFFFF"/><path d="m55 46.827a13.053 13.053 0 0 0 -2.762-8.012l-3.723-4.758a7.545 7.545 0 0 0 -.915-.057 6.619 6.619 0 0 0 -4.6 1.794 8.747 8.747 0 0 1 -11.618 0 6.763 6.763 0 0 0 -9.171 0 8.539 8.539 0 0 1 -5.811 2.206 8.14 8.14 0 0 1 -3.447-.707l-1.191 1.522a13.053 13.053 0 0 0 -2.762 8.012v2.173a11.013 11.013 0 0 0 11 11h24a11.013 11.013 0 0 0 11-11zm-35 7.173h-2v-2h2zm2-12h-2v-2h2zm6 7h-2v-2h2zm4 7h-2v-2h2zm3-14h-2v-2h2zm4 10h-2v-2h2zm5-7h-2v-2h2zm3 12h-2v-2h2z" fill="#FFFFFF"/><path d="m16.4 36a6.6 6.6 0 0 0 4.59-1.792 8.738 8.738 0 0 1 11.61 0 6.77 6.77 0 0 0 9.179 0 8.68 8.68 0 0 1 5.152-2.174l-7.168-9.159a13.056 13.056 0 0 1 -2.763-8.012v-2.863h-10v2.863a13.056 13.056 0 0 1 -2.763 8.012l-10.007 12.787a6.464 6.464 0 0 0 2.17.338zm17.6-10h2v2h-2zm-5-3h2v2h-2zm-4 5h2v2h-2z" fill="#FFFFFF"/></svg>
