<?xml version="1.0"?>
<svg xmlns="http://www.w3.org/2000/svg" id="Capa_1" enable-background="new 0 0 390 390" height="512px" viewBox="0 0 390 390" width="512px"><path d="m237.811 195.96c-4.038 11.501-8.766 22.748-14.156 33.68-9.272 18.808-23.429 42.283-43.768 63.833 21.687 11.276 48.408 2.837 59.685-18.849 4.119-7.922 5.746-16.905 4.666-25.769z" fill="#FFA600"/><path d="m76.155 31.865-41.013 39.991 16.639 16.64 41.014-39.991z" fill="#FFA600"/><path d="m67.756 89.679 9.373 10.042 23.226-22.583-9.404-10.076z" fill="#FFA600"/><path d="m229.484 182.85-53.122 34.064c-17.391 11.152-24.762 32.848-17.762 52.286.338.94.714 1.885 1.119 2.81 2.397 5.476 5.889 10.404 10.261 14.48 19.91-20.753 33.741-43.608 42.762-61.852 6.66-13.472 12.258-27.444 16.742-41.788z" fill="#FFA600"/><path d="m335.733 0h-130.346c-10.558.012-19.113 8.567-19.125 19.125v32.662c0 3.314-2.686 6-6 6h-35.028c-4.961-.01-9.73 1.918-13.29 5.374l-73.3 71.273c-3.725 3.612-5.833 8.577-5.844 13.766v197.55c.028 24.426 19.82 44.22 44.246 44.25h213.562c24.427-.028 44.222-19.823 44.25-44.25v-326.625c-.012-10.558-8.567-19.113-19.125-19.125zm-83.92 276.83c-6.233 14.118-17.965 25.076-32.475 30.332-6.082 2.194-12.498 3.316-18.963 3.316-10.326-.013-20.453-2.846-29.287-8.193-9.517 9.049-19.9 17.14-31 24.157-2.789 1.789-6.501.978-8.29-1.812-1.789-2.789-.978-6.501 1.812-8.29.029-.018.058-.037.087-.055 9.884-6.247 19.164-13.403 27.719-21.374-5.399-5.121-9.717-11.272-12.7-18.09-.513-1.171-.989-2.367-1.417-3.556-8.895-24.706.473-52.28 22.577-66.454l67.424-43.227c2.79-1.788 6.501-.976 8.289 1.813.487.759.796 1.618.905 2.514l9.659 79.5c1.217 10.019-.282 20.179-4.34 29.419zm19.617-207.5h-53.481c-3.314 0-6-2.686-6-6v-26.617c.012-10.247 8.316-18.551 18.563-18.563h80.1c3.314 0 6 2.686 6 6-.028 24.941-20.241 45.153-45.182 45.178z" fill="#FFA600"/><path d="m223.949 36.713v20.615h47.481c16.003-.02 29.719-11.443 32.634-27.178h-73.552c-3.623.005-6.558 2.94-6.563 6.563z" fill="#FFA600"/></svg>
