<?xml version="1.0" encoding="iso-8859-1"?>
<!-- Generator: Adobe Illustrator 19.0.0, SVG Export Plug-In . SVG Version: 6.00 Build 0)  -->
<svg xmlns="http://www.w3.org/2000/svg" xmlns:xlink="http://www.w3.org/1999/xlink" version="1.1" id="Capa_1" x="0px" y="0px" viewBox="0 0 440.886 440.886" style="enable-background:new 0 0 440.886 440.886;" xml:space="preserve" width="512px" height="512px">
<g>
	<g>
		<polygon points="400.323,172.8 267.923,40.4 256.403,28.96 246.323,39.04 257.763,50.56 390.163,182.96 401.523,194.24     411.683,184.16   " fill="#FFA600"/>
	</g>
</g>
<g>
	<g>
		<polygon points="381.123,192 248.723,59.6 237.283,48.16 227.123,58.24 238.563,69.68 370.963,202.16 382.323,213.44     392.483,203.36   " fill="#FFA600"/>
	</g>
</g>
<g>
	<g>
		<path d="M362.003,211.68L229.443,78.72l-11.44-11.44l-40,40c-6.384,6.109-6.607,16.237-0.498,22.622    c0.162,0.17,0.328,0.336,0.498,0.498l0.96,0.96l1.2,0.56c0.48,0,49.28,24,76.88,51.44c28.96,29.28,51.52,76.48,51.52,77.28    l0.56,1.28l1.04,1.04c6.109,6.384,16.237,6.607,22.622,0.498c0.17-0.162,0.336-0.328,0.498-0.498l40-40L362.003,211.68z" fill="#FFA600"/>
	</g>
</g>
<g>
	<g>
		<path d="M435.683,136.96L303.603,4.64c-6.465-6.187-16.655-6.187-23.12,0l-14.96,15.28l11.52,11.52l132.32,132.32l11.2,11.36    l15.04-15.04C441.981,153.706,442.017,143.378,435.683,136.96z" fill="#FFA600"/>
	</g>
</g>
<g>
	<g>
		<path d="M103.784,336.741c-3.089-3.073-7.264-4.805-11.621-4.821c-9.146,0.033-16.533,7.473-16.501,16.619    c0.016,4.357,1.748,8.532,4.821,11.621c6.529,6.258,16.831,6.258,23.36,0C110.294,353.677,110.267,343.191,103.784,336.741z" fill="#FFA600"/>
	</g>
</g>
<g>
	<g>
		<path d="M261.363,212.32c-8.629-12.356-19.382-23.082-31.76-31.68h0c-3.054-2.116-7.163-1.851-9.92,0.64    c-0.8,0.72-80.4,72-108.24,93.76c-14.367,12.723-34.407,16.865-52.64,10.88c-2.846-0.845-5.926-0.044-8,2.08l-48,48    c-3.102,3.12-3.102,8.16,0,11.28l45.12,45.12l0.56,0.48l0.56,0.56l45.12,45.12c3.12,3.102,8.16,3.102,11.28,0l48-48    c2.124-2.074,2.925-5.154,2.08-8c-5.968-18.234-1.828-38.266,10.88-52.64c22.16-27.52,93.52-107.12,94.16-107.92    C262.982,219.323,263.31,215.358,261.363,212.32z M115.052,370.814c-6.021,6.187-14.257,9.723-22.889,9.826    c-8.593,0.094-16.875-3.213-23.04-9.2c-12.856-12.51-13.136-33.073-0.626-45.929s33.073-13.136,45.929-0.626    S127.562,357.958,115.052,370.814z" fill="#FFA600"/>
	</g>
</g>
<g>
</g>
<g>
</g>
<g>
</g>
<g>
</g>
<g>
</g>
<g>
</g>
<g>
</g>
<g>
</g>
<g>
</g>
<g>
</g>
<g>
</g>
<g>
</g>
<g>
</g>
<g>
</g>
<g>
</g>
</svg>
