<?xml version="1.0"?>
<svg xmlns="http://www.w3.org/2000/svg" id="Capa_1" enable-background="new 0 0 511.999 511.999" height="512px" viewBox="0 0 511.999 511.999" width="512px"><path d="m256 511.999c41.909 0 165-151.454 165-256 0-121.011-94.175-135-165-135s-165 13.989-165 135c0 104.546 123.091 256 165 256zm15-91c0 8.291-6.709 15-15 15s-15-6.709-15-15v-30c0-8.291 6.709-15 15-15s15 6.709 15 15zm60-180c0-8.291 6.709-15 15-15s15 6.709 15 15v30c0 8.291-6.709 15-15 15s-15-6.709-15-15zm-15 75c8.291 0 15 6.709 15 15v30c0 8.291-6.709 15-15 15s-15-6.709-15-15v-30c0-8.291 6.709-15 15-15zm-45-105c0-8.291 6.709-15 15-15s15 6.709 15 15v30c0 8.291-6.709 15-15 15s-15-6.709-15-15zm-15 75c8.291 0 15 6.709 15 15v30c0 8.291-6.709 15-15 15s-15-6.709-15-15v-30c0-8.291 6.709-15 15-15zm-45-75c0-8.291 6.709-15 15-15s15 6.709 15 15v30c0 8.291-6.709 15-15 15s-15-6.709-15-15zm-45 75c-8.291 0-15-6.709-15-15v-30c0-8.291 6.709-15 15-15s15 6.709 15 15v30c0 8.291-6.709 15-15 15zm15 75v-30c0-8.291 6.709-15 15-15s15 6.709 15 15v30c0 8.291-6.709 15-15 15s-15-6.709-15-15z" fill="#FFA600"/><path d="m256 90.999c41.587 0 75.848 6.368 104.196 17.787 6.372-11.283 10.349-24.018 10.413-37.811 0-8.291-6.709-15-15-15-9.17 0-18.442.908-27.729 2.725.718-15.425-.908-32.723-4.893-47.577-1.025-3.838-3.545-7.119-6.987-9.111-3.457-1.992-7.588-2.534-11.382-1.494-17.49 4.687-33.794 13.441-48.618 24.032-14.824-10.591-31.128-19.345-48.618-24.033-3.823-1.04-7.939-.498-11.382 1.494s-5.962 5.273-6.987 9.111c-3.984 14.854-5.61 32.152-4.893 47.577-9.287-1.816-18.56-2.725-27.729-2.725-3.984 0-7.822 1.948-10.635 4.775s-4.38 7.017-4.365 11.001c.064 13.466 3.995 25.964 10.292 37.081 28.37-11.45 62.671-17.832 104.317-17.832z" fill="#FFA600"/></svg>
