<?xml version="1.0" encoding="iso-8859-1"?>
<!-- Generator: Adobe Illustrator 19.0.0, SVG Export Plug-In . SVG Version: 6.00 Build 0)  -->
<svg xmlns="http://www.w3.org/2000/svg" xmlns:xlink="http://www.w3.org/1999/xlink" version="1.1" id="Layer_1" x="0px" y="0px" viewBox="0 0 512 512" style="enable-background:new 0 0 512 512;" xml:space="preserve" width="512px" height="512px">
<g>
	<rect x="241" width="30" height="60" fill="#FFFFFF"/>
	<rect x="91" y="151" width="60" height="30" fill="#FFFFFF"/>
	<rect x="361" y="151" width="60" height="30" fill="#FFFFFF"/>
	
		<rect x="336.451" y="40.539" transform="matrix(0.7071 0.7071 -0.7071 0.7071 152.8137 -227.8526)" width="29.997" height="59.994" fill="#FFFFFF"/>
	<rect x="130.554" y="55.538" transform="matrix(0.7071 0.7071 -0.7071 0.7071 96.9008 -92.867)" width="59.994" height="29.997" fill="#FFFFFF"/>
	<polygon points="149.422,512 241,512 241,421 159.423,421  " fill="#FFFFFF"/>
	<polygon points="271,241 271,301 339.232,301 332.571,241  " fill="#FFFFFF"/>
	<polygon points="65.193,301 142.57,301 149.235,241 85.192,241  " fill="#FFFFFF"/>
	<polygon points="35.197,391 132.565,391 139.234,331 55.192,331  " fill="#FFFFFF"/>
	<polygon points="172.76,301 241,301 241,241 179.429,241  " fill="#FFFFFF"/>
	<polygon points="162.755,391 241,391 241,331 169.428,331  " fill="#FFFFFF"/>
	<polygon points="426.808,241 362.761,241 369.427,301 446.807,301  " fill="#FFFFFF"/>
	<polygon points="0,512 119.228,512 129.232,421 25.196,421  " fill="#FFFFFF"/>
	<polygon points="486.804,421 382.753,421 392.75,512 512,512  " fill="#FFFFFF"/>
	<path d="M196.381,211h119.238C325.137,198.426,331,182.948,331,166c0-41.353-33.633-75-75-75s-75,33.647-75,75   C181,182.948,186.863,198.426,196.381,211z" fill="#FFFFFF"/>
	<polygon points="271,421 271,512 362.56,512 352.563,421  " fill="#FFFFFF"/>
	<polygon points="456.808,331 372.759,331 379.42,391 476.803,391  " fill="#FFFFFF"/>
	<polygon points="271,391 349.23,391 342.565,331 271,331  " fill="#FFFFFF"/>
</g>















</svg>
