<?xml version="1.0"?>
<svg xmlns="http://www.w3.org/2000/svg" height="512px" viewBox="0 0 512 512" width="512px"><path d="m118.367188 150.5h275.265624v82.46875h-275.265624zm0 0" fill="#FFFFFF"/><path d="m497 136.566406h-25.164062v-81.398437c0-30.421875-24.75-55.167969-55.171876-55.167969h-321.332031c-30.417969 0-55.167969 24.746094-55.167969 55.167969v81.398437h-25.164062c-8.285156 0-15 6.714844-15 15v80.332032c0 8.285156 6.714844 15 15 15h25.164062v49.269531c0 57.648437 22.453126 111.851562 63.21875 152.617187 40.765626 40.765625 94.964844 63.214844 152.617188 63.214844 57.648438 0 111.851562-22.449219 152.613281-63.214844 40.769531-40.765625 63.222657-94.96875 63.222657-152.617187v-49.269531h25.164062c8.285156 0 15-6.714844 15-15v-80.332032c0-8.285156-6.714844-15-15-15zm-155.207031-84.910156c2.789062-2.800781 6.660156-4.398438 10.609375-4.398438 3.949218 0 7.808594 1.597657 10.609375 4.398438 2.789062 2.789062 4.390625 6.648438 4.390625 10.601562 0 3.949219-1.601563 7.816407-4.390625 10.609376-2.800781 2.789062-6.660157 4.390624-10.609375 4.390624-3.949219 0-7.820313-1.601562-10.609375-4.390624-2.789063-2.792969-4.390625-6.660157-4.390625-10.609376 0-3.949218 1.601562-7.8125 4.390625-10.601562zm-96.402344 0c2.789063-2.800781 6.660156-4.398438 10.609375-4.398438s7.8125 1.597657 10.609375 4.398438c2.792969 2.789062 4.390625 6.648438 4.390625 10.601562 0 3.949219-1.597656 7.816407-4.390625 10.609376-2.796875 2.789062-6.660156 4.390624-10.609375 4.390624s-7.820312-1.601562-10.609375-4.390624c-2.789063-2.792969-4.390625-6.660157-4.390625-10.609376 0-3.949218 1.601562-7.8125 4.390625-10.601562zm-96.398437 0c2.789062-2.800781 6.660156-4.398438 10.609374-4.398438 3.949219 0 7.808594 1.597657 10.601563 4.398438 2.800781 2.789062 4.398437 6.648438 4.398437 10.601562 0 3.949219-1.601562 7.816407-4.398437 10.609376-2.792969 2.789062-6.652344 4.390624-10.601563 4.390624-3.949218 0-7.820312-1.601562-10.609374-4.390624-2.789063-2.792969-4.390626-6.660157-4.390626-10.609376 0-3.949218 1.601563-7.8125 4.390626-10.601562zm21.210937 255.121094c-2.792969 2.789062-6.652344 4.390625-10.601563 4.390625-3.949218 0-7.820312-1.601563-10.609374-4.390625-2.789063-2.789063-4.390626-6.660156-4.390626-10.609375s1.601563-7.820313 4.390626-10.609375c2.789062-2.789063 6.660156-4.390625 10.609374-4.390625 3.9375 0 7.808594 1.601562 10.601563 4.390625 2.800781 2.789062 4.398437 6.660156 4.398437 10.609375s-1.597656 7.820312-4.398437 10.609375zm96.40625 0c-2.796875 2.789062-6.65625 4.390625-10.605469 4.390625-3.949218 0-7.820312-1.601563-10.609375-4.390625-2.792969-2.800782-4.390625-6.667969-4.390625-10.609375 0-3.949219 1.597656-7.808594 4.390625-10.609375 2.796875-2.789063 6.660157-4.390625 10.609375-4.390625 3.9375 0 7.808594 1.601562 10.605469 4.390625 2.792969 2.789062 4.394531 6.660156 4.394531 10.609375s-1.601562 7.808593-4.394531 10.609375zm96.394531 0c-2.792968 2.789062-6.652344 4.390625-10.601562 4.390625-3.949219 0-7.820313-1.601563-10.609375-4.390625-2.789063-2.800782-4.390625-6.660156-4.390625-10.609375s1.601562-7.820313 4.390625-10.609375c2.800781-2.789063 6.660156-4.390625 10.609375-4.390625 3.949218 0 7.808594 1.601562 10.601562 4.390625 2.800782 2.800781 4.398438 6.660156 4.398438 10.609375 0 3.941406-1.601563 7.808593-4.398438 10.609375zm60.628906-58.808594c0 8.28125-6.714843 15-15 15h-305.265624c-8.285157 0-15-6.71875-15-15v-112.46875c0-8.285156 6.714843-15 15-15h305.265624c8.285157 0 15 6.714844 15 15zm0 0" fill="#FFFFFF"/></svg>
