<svg id="Componente_9_1" data-name="Componente 9 – 1" xmlns="http://www.w3.org/2000/svg" xmlns:xlink="http://www.w3.org/1999/xlink" width="69.215" height="76" viewBox="0 0 69.215 76">
  <defs>
    <clipPath id="clip-path">
      <rect id="Retângulo_535" data-name="Retângulo 535" width="69.215" height="76" fill="#ffa600"/>
    </clipPath>
  </defs>
  <g id="Grupo_520" data-name="Grupo 520" clip-path="url(#clip-path)">
    <path id="Caminho_50264" data-name="Caminho 50264" d="M19.76,92.643a19.769,19.769,0,1,1,13.979-5.79,19.639,19.639,0,0,1-13.979,5.79m0-37.8a18.031,18.031,0,1,0,12.75,5.281,17.913,17.913,0,0,0-12.75-5.281" transform="translate(0 -46.159)" fill="#ffa600"/>
    <path id="Caminho_50265" data-name="Caminho 50265" d="M44.355,113.567q-.727,0-1.461-.065a16.061,16.061,0,1,1,9.984-29.6.869.869,0,1,1-.926,1.47,14.327,14.327,0,1,0,6.641,13.406,14.43,14.43,0,0,0-.038-2.958.869.869,0,0,1,1.726-.2,16.174,16.174,0,0,1,.044,3.315,16.064,16.064,0,0,1-15.969,14.63" transform="translate(-24.568 -70.79)" fill="#ffa600"/>
    <path id="Caminho_50266" data-name="Caminho 50266" d="M229.978,122.034a.869.869,0,0,1-.824-.594,14.422,14.422,0,0,0-3.62-5.748.869.869,0,0,1,1.211-1.247,16.171,16.171,0,0,1,4.058,6.444.869.869,0,0,1-.824,1.145" transform="translate(-195.805 -99.263)" fill="#ffa600"/>
    <path id="Caminho_50267" data-name="Caminho 50267" d="M243.98,301l-10.149-10.149,3.849-3.849,10.148,10.149Zm-7.691-10.149,7.691,7.691,1.391-1.391-7.69-7.691Z" transform="translate(-203.246 -249.467)" fill="#ffa600"/>
    <path id="Caminho_50268" data-name="Caminho 50268" d="M326.335,385.209h-.1a5.584,5.584,0,0,1-4.02-1.789L303.539,363.4a3.593,3.593,0,0,1,.087-5.011l1.584-1.584a3.593,3.593,0,0,1,5.011-.087l4.578,4.27a.869.869,0,1,1-1.185,1.271l-4.578-4.27a1.863,1.863,0,0,0-2.6.045l-1.584,1.584a1.862,1.862,0,0,0-.045,2.6l18.675,20.023a3.86,3.86,0,0,0,2.779,1.237h.07a3.86,3.86,0,0,0,2.751-1.14l.07-.071a3.893,3.893,0,0,0-.1-5.6l-7.6-7.085a.869.869,0,0,1,1.185-1.271l7.6,7.085a5.631,5.631,0,0,1,.141,8.1l-.07.07a5.582,5.582,0,0,1-3.979,1.649" transform="translate(-262.989 -309.209)" fill="#ffa600"/>
    <path id="Caminho_50269" data-name="Caminho 50269" d="M406.3,414.915a.865.865,0,0,1-.592-.234l-3.3-3.08a.869.869,0,0,1,1.185-1.271l3.3,3.081a.869.869,0,0,1-.593,1.5" transform="translate(-349.531 -356.456)" fill="#ffa600"/>
    <path id="Caminho_50270" data-name="Caminho 50270" d="M6.223,511.906H6.205a.86.86,0,0,0-.86.86v3.377a.86.86,0,0,0,.86.86h.017a.86.86,0,0,0,.86-.86v-3.377a.86.86,0,0,0-.86-.86" transform="translate(-4.646 -444.949)" fill="#ffa600"/>
    <path id="Caminho_50271" data-name="Caminho 50271" d="M37.615,486.479H37.6a.86.86,0,0,0-.86.86v6.7a.86.86,0,0,0,.86.86h.017a.86.86,0,0,0,.86-.86v-6.7a.86.86,0,0,0-.86-.86" transform="translate(-31.932 -422.848)" fill="#ffa600"/>
    <path id="Caminho_50272" data-name="Caminho 50272" d="M69.007,455.835h-.017a.86.86,0,0,0-.86.86v10.711a.86.86,0,0,0,.86.86h.017a.86.86,0,0,0,.86-.86V456.7a.86.86,0,0,0-.86-.86" transform="translate(-59.218 -396.212)" fill="#ffa600"/>
    <path id="Caminho_50273" data-name="Caminho 50273" d="M100.4,475.931h-.017a.86.86,0,0,0-.86.86v8.083a.86.86,0,0,0,.86.86h.017a.86.86,0,0,0,.86-.86v-8.083a.86.86,0,0,0-.86-.86" transform="translate(-86.504 -413.679)" fill="#ffa600"/>
    <path id="Caminho_50274" data-name="Caminho 50274" d="M131.791,461.536h-.017a.86.86,0,0,0-.86.86v9.966a.86.86,0,0,0,.86.86h.017a.86.86,0,0,0,.86-.86V462.4a.86.86,0,0,0-.86-.86" transform="translate(-113.79 -401.167)" fill="#ffa600"/>
    <path id="Caminho_50275" data-name="Caminho 50275" d="M163.182,486.479h-.017a.86.86,0,0,0-.86.86v6.7a.86.86,0,0,0,.86.86h.017a.86.86,0,0,0,.86-.86v-6.7a.86.86,0,0,0-.86-.86" transform="translate(-141.075 -422.848)" fill="#ffa600"/>
    <path id="Caminho_50276" data-name="Caminho 50276" d="M194.574,431.517h-.017a.86.86,0,0,0-.86.86V446.27a.86.86,0,0,0,.86.86h.017a.86.86,0,0,0,.86-.86V432.377a.86.86,0,0,0-.86-.86" transform="translate(-168.361 -375.075)" fill="#ffa600"/>
    <path id="Caminho_50277" data-name="Caminho 50277" d="M305.746,53.641h-.017a.86.86,0,0,1-.86-.86V1.738H273.975a.86.86,0,0,1-.86-.86V.86a.86.86,0,0,1,.86-.86h32.631V52.78a.86.86,0,0,1-.86.86" transform="translate(-237.392 0)" fill="#ffa600"/>
    <path id="Caminho_50278" data-name="Caminho 50278" d="M360.188,82.58H346.28a.86.86,0,0,1-.86-.86V81.7a.86.86,0,0,1,.86-.86h13.908a.86.86,0,0,1,.86.86v.017a.86.86,0,0,1-.86.86" transform="translate(-300.239 -70.268)" fill="#ffa600"/>
    <path id="Caminho_50279" data-name="Caminho 50279" d="M351.505,134.716H334.521a.86.86,0,0,1-.86-.86v-.017a.86.86,0,0,1,.86-.86h16.984a.86.86,0,0,1,.86.86v.017a.86.86,0,0,1-.86.86" transform="translate(-290.018 -115.585)" fill="#ffa600"/>
    <path id="Caminho_50280" data-name="Caminho 50280" d="M360.188,186.851H346.28a.86.86,0,0,1-.86-.86v-.017a.86.86,0,0,1,.86-.86h13.908a.86.86,0,0,1,.86.86v.017a.86.86,0,0,1-.86.86" transform="translate(-300.239 -160.9)" fill="#ffa600"/>
    <path id="Caminho_50281" data-name="Caminho 50281" d="M412.115,295.4h-6.094a.86.86,0,0,1-.86-.86v-.017a.86.86,0,0,1,.86-.86h6.094a.86.86,0,0,1,.86.86v.017a.86.86,0,0,1-.86.86" transform="translate(-352.166 -255.249)" fill="#ffa600"/>
    <path id="Caminho_50282" data-name="Caminho 50282" d="M111.584,160.22a.574.574,0,0,0,.436.213l.791.015h0a.575.575,0,0,0,.5-.284l7.048-12a.575.575,0,0,0-.487-.866l-4.436-.066,4.5-8.641a.575.575,0,0,0-.5-.84l-6.905-.1a.574.574,0,0,0-.548.377l-4.811,13.145a.575.575,0,0,0,.531.772l5.269.078-1.507,7.727a.574.574,0,0,0,.117.472m2.65-8.653a.575.575,0,0,0-.556-.685l-5.147-.076,4.392-12,5.566.083-4.5,8.641a.575.575,0,0,0,.5.84l4.38.065-6.033,10.272Z" transform="translate(-94.24 -121.556)" fill="#ffa600"/>
  </g>
</svg>
