<svg id="Componente_12_1" data-name="Componente 12 – 1" xmlns="http://www.w3.org/2000/svg" xmlns:xlink="http://www.w3.org/1999/xlink" width="75.975" height="76" viewBox="0 0 75.975 76">
  <defs>
    <clipPath id="clip-path">
      <rect id="Retângulo_540" data-name="Retângulo 540" width="75.975" height="76" transform="translate(0 0)" fill="#ffa600"/>
    </clipPath>
  </defs>
  <g id="Grupo_528" data-name="Grupo 528" clip-path="url(#clip-path)">
    <path id="Caminho_50310" data-name="Caminho 50310" d="M140.762,661.281h-9.191a1.2,1.2,0,0,0-1.2,1.2,27.3,27.3,0,0,1-.227,3.332,18.771,18.771,0,0,0-24.36,24.556c-.594.047-1.186.1-1.785.1A26.3,26.3,0,0,1,88.37,685.31l2.5-1.07A1.2,1.2,0,0,0,90.774,682l-19.5-6.5a1.2,1.2,0,0,0-1.517,1.518l6.5,19.511a1.2,1.2,0,0,0,1.088.819,1.118,1.118,0,0,0,1.153-.726l1.391-3.246a37.784,37.784,0,0,0,24.109,8.7,35.282,35.282,0,0,0,11.186-1.829,18.753,18.753,0,0,0,24.781-25.368,39.7,39.7,0,0,0,2-12.39,1.2,1.2,0,0,0-1.2-1.2m-17.594,38.362a16.766,16.766,0,0,1-6.349-1.281,16.1,16.1,0,0,1-1.49-.719,16.522,16.522,0,0,1-5.828-5.361q-.361-.544-.679-1.115c-.2-.367-.384-.748-.56-1.132a16.371,16.371,0,0,1,21.482-21.794q.562.246,1.1.531c.387.206.758.434,1.126.669a16.5,16.5,0,0,1,5.392,5.644q.395.682.724,1.406a16.239,16.239,0,0,1,1.475,6.759,16.413,16.413,0,0,1-16.395,16.395M104,699.668A35.412,35.412,0,0,1,80.236,690.5a1.2,1.2,0,0,0-.8-.309,1.182,1.182,0,0,0-.257.028,1.2,1.2,0,0,0-.846.7l-.793,1.853-4.743-14.239,14.23,4.747-1.439.617a1.2,1.2,0,0,0-.31,2.012A28.725,28.725,0,0,0,104,692.87a25.96,25.96,0,0,0,2.949-.174,18.923,18.923,0,0,0,5.391,5.886,32.846,32.846,0,0,1-8.34,1.086m28.438-32.749a30.6,30.6,0,0,0,.311-3.24h6.8a37.409,37.409,0,0,1-1.257,8.452,18.927,18.927,0,0,0-5.849-5.212" transform="translate(-65.986 -626.067)" fill="#ffa600"/>
    <path id="Caminho_50311" data-name="Caminho 50311" d="M1.2,40.807H10.39a1.2,1.2,0,0,0,1.2-1.2c0-.9.05-1.785.136-2.666A20.355,20.355,0,0,0,42.138,11.955a26.366,26.366,0,0,1,11.435,4.83l-2.477,1.062a1.2,1.2,0,0,0,.093,2.242l19.5,6.5a1.218,1.218,0,0,0,1.228-.29,1.2,1.2,0,0,0,.29-1.228L65.7,5.564a1.2,1.2,0,0,0-1.088-.819,1.14,1.14,0,0,0-1.153.726L62.077,8.709A37.809,37.809,0,0,0,37.963.02a35.121,35.121,0,0,0-8.119.964A20.277,20.277,0,0,0,3.452,23.433,39.825,39.825,0,0,0,0,39.607a1.2,1.2,0,0,0,1.2,1.2M23.592,2.394c.5,0,.984.034,1.47.075a17.724,17.724,0,0,1,2.512.384A18.134,18.134,0,0,1,37.683,9.233c.312.392.614.793.893,1.212q.4.6.745,1.226A17.981,17.981,0,0,1,12.128,34.246c-.352-.292-.686-.606-1.014-.923-.355-.342-.691-.7-1.018-1.073a17.61,17.61,0,0,1-4.434-10.6c-.03-.42-.064-.839-.064-1.267s.034-.835.063-1.25A18,18,0,0,1,23.592,2.394m14.37.025A35.437,35.437,0,0,1,61.73,11.579a1.214,1.214,0,0,0,1.061.281,1.2,1.2,0,0,0,.846-.7l.789-1.842,4.743,14.238-14.23-4.747L56.36,18.2a1.2,1.2,0,0,0,.309-2.012A28.778,28.778,0,0,0,40.72,9.361a20.521,20.521,0,0,0-7.008-6.652,32.769,32.769,0,0,1,4.251-.289m-28.43,32.7a30.548,30.548,0,0,0-.318,3.283h-6.8A37.405,37.405,0,0,1,4.462,27.385a20.422,20.422,0,0,0,5.071,7.739" transform="translate(0 0.005)" fill="#ffa600"/>
    <path id="Caminho_50312" data-name="Caminho 50312" d="M241.446,165.354c.017,0,.032.008.048.008h6.581l-1.367,8.2a1.2,1.2,0,0,0,.666,1.279,1.184,1.184,0,0,0,.516.117,1.2,1.2,0,0,0,.9-.4l12.8-14.4a1.2,1.2,0,0,0-.9-2h-6.534l.32-1.6.315-1.579.289-1.443.387-1.938a1.2,1.2,0,0,0-2.024-1.084l-12.8,12.8a1.194,1.194,0,0,0,.8,2.04m10.6-8.878-.349,1.743-.182.909a1.2,1.2,0,0,0,1.176,1.435h5.326l-8.257,9.289.916-5.494a1.2,1.2,0,0,0-1.183-1.4h-5.1l7.947-7.946Z" transform="translate(-227.499 -142.17)" fill="#ffa600"/>
    <path id="Caminho_50313" data-name="Caminho 50313" d="M962.017,875.429a4.96,4.96,0,0,1,2.737.778,2.833,2.833,0,0,1,.885.925,1.823,1.823,0,0,1,.267.914,1.261,1.261,0,0,0,1.2,1.2,1.2,1.2,0,0,0,1.2-1.2,4.137,4.137,0,0,0-.538-2.013,4.972,4.972,0,0,0-.857-1.1,5.828,5.828,0,0,0-.962-.772,7,7,0,0,0-2.732-1.035v-.861a1.2,1.2,0,1,0-2.4,0v.861c-2.9.448-5.089,2.48-5.089,4.919,0,2.113,1.858,3.291,3.969,4.192.422.18.851.35,1.281.514l.618.234c.226.085.458.172.692.261,1.757.673,3.618,1.482,3.618,2.433,0,1.418-1.781,2.616-3.889,2.616a4.127,4.127,0,0,1-3.657-1.776,1.811,1.811,0,0,1-.232-.84,1.2,1.2,0,0,0-1.2-1.2c-.023,0-.044.012-.067.014a1.221,1.221,0,0,0-1.132,1.186,4.051,4.051,0,0,0,.124.978,4.271,4.271,0,0,0,.484,1.139,6.239,6.239,0,0,0,4.481,2.8v.861a1.2,1.2,0,1,0,2.4,0V890.6a7.221,7.221,0,0,0,1.448-.386,5.516,5.516,0,0,0,3.376-3.169,4.065,4.065,0,0,0,.265-1.364c0-2.212-2.034-3.4-4.263-4.314q-.623-.255-1.25-.492l-.354-.135c-.29-.109-.591-.223-.893-.34-1.7-.656-3.417-1.439-3.417-2.354,0-1.419,1.781-2.616,3.889-2.616" transform="translate(-904.836 -824.681)" fill="#ffa600"/>
  </g>
</svg>
