<svg id="Componente_11_1" data-name="Componente 11 – 1" xmlns="http://www.w3.org/2000/svg" xmlns:xlink="http://www.w3.org/1999/xlink" width="53.498" height="76" viewBox="0 0 53.498 76">
  <defs>
    <clipPath id="clip-path">
      <rect id="Retângulo_539" data-name="Retângulo 539" width="53.498" height="76" fill="#ffa600"/>
    </clipPath>
  </defs>
  <g id="Grupo_526" data-name="Grupo 526" clip-path="url(#clip-path)">
    <path id="Caminho_50299" data-name="Caminho 50299" d="M110.132,167.947H98.63a.72.72,0,0,0-.719.72v.295a.719.719,0,0,0,.719.719h11.5a.719.719,0,0,0,.719-.719v-.295a.72.72,0,0,0-.719-.72" transform="translate(-64.985 -111.469)" fill="#ffa600"/>
    <path id="Caminho_50300" data-name="Caminho 50300" d="M98.287,109.374h11.5a.72.72,0,0,0,.719-.719v-.295a.72.72,0,0,0-.719-.72h-11.5a.72.72,0,0,0-.719.72v.295a.72.72,0,0,0,.719.719" transform="translate(-64.758 -71.443)" fill="#ffa600"/>
    <path id="Caminho_50301" data-name="Caminho 50301" d="M98.287,72.271h11.5a.72.72,0,0,0,.719-.719v-.294a.72.72,0,0,0-.719-.72h-11.5a.72.72,0,0,0-.719.72v.294a.72.72,0,0,0,.719.719" transform="translate(-64.758 -46.817)" fill="#ffa600"/>
    <path id="Caminho_50302" data-name="Caminho 50302" d="M110.132,149.4H98.63a.72.72,0,0,0-.719.72v.295a.719.719,0,0,0,.719.719h11.5a.719.719,0,0,0,.719-.719v-.295a.72.72,0,0,0-.719-.72" transform="translate(-64.985 -99.157)" fill="#ffa600"/>
    <path id="Caminho_50303" data-name="Caminho 50303" d="M98.287,90.822h11.5a.72.72,0,0,0,.719-.719v-.295a.72.72,0,0,0-.719-.72h-11.5a.72.72,0,0,0-.719.72V90.1a.72.72,0,0,0,.719.719" transform="translate(-64.758 -59.13)" fill="#ffa600"/>
    <path id="Caminho_50304" data-name="Caminho 50304" d="M29.739,158.479a9.328,9.328,0,1,1,9.329-9.329,9.339,9.339,0,0,1-9.329,9.329m0-20.159A10.83,10.83,0,1,0,40.57,149.15a10.842,10.842,0,0,0-10.831-10.83" transform="translate(-12.55 -91.805)" fill="#ffa600"/>
    <path id="Caminho_50305" data-name="Caminho 50305" d="M110.132,186.5H98.63a.72.72,0,0,0-.719.72v.295a.719.719,0,0,0,.719.719h11.5a.719.719,0,0,0,.719-.719v-.295a.72.72,0,0,0-.719-.72" transform="translate(-64.985 -123.783)" fill="#ffa600"/>
    <path id="Caminho_50306" data-name="Caminho 50306" d="M29.739,80.668a9.328,9.328,0,1,1,9.329-9.327,9.338,9.338,0,0,1-9.329,9.327m0-20.159A10.83,10.83,0,1,0,40.57,71.341,10.843,10.843,0,0,0,29.739,60.51" transform="translate(-12.55 -40.161)" fill="#ffa600"/>
    <path id="Caminho_50307" data-name="Caminho 50307" d="M52,8.949v61.5A4.055,4.055,0,0,1,47.946,74.5H5.552A4.055,4.055,0,0,1,1.5,70.448V8.949A4.055,4.055,0,0,1,5.552,4.9h6.554V9.529a2.809,2.809,0,0,0,2.805,2.8H38.586a2.808,2.808,0,0,0,2.8-2.8V4.9h6.555A4.055,4.055,0,0,1,52,8.949M13.608,2.8a1.3,1.3,0,0,1,1.3-1.3H38.586a1.3,1.3,0,0,1,1.3,1.3V9.529a1.3,1.3,0,0,1-1.3,1.3H14.911a1.3,1.3,0,0,1-1.3-1.3ZM41.391,3.4V2.8a2.808,2.808,0,0,0-2.8-2.8H14.911a2.809,2.809,0,0,0-2.805,2.8V3.4H5.552A5.559,5.559,0,0,0,0,8.949v61.5A5.559,5.559,0,0,0,5.552,76H47.946A5.559,5.559,0,0,0,53.5,70.448V8.949A5.559,5.559,0,0,0,47.946,3.4Z" fill="#ffa600"/>
    <path id="Caminho_50308" data-name="Caminho 50308" d="M45.319,79.074a.867.867,0,0,0-1.184.317l-3.58,6.188L39.191,83a.864.864,0,0,0-1.171-.36.867.867,0,0,0-.361,1.171l2.08,3.93a.9.9,0,0,0,1.548.037l4.35-7.52a.869.869,0,0,0-.317-1.184" transform="translate(-24.928 -52.405)" fill="#ffa600"/>
    <path id="Caminho_50309" data-name="Caminho 50309" d="M47.581,165.057,45.6,161.872l1.78-2.753a.86.86,0,0,0,.117-.427.775.775,0,0,0-.242-.615.856.856,0,0,0-.606-.233.756.756,0,0,0-.668.446l-1.327,2.093-1.376-2.108a.8.8,0,0,0-.693-.431.864.864,0,0,0-.607.234.774.774,0,0,0-.241.614.687.687,0,0,0,.125.406l.01.016,1.808,2.879-2.032,3.074a.9.9,0,0,0-.132.5.712.712,0,0,0,.253.558.832.832,0,0,0,.574.246.782.782,0,0,0,.713-.4l1.607-2.539,1.5,2.548a.7.7,0,0,0,.294.294.951.951,0,0,0,.435.1.834.834,0,0,0,.6-.241.728.728,0,0,0,.245-.563.758.758,0,0,0-.136-.478Z" transform="translate(-27.556 -104.763)" fill="#ffa600"/>
  </g>
</svg>
