<svg id="Componente_8_1" data-name="Componente 8 – 1" xmlns="http://www.w3.org/2000/svg" xmlns:xlink="http://www.w3.org/1999/xlink" width="76.382" height="76.19" viewBox="0 0 76.382 76.19">
  <defs>
    <clipPath id="clip-path">
      <rect id="Retângulo_536" data-name="Retângulo 536" width="76.382" height="76.19" fill="#ffa600"/>
    </clipPath>
  </defs>
  <g id="Grupo_521" data-name="Grupo 521" clip-path="url(#clip-path)">
    <path id="Caminho_50283" data-name="Caminho 50283" d="M153.147,72.208a1.172,1.172,0,0,0-1.444.3l-22.788,28.014a1.172,1.172,0,0,0,.909,1.911h10.054L134.8,121.458a1.171,1.171,0,0,0,2.042,1.041l22.73-28.014a1.171,1.171,0,0,0-.909-1.91h-10.05l5.134-19.018a1.172,1.172,0,0,0-.6-1.348m-7.2,21.233a1.171,1.171,0,0,0,1.131,1.477H156.2L138.478,116.76l4.059-15.193a1.173,1.173,0,0,0-1.132-1.474h-9.117l17.758-21.831Z" transform="translate(-106.042 -59.412)" fill="#ffa600"/>
    <path id="Caminho_50284" data-name="Caminho 50284" d="M35.352,79.608A35.868,35.868,0,0,1,15.524,16.084,1.172,1.172,0,0,0,15.6,14.34l-2.293-2.246L24.348,9.679l-2.115,11.1-1.6-1.558A1.172,1.172,0,0,0,19,20.9L22.16,23.98a1.172,1.172,0,0,0,1.968-.621L26.981,8.375a1.172,1.172,0,0,0-1.4-1.364L10.688,10.269a1.172,1.172,0,0,0-.569,1.982l2.925,2.864c-.739.648-1.457,1.327-2.144,2.029a38.2,38.2,0,0,0,24.268,64.8c.031,0,.062,0,.093,0a1.172,1.172,0,0,0,.091-2.34" transform="translate(0.001 -5.758)" fill="#ffa600"/>
    <path id="Caminho_50285" data-name="Caminho 50285" d="M250.92,10.806A38.223,38.223,0,0,0,226.912,0a1.172,1.172,0,1,0-.165,2.338,35.858,35.858,0,0,1,23.078,60.849c-.72.735-1.806,1.715-2.978,2.689a1.172,1.172,0,0,0-.07,1.738l2.311,2.261-11.039,2.415,2.114-11.1,1.425,1.385a1.172,1.172,0,0,0,1.633-1.681l-2.985-2.9a1.172,1.172,0,0,0-1.967.621L235.415,73.6a1.172,1.172,0,0,0,1.151,1.391,1.2,1.2,0,0,0,.251-.027L251.709,71.7a1.172,1.172,0,0,0,.569-1.982l-2.945-2.882c.681-.592,1.487-1.32,2.165-2.011a38.245,38.245,0,0,0-.578-54.02" transform="translate(-185.998 0)" fill="#ffa600"/>
  </g>
</svg>
