<svg id="engineer" xmlns="http://www.w3.org/2000/svg" width="59.217" height="59.217" viewBox="0 0 59.217 59.217">
  <g id="Grupo_434" data-name="Grupo 434" transform="translate(0)">
    <g id="Grupo_433" data-name="Grupo 433">
      <path id="Caminho_48930" data-name="Caminho 48930" d="M56.284,49.15c-5.921-3.116-10.45-4.846-14.472-5.529l.438-.6a.99.99,0,0,0,.16-.819l-.917-3.665A21.085,21.085,0,0,0,45.4,26.647V22.7H48.36a.987.987,0,0,0,0-1.974h-.987v-.987A16.913,16.913,0,0,0,45.565,12.1L36.7,13.8a.987.987,0,0,1-1.156-1.155l1.619-8.5a19.118,19.118,0,0,0-2.623-.961V2.977A2.98,2.98,0,0,0,31.566,0H27.651a2.98,2.98,0,0,0-2.978,2.977v.209a19.17,19.17,0,0,0-2.622.961l1.619,8.5A.988.988,0,0,1,22.513,13.8l-8.861-1.7a16.914,16.914,0,0,0-1.809,7.643v.987h-.987a.987.987,0,0,0,0,1.974h2.961v3.948a21.093,21.093,0,0,0,3.906,11.888L16.808,42.2a.986.986,0,0,0,.16.819l.438.6c-4.023.683-8.552,2.413-14.472,5.529A5.476,5.476,0,0,0,0,54.01v4.22a.987.987,0,0,0,.987.987H25.046l9.084-.008c.016,0,.029.009.044.009H58.23a.987.987,0,0,0,.987-.987V54.01A5.475,5.475,0,0,0,56.284,49.15Zm-40.493-22.5V22.7H43.425v3.948a18.141,18.141,0,0,1-3.9,11.289.989.989,0,0,0-.11.093q-.509.651-1.052,1.229l-.006.006c-.24.254-.49.48-.738.712a12.307,12.307,0,0,1-8.014,3.45,12.311,12.311,0,0,1-8.014-3.45c-.248-.232-.5-.458-.737-.712l-.006-.006q-.542-.577-1.053-1.229a.989.989,0,0,0-.109-.093A18.142,18.142,0,0,1,15.791,26.647ZM18.835,42.23l.443-1.771.007.007A14.507,14.507,0,0,0,28.126,45.3h.006l-2.679,6.025Zm7.044,15.011.591-2.96h6.278L33,55.532l.341,1.7Zm7.886-5.911-2.679-6.025h.006a14.506,14.506,0,0,0,8.841-4.838l.007-.007.443,1.771Z" transform="translate(0)" fill="#ffa600"/>
      <path id="Caminho_48931" data-name="Caminho 48931" d="M322.352,43.415l-1.235,6.48,6.754-1.3A17.238,17.238,0,0,0,322.352,43.415Z" transform="translate(-283.358 -38.31)" fill="#ffa600"/>
      <path id="Caminho_48932" data-name="Caminho 48932" d="M130.579,43.415A17.236,17.236,0,0,0,125.06,48.6l6.754,1.3Z" transform="translate(-110.355 -38.31)" fill="#ffa600"/>
    </g>
  </g>
</svg>
