<svg id="Componente_16_1" data-name="Componente 16 – 1" xmlns="http://www.w3.org/2000/svg" width="19.738" height="19.738" viewBox="0 0 19.738 19.738">
  <path id="Caminho_50340" data-name="Caminho 50340" d="M20.653,2H3.086A1.086,1.086,0,0,0,2,3.086V20.653a1.086,1.086,0,0,0,1.086,1.086H12.54V14.09H9.974V11.129H12.54V8.908a3.592,3.592,0,0,1,3.829-3.948,20,20,0,0,1,2.3.118V7.744H17.1c-1.244,0-1.48.592-1.48,1.451v1.9H18.58L18.2,14.06H15.619v7.678h5.033a1.086,1.086,0,0,0,1.086-1.086V3.086A1.086,1.086,0,0,0,20.653,2Z" transform="translate(-2 -2)" fill="#8f9095"/>
</svg>
