<svg xmlns="http://www.w3.org/2000/svg" width="61.999" height="43.396" viewBox="0 0 61.999 43.396">
  <g id="Grupo_502" data-name="Grupo 502" transform="translate(2794.823 -7691.405)">
    <rect id="Retângulo_499" data-name="Retângulo 499" width="21.596" height="16.276" transform="translate(-2794.823 7691.405)" fill="#142c77"/>
    <path id="Caminho_49063" data-name="Caminho 49063" d="M29,331.431l-1.979,1.446.764-2.331L25.8,329.111l2.45,0,.75-2.334.755,2.334,2.45,0-1.986,1.434.762,2.331Z" transform="translate(-2819.502 7365.62)" fill="#fff"/>
    <path id="Caminho_49064" data-name="Caminho 49064" d="M29,331.431l-1.979,1.446.764-2.331L25.8,329.111l2.45,0,.75-2.334.755,2.334,2.45,0-1.986,1.434.762,2.331Z" transform="translate(-2819.502 7365.62)" fill="none" stroke="#fff" stroke-miterlimit="10" stroke-width="0.033"/>
    <path id="Caminho_49065" data-name="Caminho 49065" d="M29,334.639l-1.979,1.446.764-2.331L25.8,332.32l2.45,0,.75-2.334.755,2.334,2.45,0-1.986,1.434.762,2.331Z" transform="translate(-2819.502 7370.005)" fill="#fff"/>
    <path id="Caminho_49066" data-name="Caminho 49066" d="M29,334.639l-1.979,1.446.764-2.331L25.8,332.32l2.45,0,.75-2.334.755,2.334,2.45,0-1.986,1.434.762,2.331Z" transform="translate(-2819.502 7370.005)" fill="none" stroke="#fff" stroke-miterlimit="10" stroke-width="0.033"/>
    <path id="Caminho_49067" data-name="Caminho 49067" d="M34.466,331.431l-1.979,1.446.762-2.331-1.986-1.434,2.452,0,.75-2.334.753,2.334,2.452,0-1.986,1.434.76,2.331Z" transform="translate(-2812.029 7365.62)" fill="#fff"/>
    <path id="Caminho_49068" data-name="Caminho 49068" d="M34.466,331.431l-1.979,1.446.762-2.331-1.986-1.434,2.452,0,.75-2.334.753,2.334,2.452,0-1.986,1.434.76,2.331Z" transform="translate(-2812.029 7365.62)" fill="none" stroke="#fff" stroke-miterlimit="10" stroke-width="0.033"/>
    <path id="Caminho_49069" data-name="Caminho 49069" d="M34.466,334.639l-1.979,1.446.762-2.331-1.986-1.434,2.452,0,.75-2.334.753,2.334,2.452,0-1.986,1.434.76,2.331Z" transform="translate(-2812.029 7370.005)" fill="#fff"/>
    <path id="Caminho_49070" data-name="Caminho 49070" d="M34.466,334.639l-1.979,1.446.762-2.331-1.986-1.434,2.452,0,.75-2.334.753,2.334,2.452,0-1.986,1.434.76,2.331Z" transform="translate(-2812.029 7370.005)" fill="none" stroke="#fff" stroke-miterlimit="10" stroke-width="0.033"/>
    <path id="Caminho_49071" data-name="Caminho 49071" d="M31.4,332.454l-1.643,1.2.632-1.936-1.647-1.193,2.035,0,.622-1.936.627,1.936,2.033,0-1.647,1.193.634,1.936Z" transform="translate(-2815.475 7368.096)" fill="#fff"/>
    <path id="Caminho_49072" data-name="Caminho 49072" d="M31.4,332.454l-1.643,1.2.632-1.936-1.647-1.193,2.035,0,.622-1.936.627,1.936,2.033,0-1.647,1.193.634,1.936Z" transform="translate(-2815.475 7368.096)" fill="none" stroke="#fff" stroke-miterlimit="10" stroke-width="0.033"/>
    <rect id="Retângulo_500" data-name="Retângulo 500" width="40.402" height="5.285" transform="translate(-2773.227 7691.405)" fill="#009a4c"/>
    <rect id="Retângulo_501" data-name="Retângulo 501" width="40.402" height="5.358" transform="translate(-2773.227 7702.322)" fill="#009a4c"/>
    <rect id="Retângulo_502" data-name="Retângulo 502" width="61.999" height="5.406" transform="translate(-2794.823 7713.105)" fill="#009a4c"/>
    <rect id="Retângulo_503" data-name="Retângulo 503" width="61.999" height="5.339" transform="translate(-2794.823 7723.964)" fill="#009a4c"/>
    <rect id="Retângulo_504" data-name="Retângulo 504" width="40.402" height="5.633" transform="translate(-2773.227 7696.689)" fill="#f1e522"/>
    <rect id="Retângulo_505" data-name="Retângulo 505" width="61.999" height="5.425" transform="translate(-2794.823 7707.681)" fill="#f1e522"/>
    <rect id="Retângulo_506" data-name="Retângulo 506" width="61.999" height="5.455" transform="translate(-2794.823 7718.511)" fill="#f1e522"/>
    <rect id="Retângulo_507" data-name="Retângulo 507" width="61.999" height="5.498" transform="translate(-2794.823 7729.303)" fill="#f1e522"/>
  </g>
</svg>
