<svg id="innovation" xmlns="http://www.w3.org/2000/svg" width="60.203" height="60.197" viewBox="0 0 60.203 60.197">
  <path id="Caminho_48933" data-name="Caminho 48933" d="M451,150.445h7.173v3.528H451Zm0,0" transform="translate(-397.969 -132.814)" fill="#ffa600"/>
  <path id="Caminho_48934" data-name="Caminho 48934" d="M0,150.445H7.173v3.528H0Zm0,0" transform="translate(0 -132.814)" fill="#ffa600"/>
  <path id="Caminho_48935" data-name="Caminho 48935" d="M425.256,253.481l-6.109-3.528-1.764,3.056,6.109,3.528Zm0,0" transform="translate(-368.305 -220.621)" fill="#ffa600"/>
  <path id="Caminho_48936" data-name="Caminho 48936" d="M33.77,31.537l1.764-3.056-6.109-3.528L27.66,28.009Zm0,0" transform="translate(-24.408 -22.078)" fill="#ffa600"/>
  <path id="Caminho_48937" data-name="Caminho 48937" d="M423.492,24.953l-6.109,3.528,1.764,3.056,6.109-3.528Zm0,0" transform="translate(-368.305 -22.078)" fill="#ffa600"/>
  <path id="Caminho_48938" data-name="Caminho 48938" d="M29.424,256.536l6.109-3.528-1.764-3.056-6.109,3.528Zm0,0" transform="translate(-24.408 -220.621)" fill="#ffa600"/>
  <path id="Caminho_48939" data-name="Caminho 48939" d="M175.693,365.973v-3.528H151v3.528h3.528V369.5H151v3.528h24.693V369.5h-3.528v-3.528Zm0,0" transform="translate(-133.245 -319.886)" fill="#ffa600"/>
  <path id="Caminho_48940" data-name="Caminho 48940" d="M211,482.445h10.583v3.528H211Zm0,0" transform="translate(-186.19 -425.776)" fill="#ffa600"/>
  <path id="Caminho_48941" data-name="Caminho 48941" d="M129.855,19.895a19.4,19.4,0,1,0-28.22,17.264v2.372h17.638V37.159A19.4,19.4,0,0,0,129.855,19.895ZM108.3,29.816l-2.756-2.2,4.763-5.953h-7.055L112.6,9.974l2.756,2.2L110.6,18.131h7.055Zm0,0" transform="translate(-80.352 -0.5)" fill="#ffa600"/>
</svg>
