<svg id="Componente_18_1" data-name="Componente 18 – 1" xmlns="http://www.w3.org/2000/svg" width="19.738" height="19.738" viewBox="0 0 19.738 19.738">
  <path id="Caminho_50341" data-name="Caminho 50341" d="M11.869,9.422a2.448,2.448,0,1,0,2.448,2.448A2.448,2.448,0,0,0,11.869,9.422ZM21.669,7a6.445,6.445,0,0,0-.415-2.23,3.948,3.948,0,0,0-2.29-2.29,6.445,6.445,0,0,0-2.23-.415C15.461,2,15.086,2,11.869,2S8.277,2,7,2.069a6.445,6.445,0,0,0-2.23.415,3.948,3.948,0,0,0-2.29,2.29A6.445,6.445,0,0,0,2.069,7C2,8.277,2,8.652,2,11.869s0,3.592.069,4.865a6.77,6.77,0,0,0,.415,2.24,3.888,3.888,0,0,0,.9,1.382,3.839,3.839,0,0,0,1.392.9A6.444,6.444,0,0,0,7,21.669c1.273.069,1.648.069,4.865.069s3.592,0,4.865-.069a6.444,6.444,0,0,0,2.23-.415,3.839,3.839,0,0,0,1.392-.9,3.888,3.888,0,0,0,.9-1.382,6.514,6.514,0,0,0,.415-2.24c.069-1.273.069-1.648.069-4.865s0-3.592-.069-4.865Zm-2.507,7.9a5.655,5.655,0,0,1-.385,1.776,3.809,3.809,0,0,1-2.1,2.1,5.655,5.655,0,0,1-1.786.345H8.849a5.655,5.655,0,0,1-1.786-.345,3.674,3.674,0,0,1-2.1-2.1,5.418,5.418,0,0,1-.336-1.786c0-.78,0-.987,0-3.02V8.849a5.418,5.418,0,0,1,.336-1.786A3.464,3.464,0,0,1,5.809,5.77a3.543,3.543,0,0,1,1.253-.809,5.655,5.655,0,0,1,1.786-.345h6.04a5.655,5.655,0,0,1,1.786.345,3.674,3.674,0,0,1,2.1,2.1,5.655,5.655,0,0,1,.345,1.786c0,.78,0,.987,0,3.02s.069,2.24.039,3.02ZM17.583,7.556a2.349,2.349,0,0,0-1.392-1.392,3.948,3.948,0,0,0-1.362-.217H8.908A3.948,3.948,0,0,0,7.546,6.2,2.349,2.349,0,0,0,6.155,7.546a4.214,4.214,0,0,0-.207,1.362V14.83A4.214,4.214,0,0,0,6.2,16.192,2.349,2.349,0,0,0,7.6,17.583a4.214,4.214,0,0,0,1.313.257H14.83a3.948,3.948,0,0,0,1.362-.257,2.349,2.349,0,0,0,1.392-1.392,3.948,3.948,0,0,0,.257-1.362V8.908a3.731,3.731,0,0,0-.257-1.362Zm-5.714,8.083a3.76,3.76,0,0,1-3.76-3.77h0a3.77,3.77,0,1,1,3.76,3.77Zm3.948-6.8a.888.888,0,0,1,0-1.767h0a.888.888,0,0,1,0,1.767Z" transform="translate(-2 -2)" fill="#8f9095"/>
</svg>
