<svg id="Componente_17_2" data-name="Componente 17 – 2" xmlns="http://www.w3.org/2000/svg" width="19.738" height="19.858" viewBox="0 0 19.738 19.858">
  <path id="Caminho_50342" data-name="Caminho 50342" d="M20.339,2H3.52A1.44,1.44,0,0,0,2.06,3.42V20.438a1.44,1.44,0,0,0,1.46,1.42H20.339a1.44,1.44,0,0,0,1.46-1.42V3.42A1.44,1.44,0,0,0,20.339,2ZM8.047,18.621H5.068V9.685H8.047ZM6.558,8.434h0a1.549,1.549,0,0,1,0-3.1,1.559,1.559,0,1,1,0,3.1ZM18.79,18.621H15.811v-4.8c0-1.2-.427-1.986-1.509-1.986a1.638,1.638,0,0,0-1.529,1.082,1.986,1.986,0,0,0-.1.725v4.964H9.7V9.675h2.979v1.261a2.979,2.979,0,0,1,2.691-1.489c1.986,0,3.425,1.281,3.425,4.031Z" transform="translate(-2.06 -2)" fill="#8f9095"/>
</svg>
