<svg xmlns="http://www.w3.org/2000/svg" width="61.511" height="40.982" viewBox="0 0 61.511 40.982">
  <g id="Grupo_501" data-name="Grupo 501" transform="translate(2808.444 -7618.048)">
    <rect id="Retângulo_489" data-name="Retângulo 489" width="61.511" height="40.982" transform="translate(-2808.444 7618.048)" fill="#fff"/>
    <rect id="Retângulo_490" data-name="Retângulo 490" width="61.511" height="4.49" transform="translate(-2808.444 7645.351)" fill="#e42322"/>
    <rect id="Retângulo_491" data-name="Retângulo 491" width="61.511" height="4.492" transform="translate(-2808.444 7654.539)" fill="#e42322"/>
    <rect id="Retângulo_492" data-name="Retângulo 492" width="61.511" height="4.492" transform="translate(-2808.444 7636.293)" fill="#e42322"/>
    <rect id="Retângulo_493" data-name="Retângulo 493" width="40.956" height="4.492" transform="translate(-2787.888 7618.048)" fill="#e42322"/>
    <rect id="Retângulo_494" data-name="Retângulo 494" width="40.956" height="4.49" transform="translate(-2787.888 7627.123)"/>
    <rect id="Retângulo_495" data-name="Retângulo 495" width="61.511" height="4.49" transform="translate(-2808.444 7645.351)"/>
    <rect id="Retângulo_496" data-name="Retângulo 496" width="20.557" height="20.503" transform="translate(-2808.444 7618.048)" fill="#29297e"/>
    <path id="Caminho_49052" data-name="Caminho 49052" d="M28.009,306.951l-4.431,3.233,1.706-5.214-4.445-3.216,5.486.012,1.683-5.221,1.685,5.221,5.488-.012-4.447,3.216,1.706,5.214Z" transform="translate(-2826.275 7324.292)" fill="#fff"/>
    <path id="Caminho_49053" data-name="Caminho 49053" d="M28.009,306.951l-4.431,3.233,1.706-5.214-4.445-3.216,5.486.012,1.683-5.221,1.685,5.221,5.488-.012-4.447,3.216,1.706,5.214Z" transform="translate(-2826.275 7324.292)" fill="none" stroke="#fff" stroke-miterlimit="10" stroke-width="0.08"/>
  </g>
</svg>
