<svg xmlns="http://www.w3.org/2000/svg" width="61.885" height="43.32" viewBox="0 0 61.885 43.32">
  <g id="Grupo_488" data-name="Grupo 488" transform="translate(2839.883 -7358.594)">
    <rect id="Ret창ngulo_514" data-name="Ret창ngulo 514" width="61.885" height="43.32" transform="translate(-2839.883 7358.594)" fill="#fff"/>
    <path id="Caminho_49100" data-name="Caminho 49100" d="M14.173,211.256l12.376-21.438,12.378,21.438Z" transform="translate(-2835.388 7178.428)" fill="#e42322"/>
    <path id="Caminho_49101" data-name="Caminho 49101" d="M13.741,196.728l.178-.305,1.974,1.146.651-1.129.265.156-.828,1.425Z" transform="translate(-2835.978 7187.455)"/>
    <rect id="Ret창ngulo_516" data-name="Ret창ngulo 516" width="0.353" height="2.589" transform="matrix(0.503, -0.865, 0.865, 0.503, -2821.191, 7382.376)"/>
    <path id="Caminho_49102" data-name="Caminho 49102" d="M14.377,196.263l.561-.97a.74.74,0,0,1,.561-.426.616.616,0,0,1,.376.088.561.561,0,0,1,.279.32.662.662,0,0,1,.026.258.8.8,0,0,1,.3-.17.617.617,0,0,1,.492.078.722.722,0,0,1,.31.365.889.889,0,0,1-.111.8l-.551.956Zm1.441-.31a.819.819,0,0,0,.123-.334.358.358,0,0,0-.2-.343.329.329,0,0,0-.4.009.9.9,0,0,0-.218.277l-.317.544.693.4Zm1.093.5a.547.547,0,0,0,.073-.495.484.484,0,0,0-.2-.223.384.384,0,0,0-.459.028.962.962,0,0,0-.227.282l-.353.611.788.457Z" transform="translate(-2835.108 7185.324)"/>
    <path id="Caminho_49103" data-name="Caminho 49103" d="M14.9,195.5l.942-1.628.272.161-.772,1.33.679.393.712-1.231.26.151-.712,1.226.76.445.786-1.354.265.151-.956,1.65Z" transform="translate(-2834.4 7183.965)"/>
    <path id="Caminho_49104" data-name="Caminho 49104" d="M15.408,194.545,16,193.528a1.082,1.082,0,0,1,.315-.374.607.607,0,0,1,.708,0,.658.658,0,0,1,.282.267.714.714,0,0,1,.071.355.513.513,0,0,1,.256-.116.6.6,0,0,1,.324.088l.305.166a1.09,1.09,0,0,0,.2.088.225.225,0,0,0,.2-.019l.05.028-.215.374a.853.853,0,0,1-.088-.019c-.035-.014-.1-.043-.187-.088l-.386-.2a.367.367,0,0,0-.386-.014.758.758,0,0,0-.2.241l-.391.674.961.554-.175.305Zm1.6-.393a.628.628,0,0,0,.1-.379.4.4,0,0,0-.237-.3.386.386,0,0,0-.424-.024.7.7,0,0,0-.187.218l-.419.722.767.445Z" transform="translate(-2833.699 7182.832)"/>
    <path id="Caminho_49105" data-name="Caminho 49105" d="M16.945,192.072l.265.156-.438.753,1.974,1.141-.178.31-1.974-1.146-.438.757-.265-.156Z" transform="translate(-2833.038 7181.508)"/>
    <path id="Caminho_49106" data-name="Caminho 49106" d="M16.509,191.973l.2-.343,2.71.485-.192.334-.807-.156-.509.883.533.63-.18.315Zm1.612.263-1.19-.227.783.93Z" transform="translate(-2832.195 7180.904)"/>
    <path id="Caminho_49107" data-name="Caminho 49107" d="M18.359,192.63a.759.759,0,0,0,.36.092.662.662,0,0,0,.521-.383,1.006,1.006,0,0,0,.123-.334.4.4,0,0,0-.187-.457.343.343,0,0,0-.324-.038,1.335,1.335,0,0,0-.338.272l-.237.253a1.451,1.451,0,0,1-.386.324.553.553,0,0,1-.54-.038.75.75,0,0,1-.376-.49.932.932,0,0,1,.14-.689,1.17,1.17,0,0,1,.506-.485.737.737,0,0,1,.686.078l-.166.282a.69.69,0,0,0-.331-.064.625.625,0,0,0-.435.35.582.582,0,0,0-.1.435.4.4,0,0,0,.2.263.306.306,0,0,0,.317.009,2.374,2.374,0,0,0,.35-.324l.246-.263a1.025,1.025,0,0,1,.341-.258.622.622,0,0,1,.575.054.679.679,0,0,1,.379.573,1.336,1.336,0,0,1-.2.708,1.024,1.024,0,0,1-.582.514.836.836,0,0,1-.708-.107Z" transform="translate(-2831.585 7179.504)"/>
    <path id="Caminho_49108" data-name="Caminho 49108" d="M21.275,193.121,21,193.074l.062-.5a1.263,1.263,0,0,1-.267-.206,1.332,1.332,0,0,1-.225-.293,1.189,1.189,0,0,1-.13-1.018,1.5,1.5,0,0,1,.684-.741,1.563,1.563,0,0,1,.909-.222,1.127,1.127,0,0,1,.909.615,1.191,1.191,0,0,1,.128,1.1,1.429,1.429,0,0,1-.634.663,1.737,1.737,0,0,1-.447.185,1.207,1.207,0,0,1-.653.014Zm-.291-1a.476.476,0,0,0,.135.116l.047-.362.275.047-.059.421a.94.94,0,0,0,.466-.014,1.808,1.808,0,0,0,.407-.168,1.106,1.106,0,0,0,.518-.575.816.816,0,0,0-.085-.7.857.857,0,0,0-.561-.443,1.179,1.179,0,0,0-.838.2,1.118,1.118,0,0,0-.528.577.858.858,0,0,0,.1.736,1.2,1.2,0,0,0,.118.17" transform="translate(-2826.904 7178.796)"/>
    <path id="Caminho_49109" data-name="Caminho 49109" d="M23.113,191.3l-1.387.8a.9.9,0,0,0-.353.327.565.565,0,0,0,.024.6.632.632,0,0,0,.57.376.959.959,0,0,0,.431-.147l1.385-.8.178.305-1.259.727a1.672,1.672,0,0,1-.7.256,1.088,1.088,0,0,1-.892-1.55,1.642,1.642,0,0,1,.573-.478l1.259-.727Z" transform="translate(-2826.096 7180.034)"/>
    <path id="Caminho_49110" data-name="Caminho 49110" d="M24.122,192.236l1.167,2.024-.267.151-.708-1.228-.689.4.648,1.127-.253.147-.648-1.124-.767.443.724,1.254-.267.154-.9-1.555.665-.386-.476-.824-.817.125-.192-.331Zm-.151.341-1.3.2.417.722,1.06-.611Z" transform="translate(-2825.584 7181.732)"/>
    <path id="Caminho_49111" data-name="Caminho 49111" d="M23.093,194.566a.723.723,0,0,0-.26.263.657.657,0,0,0,.073.644,1.013,1.013,0,0,0,.222.27.39.39,0,0,0,.488.064.338.338,0,0,0,.2-.26,1.291,1.291,0,0,0-.071-.428l-.1-.334a1.609,1.609,0,0,1-.088-.495.536.536,0,0,1,.3-.447.749.749,0,0,1,.615-.083.913.913,0,0,1,.525.461,1.138,1.138,0,0,1,.166.684.712.712,0,0,1-.4.551l-.166-.284a.651.651,0,0,0,.222-.253.771.771,0,0,0-.412-.859.417.417,0,0,0-.329.04.3.3,0,0,0-.163.275,2.369,2.369,0,0,0,.107.462l.1.346a1.066,1.066,0,0,1,.054.424.619.619,0,0,1-.338.469.67.67,0,0,1-.686.045,1.31,1.31,0,0,1-.514-.521,1.043,1.043,0,0,1-.154-.76.819.819,0,0,1,.445-.559Z" transform="translate(-2824.06 7183.769)"/>
    <path id="Caminho_49112" data-name="Caminho 49112" d="M25.129,194.52l.94,1.628-.275.156-.769-1.33-.679.393.71,1.231-.258.149-.71-1.231-.76.44.783,1.354-.267.154-.954-1.65Z" transform="translate(-2823.474 7184.854)"/>
    <path id="Caminho_49113" data-name="Caminho 49113" d="M25.641,195.4l.589,1.022a1.176,1.176,0,0,1,.166.454.623.623,0,0,1-.35.62.646.646,0,0,1-.719-.009.529.529,0,0,1-.026.279.622.622,0,0,1-.241.239l-.3.182a.9.9,0,0,0-.18.133.219.219,0,0,0-.08.177l-.05.031-.215-.372a.305.305,0,0,1,.059-.069,1.6,1.6,0,0,1,.17-.116l.364-.237a.362.362,0,0,0,.2-.331.751.751,0,0,0-.111-.289l-.386-.675-.961.556L23.4,196.7Zm-.457,1.579a.636.636,0,0,0,.275.279.4.4,0,0,0,.379-.054.382.382,0,0,0,.23-.357.63.63,0,0,0-.095-.267l-.417-.722-.767.443Z" transform="translate(-2822.777 7186.063)"/>
    <path id="Caminho_49114" data-name="Caminho 49114" d="M26.626,196.62l.2.343-1.773,2.111-.192-.334.537-.622-.509-.883-.812.147-.18-.312Zm-1.032,1.266.79-.918-1.2.213Z" transform="translate(-2822.1 7187.724)"/>
    <path id="Caminho_49115" data-name="Caminho 49115" d="M18.9,199.318v.31h-.873v2.279h-.355v-2.279H16.8v-.31Z" transform="translate(-2831.8 7191.412)"/>
    <path id="Caminho_49116" data-name="Caminho 49116" d="M18.593,199.318h.4l.94,2.589h-.386l-.27-.776H18.257l-.282.776h-.36Zm.58,1.531-.4-1.145-.414,1.145Z" transform="translate(-2830.682 7191.412)"/>
    <path id="Caminho_49117" data-name="Caminho 49117" d="M18.727,199.318h.5l.743,2.192.738-2.192h.5v2.589h-.336v-1.527c0-.054,0-.144,0-.263s0-.253,0-.393l-.738,2.182h-.348l-.746-2.182v.078c0,.064,0,.161,0,.291s0,.222,0,.286v1.527H18.72v-2.589Z" transform="translate(-2829.173 7191.412)"/>
    <path id="Caminho_49118" data-name="Caminho 49118" d="M20.011,199.318H21.89v.32H20.354v.786h1.42v.3h-1.42v.878h1.564v.305H20.013v-2.589Z" transform="translate(-2827.409 7191.412)"/>
    <path id="Caminho_49119" data-name="Caminho 49119" d="M21.016,199.318h.414l1.29,2.095v-2.095h.336v2.589h-.4l-1.311-2.09v2.09h-.336v-2.589Z" transform="translate(-2826.038 7191.412)"/>
  </g>
</svg>
