<svg xmlns="http://www.w3.org/2000/svg" width="62.017" height="43.455" viewBox="0 0 62.017 43.455">
  <g id="Grupo_484" data-name="Grupo 484" transform="translate(2854.655 -7020.195)">
    <path id="Caminho_49094" data-name="Caminho 49094" d="M43.421,42.765H62.051v43.4H.05Z" transform="translate(-2854.689 6977.447)" fill="#7491c5"/>
    <path id="Caminho_49095" data-name="Caminho 49095" d="M31.05,42.765h-31V73.593Z" transform="translate(-2854.689 6977.447)" fill="#019340"/>
    <path id="Caminho_49096" data-name="Caminho 49096" d="M31.05,42.765H43.421L.051,86.163V73.593Z" transform="translate(-2854.689 6977.447)" fill="#fff"/>
    <path id="Caminho_49097" data-name="Caminho 49097" d="M31.05,42.765H43.421L.051,86.163V73.593Z" transform="translate(-2854.689 6977.447)" fill="none" stroke="#fff" stroke-miterlimit="10" stroke-width="0.033"/>
    <path id="Caminho_49098" data-name="Caminho 49098" d="M25.581,62.913l-3.5,2.554,1.351-4.118-3.515-2.537,4.333.009,1.33-4.125,1.33,4.125,4.336-.009-3.512,2.537,1.347,4.118Z" transform="translate(-2827.536 6993.753)" fill="#f4e500"/>
    <path id="Caminho_49099" data-name="Caminho 49099" d="M25.581,62.913l-3.5,2.554,1.351-4.118-3.515-2.537,4.333.009,1.33-4.125,1.33,4.125,4.336-.009-3.512,2.537,1.347,4.118Z" transform="translate(-2827.536 6993.753)" fill="none" stroke="#f4e500" stroke-miterlimit="10" stroke-width="0.089"/>
  </g>
</svg>
