<svg xmlns="http://www.w3.org/2000/svg" width="61.885" height="43.32" viewBox="0 0 61.885 43.32">
  <g id="Grupo_487" data-name="Grupo 487" transform="translate(2843.253 -7283.499)">
    <rect id="Retângulo_509" data-name="Retângulo 509" width="61.885" height="43.32" transform="translate(-2843.253 7283.499)" fill="#2e2762"/>
    <path id="Caminho_49073" data-name="Caminho 49073" d="M58.669,172.707,32.846,189.239,7.025,172.707l25.821-16.531Z" transform="translate(-2845.157 7132.448)" fill="#fff"/>
    <path id="Caminho_49074" data-name="Caminho 49074" d="M58.669,172.707,32.846,189.239,7.025,172.707l25.821-16.531Z" transform="translate(-2845.157 7132.448)" fill="none" stroke="#fff" stroke-miterlimit="10" stroke-width="0.033"/>
    <path id="Caminho_49075" data-name="Caminho 49075" d="M24.208,158.571a10.863,10.863,0,1,1-10.863,10.863,10.863,10.863,0,0,1,10.863-10.863" transform="translate(-2836.519 7135.722)" fill="#019340"/>
    <circle id="Elipse_146" data-name="Elipse 146" cx="10.863" cy="10.863" r="10.863" transform="translate(-2823.174 7294.292)" fill="none" stroke="#019340" stroke-miterlimit="10" stroke-width="0.033"/>
    <path id="Caminho_49076" data-name="Caminho 49076" d="M23.881,173.521l-6.362,4.643,2.45-7.484-6.381-4.615,7.874.017,2.419-7.5,2.416,7.5,7.876-.017-6.381,4.615,2.45,7.484Z" transform="translate(-2836.187 7135.744)" fill="#f8c300"/>
    <path id="Caminho_49077" data-name="Caminho 49077" d="M23.881,173.521l-6.362,4.643,2.45-7.484-6.381-4.615,7.874.017,2.419-7.5,2.416,7.5,7.876-.017-6.381,4.615,2.45,7.484Z" transform="translate(-2836.187 7135.744)" fill="none" stroke="#f8c300" stroke-miterlimit="10" stroke-width="0.023"/>
  </g>
</svg>
