<svg xmlns="http://www.w3.org/2000/svg" width="61.698" height="43.188" viewBox="0 0 61.698 43.188">
  <g id="Grupo_490" data-name="Grupo 490" transform="translate(2815.286 -7509.625)">
    <path id="Caminho_49054" data-name="Caminho 49054" d="M78.376,259.974V278.5h-61.7V259.974h61.7ZM51.27,268.667v-1.55H48.364V263.7h-1.6v3.415H43.86v1.55h2.906v6.163h1.6v-6.163Z" transform="translate(-2831.964 7274.312)" fill="#fff"/>
    <path id="Caminho_49055" data-name="Caminho 49055" d="M43.11,254.129a26.169,26.169,0,0,0-18.631,7.718,26.611,26.611,0,0,0-4.57,6.116h46.4a26.476,26.476,0,0,0-4.57-6.116,26.169,26.169,0,0,0-18.628-7.718m5.361,9.259a2.446,2.446,0,0,0-2.5-.31,2.113,2.113,0,0,1,1.276,2.22,2.475,2.475,0,0,0-2.232-1.264,2.357,2.357,0,0,1,.374,2.542s-.256-1.718-1.614-2.014a2.255,2.255,0,0,1-.632,2.464,2.386,2.386,0,0,0-.724-2.513,2.136,2.136,0,0,1-1.548,2.09s1.072-1.458.348-2.568a2.165,2.165,0,0,1-2.246,1.278,2.246,2.246,0,0,0,1.3-2.232s-1.406,1.122-2.568.336a2.134,2.134,0,0,0,2.038-1.524,2.353,2.353,0,0,1-2.452-.67s1.706.44,2.452-.7c0,0-1.832-.116-2.024-1.524,0,0,1.394,1.058,2.542.284a2.2,2.2,0,0,1-1.292-2.18,2.545,2.545,0,0,0,2.272,1.25,2.139,2.139,0,0,1-.374-2.528,2.3,2.3,0,0,0,1.562,1.974,2.336,2.336,0,0,1,.7-2.476c-.017.05-.547,1.725.658,2.528,0,0,.116-1.832,1.51-2.052a2.425,2.425,0,0,0-.27,2.554,2.1,2.1,0,0,1,2.182-1.316,2.634,2.634,0,0,0-1.252,2.258,2.189,2.189,0,0,1,2.516-.374,2.4,2.4,0,0,0-2.014,1.614,2.181,2.181,0,0,1,2.452.594s-1.718-.428-2.44.76a2.1,2.1,0,0,1,2,1.5" transform="translate(-2827.548 7266.323)" fill="#142c7c"/>
    <path id="Caminho_49056" data-name="Caminho 49056" d="M16.678,249.554v24.661h2.554a30.946,30.946,0,0,1,56.591,0h2.551V249.554Zm32,4.724-1.162-.847-1.162.847.447-1.366-1.164-.843,1.437,0,.443-1.37.443,1.37,1.439,0-1.164.843Z" transform="translate(-2831.964 7260.07)" fill="#142c7c"/>
    <path id="Caminho_49057" data-name="Caminho 49057" d="M69.033,268.844H67.307a26.476,26.476,0,0,0-4.57-6.116,26.346,26.346,0,0,0-37.262,0,26.611,26.611,0,0,0-4.57,6.116H19.18a28.015,28.015,0,0,1,5.214-7.195,27.928,27.928,0,0,1,44.639,7.195" transform="translate(-2828.544 7265.441)" fill="#308533"/>
    <path id="Caminho_49058" data-name="Caminho 49058" d="M29.626,253.615l1.164-.847,1.162.847-.447-1.366,1.164-.843-1.439,0-.44-1.37-.443,1.37-1.437,0,1.164.843Z" transform="translate(-2815.244 7260.733)" fill="#faeb4d"/>
    <path id="Caminho_49059" data-name="Caminho 49059" d="M38.871,260.44a2.181,2.181,0,0,0-2.452-.594,2.41,2.41,0,0,1,2.014-1.614,2.189,2.189,0,0,0-2.516.374,2.639,2.639,0,0,1,1.252-2.258,2.1,2.1,0,0,0-2.182,1.316,2.425,2.425,0,0,1,.27-2.554c-1.394.22-1.51,2.052-1.51,2.052-1.207-.8-.675-2.48-.658-2.528a2.336,2.336,0,0,0-.7,2.476,2.3,2.3,0,0,1-1.562-1.974,2.139,2.139,0,0,0,.374,2.528,2.549,2.549,0,0,1-2.272-1.25,2.2,2.2,0,0,0,1.292,2.18c-1.148.774-2.542-.284-2.542-.284.192,1.408,2.024,1.524,2.024,1.524-.746,1.136-2.452.7-2.452.7a2.353,2.353,0,0,0,2.452.67,2.134,2.134,0,0,1-2.038,1.524c1.162.786,2.568-.336,2.568-.336a2.239,2.239,0,0,1-1.3,2.232,2.162,2.162,0,0,0,2.246-1.278c.724,1.11-.348,2.568-.348,2.568a2.132,2.132,0,0,0,1.548-2.09,2.387,2.387,0,0,1,.724,2.513,2.255,2.255,0,0,0,.632-2.464c1.356.3,1.614,2.014,1.614,2.014a2.357,2.357,0,0,0-.374-2.542,2.48,2.48,0,0,1,2.232,1.264,2.113,2.113,0,0,0-1.276-2.22,2.446,2.446,0,0,1,2.5.31,2.093,2.093,0,0,0-2-1.5c.719-1.186,2.438-.76,2.438-.76" transform="translate(-2817.508 7267.013)" fill="#faeb4d"/>
    <path id="Caminho_49060" data-name="Caminho 49060" d="M65.879,261.45a29.444,29.444,0,0,0-47.415,8.276h1.7a28.015,28.015,0,0,1,5.214-7.195,27.917,27.917,0,0,1,44.634,7.195h1.7a29.507,29.507,0,0,0-5.834-8.276" transform="translate(-2829.523 7264.559)" fill="#faeb4d"/>
    <path id="Caminho_49061" data-name="Caminho 49061" d="M74.348,270.608H72.677a29.444,29.444,0,0,0-53.249,0H17.757a30.946,30.946,0,0,1,56.591,0" transform="translate(-2830.489 7263.677)" fill="#e53226"/>
    <path id="Caminho_49062" data-name="Caminho 49062" d="M35.57,264.966v1.55h-2.9v6.163h-1.6v-6.163h-2.9v-1.55h2.9v-3.417h1.6v3.417Z" transform="translate(-2816.265 7276.463)" fill="#e53226"/>
  </g>
</svg>
