<svg id="Componente_10_1" data-name="Componente 10 – 1" xmlns="http://www.w3.org/2000/svg" width="16.194" height="16.232" viewBox="0 0 16.194 16.232">
  <path id="Caminho_48945" data-name="Caminho 48945" d="M14.251,12.187,12.9,12.95a.854.854,0,0,1-1.023-.141l-4.52-4.52a.855.855,0,0,1-.141-1.023l.763-1.354a1.281,1.281,0,0,0-.211-1.535l-2.03-2.03a1.281,1.281,0,0,0-1.812,0L3,3.267a3.417,3.417,0,0,0-.514,4.175l.462.771A26.79,26.79,0,0,0,12.63,17.69l.091.052a3.424,3.424,0,0,0,4.134-.538l.963-.963a1.281,1.281,0,0,0,0-1.812L15.787,12.4a1.281,1.281,0,0,0-1.536-.211Z" transform="translate(-2 -1.97)" fill="#ffa200"/>
</svg>
