<svg xmlns="http://www.w3.org/2000/svg" width="61.599" height="43.723" viewBox="0 0 61.599 43.723">
  <g id="Grupo_483" data-name="Grupo 483" transform="translate(2851.082 -6919.17)">
    <rect id="Retângulo_529" data-name="Retângulo 529" width="61.599" height="43.723" transform="translate(-2851.082 6919.17)" fill="#fff"/>
    <path id="Caminho_49126" data-name="Caminho 49126" d="M35.8,14.212l.028-.1c.038-.14.071-.277.1-.414l.263-.305a1.814,1.814,0,0,1-.059-.4c.232-.554,1.008-.554,1.008-.554a7.628,7.628,0,0,1,.348-.857,4.28,4.28,0,0,1-.857.208,1.08,1.08,0,0,1-.506.838c.019-.142.036-.279.05-.414l.014-.17c.123-.18.279-.381.279-.381l-.116-.473c.14-.6.89-.731.89-.731a4.912,4.912,0,0,1,.232-.892,5.19,5.19,0,0,1-.835.357c.017.67-.263.866-.414.928,0-.09,0-.178-.007-.263,0-.107-.012-.208-.019-.308a2.292,2.292,0,0,1,.246-.447,1.893,1.893,0,0,1-.2-.45,1.041,1.041,0,0,1,.776-.857s.047-.8.08-.928a4.224,4.224,0,0,1-.741.488,1.026,1.026,0,0,1-.315,1.025c-.014-.078-.031-.154-.045-.225s-.026-.128-.038-.185l-.033-.14a2.5,2.5,0,0,1,.22-.523A9.49,9.49,0,0,1,35.473,7a11.288,11.288,0,0,1-.08,1.216s.149.123.286.265c.007.038.017.078.028.128l.033.147.033.18.028.156a1.074,1.074,0,0,1-.561-.717,6.031,6.031,0,0,1-.857-.057,5.5,5.5,0,0,1,.4.741s.729-.13,1.032.289a1.8,1.8,0,0,1-.151.554,3.054,3.054,0,0,1,.277.3c.007.128.014.256.019.393,0,.078,0,.161,0,.244-.36-.156-.485-.8-.485-.8a4.424,4.424,0,0,1-.857-.222,4.878,4.878,0,0,1,.357.835c.764.035.928.464.928.464l-.22.5a3.76,3.76,0,0,1,.22.374c0,.062-.012.128-.021.192-.014.135-.036.27-.054.409-.343-.251-.343-.895-.343-.895-.149-.036-.821-.324-.821-.324a6.311,6.311,0,0,1,.2.857c.833.173.8.613.8.613-.047.092-.244.357-.244.357l.187.485c-.028.111-.057.222-.09.334l-.05.173c-.322-.2-.258-.923-.258-.923a7.738,7.738,0,0,1-.779-.483,4.571,4.571,0,0,1,.109.928c.738.253.729.658.729.658-.05.078-.256.305-.256.305l.123.466c-.066.173-.14.346-.215.521a1.312,1.312,0,0,1-.154-.937,4.209,4.209,0,0,1-.689-.523,7.083,7.083,0,0,1,.009.928c.828.452.622.767.622.767l-.364.426.069.372c-.095.168-.192.338-.291.5a1.469,1.469,0,0,1,.026-.838c-.168-.118-.691-.632-.691-.632a9.379,9.379,0,0,1-.059.937c.769.483.492.8.492.8l-.454.353.033.364c-.144.2-.293.393-.445.585a1.858,1.858,0,0,1,.178-.97,4.654,4.654,0,0,1-.6-.767,4.661,4.661,0,0,1-.277.966c.719.632.454,1.025.454,1.025l-.523.246.014.355-.066.069c-.151.154-.31.308-.471.454a1.826,1.826,0,0,1,.3-.94,8.278,8.278,0,0,1-.464-.876,5.232,5.232,0,0,1-.414.906,1.116,1.116,0,0,1,.305,1.153l-.641.156-.073.431-.286.215c-.1.073-.2.147-.305.225a1.463,1.463,0,0,1,.478-.966,4.533,4.533,0,0,1-.327-.909,9.035,9.035,0,0,1-.561.819,1.51,1.51,0,0,1,.159,1.238l-.163.118-.556.064-.121.4c-.151.1-.305.192-.462.282-.066.04-.135.073-.2.114a1.648,1.648,0,0,1,.577-.914,9.448,9.448,0,0,1-.265-1.006,7.678,7.678,0,0,1-.641.838,1.382,1.382,0,0,1,.066,1.228c-.036.019-.069.038-.1.054l-.684.007-.144.426c-.156.08-.312.156-.466.234-.095.047-.192.092-.289.137-.009-.45.672-.951.672-.951a5.832,5.832,0,0,1-.227-1.124,4.838,4.838,0,0,1-.769.866,1.479,1.479,0,0,1-.026,1.37c-.426.194-.854.383-1.2.554-.249.123-.49.237-.719.346-.109-.047-.22-.09-.334-.135-.514-.2-1.181-.476-1.775-.677-.111-.04-.225-.078-.338-.121a1.349,1.349,0,0,1,.128-.433.353.353,0,1,0-.185-.13,1.457,1.457,0,0,0-.159.488c-.163-.059-.331-.123-.5-.182.062-.163.182-.575.272-.9a.939.939,0,0,0-.293-.888.49.49,0,0,1-.144-.246.718.718,0,0,0-.317-.362,1.151,1.151,0,0,0-.632-.121c-.724-.679-1.233-.215-1.233-.215-.554-.147-.788.154-.852.331,0,0-.286.116-.256.3A.271.271,0,0,0,18,21.5s.466.192.731-.062c0,0,.438.433.8.26a.774.774,0,0,0,.7.36.868.868,0,0,0,.18.308c.1.083.343.22.4.445a1.235,1.235,0,0,1,.021.587l-.09-.033a1.8,1.8,0,0,0-.04-.516c-.069-.343-.575-.478-.575-.478a1.4,1.4,0,0,0-.854-.45,1.117,1.117,0,0,0-.89-.2.729.729,0,0,0-.85.1.638.638,0,0,0-.246.057c-.27-.187-.533-.383-.79-.587.121-.135.381-.464.587-.731a.947.947,0,0,0,.062-.935.472.472,0,0,1-.043-.279.7.7,0,0,0-.159-.454,1.152,1.152,0,0,0-.542-.348c-.417-.9-1.063-.658-1.063-.658a.639.639,0,0,0-.914-.012s-.308,0-.35.185a.271.271,0,0,0,.369.305s.36.353.7.218c0,0,.246.561.651.542a.781.781,0,0,0,.514.6.849.849,0,0,0,.052.35.929.929,0,0,1,.2.561,1.229,1.229,0,0,1-.2.549c-.024-.019-.047-.04-.071-.057a1.738,1.738,0,0,0,.156-.5c.066-.346-.353-.658-.353-.658a1.4,1.4,0,0,0-.625-.738,1.126,1.126,0,0,0-.753-.516.731.731,0,0,0-.826-.227.888.888,0,0,0-.2-.043c-.052-.066-.1-.135-.154-.2-.156-.211-.305-.424-.45-.637l.078.069a1.327,1.327,0,0,1,.592-.362.354.354,0,1,0,.2-.485.359.359,0,0,0-.227.263,1.531,1.531,0,0,0-.71.414l-.218-.338c.135-.054.544-.282.864-.462a.947.947,0,0,0,.419-.838.477.477,0,0,1,.071-.275.706.706,0,0,0,.031-.48,1.148,1.148,0,0,0-.362-.533c-.033-.989-.722-1.022-.722-1.022-.289-.495-.667-.445-.838-.364,0,0-.282-.121-.4.036a.271.271,0,0,0,.22.424s.194.464.561.471c0,0,0,.615.388.753a.777.777,0,0,0,.241.75.892.892,0,0,0-.09.346.925.925,0,0,1-.033.6,1.2,1.2,0,0,1-.438.452l0,.024c-.019-.033-.04-.064-.059-.1l.024-.014a1.476,1.476,0,0,0,.362-.417c.194-.291-.069-.743-.069-.743a1.412,1.412,0,0,0-.286-.923,1.121,1.121,0,0,0-.492-.769.733.733,0,0,0-.672-.53.5.5,0,0,0-.305-.149c-.059-.3-.1-.563-.123-.8a1.338,1.338,0,0,1,.573-.09.354.354,0,1,0,.05-.22,1.543,1.543,0,0,0-.641.08l0-.054-.007-.192,0-.043c.17,0,.606-.021.951-.045a.937.937,0,0,0,.738-.568c.045-.125.118-.154.185-.218a.718.718,0,0,0,.237-.419,1.135,1.135,0,0,0-.095-.639c.4-.906-.206-1.233-.206-1.233-.045-.568-.407-.691-.594-.693,0,0-.2-.232-.372-.142a.272.272,0,0,0,.014.478s-.028.5.3.67c0,0-.263.554.021.845a.777.777,0,0,0-.109.781.836.836,0,0,0-.23.27.959.959,0,0,1-.289.523,1.22,1.22,0,0,1-.559.215l0-.092a1.742,1.742,0,0,0,.485-.213c.3-.178.26-.7.26-.7a1.411,1.411,0,0,0,.144-.954,1.124,1.124,0,0,0-.109-.909.729.729,0,0,0-.374-.767l0,0a3.065,3.065,0,0,1,.329-.372.353.353,0,1,0-.109-.253l0,.045a4.206,4.206,0,0,0-.348.379.3.3,0,0,0-.147-.088,5.508,5.508,0,0,1,.13-.715.351.351,0,1,0-.218-.05,6.069,6.069,0,0,0-.135.767.417.417,0,0,0-.128.085l-.1-.265a.354.354,0,1,0-.26.116.294.294,0,0,0,.064-.007l.133.364a.753.753,0,0,0-.393.667A1.469,1.469,0,0,0,10.1,9.952a1.071,1.071,0,0,0,0,.729s-.045.665.2.847a2.078,2.078,0,0,0,.424.232v.111a1.222,1.222,0,0,1-.5-.27A.94.94,0,0,1,10,11.05a.879.879,0,0,0-.2-.3.779.779,0,0,0-.019-.788c.315-.256.118-.838.118-.838.346-.13.374-.632.374-.632a.271.271,0,0,0,.069-.473c-.159-.109-.386.1-.386.1-.187-.021-.561.057-.67.62,0,0-.641.256-.346,1.2a1.148,1.148,0,0,0-.168.62.724.724,0,0,0,.187.445.465.465,0,0,1,.156.239.944.944,0,0,0,.67.648c.341.062.772.137.94.149l0,.08c0,.064.007.135.012.208l0,.035a3.535,3.535,0,0,0-.9-.017.356.356,0,1,0,.069.218,2.813,2.813,0,0,1,.857.031l0,.057a1.038,1.038,0,0,0-.838.523.615.615,0,0,0-.062-.007.355.355,0,1,0,.355.355.363.363,0,0,0-.1-.244.834.834,0,0,1,.672-.407c.031.206.071.431.125.672a.539.539,0,0,0-.073.312.752.752,0,0,0-.08.8,1.468,1.468,0,0,0,.249,1,1.059,1.059,0,0,0,.317.658s.249.618.551.675a1.91,1.91,0,0,0,.452.024c.019.036.04.071.062.107a1.194,1.194,0,0,1-.554-.031c-.225-.054-.362-.3-.445-.4a.865.865,0,0,0-.305-.18.779.779,0,0,0-.36-.7c.173-.367-.258-.8-.258-.8.256-.265.064-.731.064-.731a.272.272,0,0,0-.144-.457c-.189-.028-.3.256-.3.256-.178.062-.48.3-.334.85,0,0-.464.511.213,1.233a1.137,1.137,0,0,0,.121.634.705.705,0,0,0,.362.32.476.476,0,0,1,.244.144.945.945,0,0,0,.888.293c.331-.09.746-.211.909-.272.052.085.1.17.159.256a4.116,4.116,0,0,0-.682.253.358.358,0,0,0-.315-.04.355.355,0,1,0,.457.222,3.609,3.609,0,0,1,.67-.239c.019.031.04.059.059.09a1.027,1.027,0,0,0-.5.715l-.059.017a.349.349,0,0,0-.213.452.353.353,0,1,0,.665-.239.362.362,0,0,0-.173-.2.8.8,0,0,1,.4-.561c.1.142.2.284.3.426l.116.151a.467.467,0,0,0,0,.459.75.75,0,0,0,.234.762,1.477,1.477,0,0,0,.62.826,1.056,1.056,0,0,0,.547.48s.471.473.772.409a2.288,2.288,0,0,0,.44-.159c.028.026.059.05.09.076a1.243,1.243,0,0,1-.525.192A.941.941,0,0,1,15,21.437a.891.891,0,0,0-.353-.05.774.774,0,0,0-.606-.5c.014-.407-.551-.641-.551-.641.13-.346-.227-.7-.227-.7a.269.269,0,0,0-.31-.362c-.185.047-.18.353-.18.353a.637.637,0,0,0,.024.914s-.23.648.677,1.051a1.133,1.133,0,0,0,.355.537.717.717,0,0,0,.457.151.456.456,0,0,1,.282.038.946.946,0,0,0,.932-.073c.263-.208.592-.473.724-.6l.012.009c.036.031.071.057.1.085a3.517,3.517,0,0,0-.585.672.368.368,0,0,0-.293.125.356.356,0,0,0,.043.5.354.354,0,0,0,.462-.537,3.091,3.091,0,0,1,.551-.618c.192.151.388.3.587.445a.542.542,0,0,0,.173.289.757.757,0,0,0,.5.622,1.489,1.489,0,0,0,.883.535,1.071,1.071,0,0,0,.689.244s.613.26.866.09a1.616,1.616,0,0,0,.267-.23l.121.045a1.241,1.241,0,0,1-.346.282.925.925,0,0,1-.6.033.874.874,0,0,0-.346.088.78.78,0,0,0-.75-.244c-.137-.381-.753-.388-.753-.388-.007-.367-.471-.561-.471-.561a.271.271,0,0,0-.424-.222c-.154.111-.035.4-.035.4-.08.168-.13.547.364.838,0,0,.031.691,1.02.724a1.131,1.131,0,0,0,.533.364.712.712,0,0,0,.48-.031.467.467,0,0,1,.277-.071.937.937,0,0,0,.835-.417c.137-.244.3-.537.4-.724.123.045.244.088.364.133a3.606,3.606,0,0,0-.48.7.346.346,0,0,0-.277.151.354.354,0,1,0,.5-.09,2.878,2.878,0,0,1,.49-.672l.035.014a1.037,1.037,0,0,0-.173.944l-.047.043a.357.357,0,0,0,.017.5.355.355,0,1,0,.241-.613.841.841,0,0,1,.182-.793c.073.028.149.054.222.083.58.225,1.122.447,1.612.665-.454.22-.85.419-1.164.6l-.234.142a13.013,13.013,0,0,0-1.37.928,2.031,2.031,0,0,0,.819.3c.452.05.828.009.916-.187a1.756,1.756,0,0,1,.256-.551,3.3,3.3,0,0,1,.329-.249c.322-.213.7-.431,1.122-.66.23.114.445.227.641.336a4.74,4.74,0,0,1,.691.426c.3.251.348.305.334.445-.019.187.2.511.719.464a3.476,3.476,0,0,0,1.134-.3,14.7,14.7,0,0,0-2.445-1.529c-.133-.062-.27-.13-.412-.2.144-.073.291-.149.443-.23.308-.156.634-.324.973-.495a1.629,1.629,0,0,1,1.316.772,8.6,8.6,0,0,1,1.1-.227,9.812,9.812,0,0,1-.828-.79,1.029,1.029,0,0,1-1.162.028l.3-.149c.14-.071.282-.147.426-.22l.471.076.372-.537.014-.007a1.356,1.356,0,0,1,1.252.592,5.289,5.289,0,0,1,1-.275c-.206-.14-.8-.648-.8-.648a1.3,1.3,0,0,1-1.082.121c.076-.045.149-.085.227-.133.142-.085.284-.17.426-.26l.438.036.386-.566c.043-.031.085-.057.128-.088a1.5,1.5,0,0,1,1.065.476,9.415,9.415,0,0,1,.906-.334,6.8,6.8,0,0,1-.788-.563,1.431,1.431,0,0,1-.914.232c.2-.142.391-.286.582-.438l.3.009.32-.523.017-.014a1.112,1.112,0,0,1,1.271.279,6.846,6.846,0,0,1,.847-.514c-.128-.05-.857-.424-.857-.424a1.323,1.323,0,0,1-.942.367c.17-.161.338-.327.5-.5l.04-.045.353-.045.178-.462a1.316,1.316,0,0,1,1.34,0,6.035,6.035,0,0,1,.731-.6c-.147-.031-.906-.3-.906-.3a1.166,1.166,0,0,1-.935.521c.142-.18.279-.364.412-.551l.485-.2.128-.5c.355-.462,1.162-.227,1.162-.227.05-.09.551-.67.551-.67-.227-.009-.866-.1-.866-.1-.3.511-.592.6-.76.606.109-.185.213-.374.312-.561l.338-.192.09-.533c.336-.462,1.056-.256,1.056-.256.09-.166.511-.729.511-.729a4.668,4.668,0,0,1-.857,0,.9.9,0,0,1-.618.608c.076-.18.147-.357.211-.54L35.764,15l.031-.445c.206-.426,1.015-.374,1.015-.374a6.367,6.367,0,0,1,.445-.769c-.277.05-.9.1-.9.1a.889.889,0,0,1-.556.7" transform="translate(-2842.776 6927.966)" fill="#008c42"/>
    <path id="Caminho_49127" data-name="Caminho 49127" d="M10.274.072H51.233V22.828Z" transform="translate(-2840.716 6919.098)" fill="#008c42"/>
    <path id="Caminho_49128" data-name="Caminho 49128" d="M1.553,9.006,42.672,31.584H1.553Z" transform="translate(-2852.635 6931.308)" fill="#008c42"/>
    <path id="Caminho_49129" data-name="Caminho 49129" d="M9.747,7.34l-.107.137a2.785,2.785,0,0,0-.241.376,2.936,2.936,0,0,0-.244.585,2.72,2.72,0,0,0-.08.346,3.178,3.178,0,0,0-.04.364,2.093,2.093,0,0,0,.024.367,1.837,1.837,0,0,0,.08.346,1.661,1.661,0,0,0,.144.3,1.326,1.326,0,0,0,.175.239,1.2,1.2,0,0,0,.182.17.86.86,0,0,0,.156.114c.09.054.142.088.142.088l-.031.059s-.052-.036-.147-.092a.984.984,0,0,1-.161-.118,1.591,1.591,0,0,1-.367-.428,1.7,1.7,0,0,1-.147-.31,1.936,1.936,0,0,1-.08-.355,2.46,2.46,0,0,1-.021-.374,2.748,2.748,0,0,1,.045-.372,2.326,2.326,0,0,1,.085-.353,3.193,3.193,0,0,1,.253-.589,2.946,2.946,0,0,1,.246-.379c.069-.085.107-.135.107-.135Z" transform="translate(-2842.478 6929.008)" fill="#2a9c3b"/>
    <path id="Caminho_49130" data-name="Caminho 49130" d="M9.113,7.416s.014.147.026.291V8l-.05,0,0-.289c-.009-.147-.017-.291-.017-.291Z" transform="translate(-2842.352 6929.136)" fill="#2a9c3b"/>
    <path id="Caminho_49131" data-name="Caminho 49131" d="M9.55,7.555,9.477,7.6c-.043.026-.1.057-.156.095l-.194.166-.043-.036L9.3,7.649c.057-.036.116-.062.161-.085l.073-.04Z" transform="translate(-2842.343 6929.283)" fill="#2a9c3b"/>
    <path id="Caminho_49132" data-name="Caminho 49132" d="M9.632,7.98a.5.5,0,0,0-.239.116,1.469,1.469,0,0,0-.2.187l-.035.038-.014-.05A1.036,1.036,0,0,0,9.067,8a.275.275,0,0,0-.076-.114c-.026-.045-.078-.047-.116-.069l.007-.035c.045.026.1.031.135.073a.287.287,0,0,1,.09.123,1.315,1.315,0,0,1,.095.282l-.05-.014a1.436,1.436,0,0,1,.213-.185.8.8,0,0,1,.123-.073.51.51,0,0,1,.137-.043Z" transform="translate(-2842.628 6929.634)" fill="#2a9c3b"/>
    <path id="Caminho_49133" data-name="Caminho 49133" d="M9.362,8.228l-.026,0a.134.134,0,0,0-.062,0,.241.241,0,0,0-.149.1.389.389,0,0,0-.069.178l0,.088-.038,0,0-.095A.446.446,0,0,1,9.094,8.3a.275.275,0,0,1,.175-.114.164.164,0,0,1,.069,0l.026,0Z" transform="translate(-2842.436 6930.188)" fill="#2a9c3b"/>
    <path id="Caminho_49134" data-name="Caminho 49134" d="M8.857,8.29l.054-.031a.131.131,0,0,1,.066-.014.134.134,0,0,1,.08.009.3.3,0,0,1,.125.071.559.559,0,0,1,.05.043L9.2,8.4l-.045-.04a.274.274,0,0,0-.109-.066.1.1,0,0,0-.064-.009.094.094,0,0,0-.057.009l-.057.028Z" transform="translate(-2842.653 6930.266)" fill="#2a9c3b"/>
    <path id="Caminho_49135" data-name="Caminho 49135" d="M9.486,8.524a.429.429,0,0,0-.064.043c-.012.019-.038.031-.04.054s-.021.043-.014.066l0,.071,0,.033H9.344a.4.4,0,0,0-.3.069L9.02,8.836a.456.456,0,0,1,.331-.1l-.028.033V8.682A.158.158,0,0,1,9.347,8.6c.007-.031.038-.045.057-.066s.047-.026.069-.04Z" transform="translate(-2842.43 6930.607)" fill="#2a9c3b"/>
    <path id="Caminho_49136" data-name="Caminho 49136" d="M10.573,7.379s.033.05.092.144a2.825,2.825,0,0,1,.2.407,3.278,3.278,0,0,1,.185.615,2.929,2.929,0,0,1,.045.36,2.817,2.817,0,0,1,0,.374,2.408,2.408,0,0,1-.064.369,2.049,2.049,0,0,1-.118.346,1.68,1.68,0,0,1-.18.291,1.484,1.484,0,0,1-.206.227,1.154,1.154,0,0,1-.206.156.792.792,0,0,1-.173.1c-.1.05-.156.076-.156.076l-.026-.062s.054-.028.151-.071a.969.969,0,0,0,.168-.095,1.209,1.209,0,0,0,.2-.149,1.193,1.193,0,0,0,.2-.218,1.621,1.621,0,0,0,.175-.277,1.879,1.879,0,0,0,.118-.336,2.045,2.045,0,0,0,.064-.36,2.375,2.375,0,0,0,0-.367,2.806,2.806,0,0,0-.04-.355,3.1,3.1,0,0,0-.175-.608,2.787,2.787,0,0,0-.2-.4l-.09-.147Z" transform="translate(-2841.136 6929.085)" fill="#2a9c3b"/>
    <path id="Caminho_49137" data-name="Caminho 49137" d="M10.5,7.5l-.052.286c-.012.147-.026.289-.026.289h-.05s.017-.147.036-.3.059-.286.059-.286Z" transform="translate(-2840.578 6929.244)" fill="#2a9c3b"/>
    <path id="Caminho_49138" data-name="Caminho 49138" d="M10.232,7.582l.069.047c.04.031.1.064.149.107.1.1.2.194.2.194l-.047.031s-.088-.092-.173-.187c-.05-.045-.1-.08-.144-.111l-.066-.05Z" transform="translate(-2840.797 6929.362)" fill="#2a9c3b"/>
    <path id="Caminho_49139" data-name="Caminho 49139" d="M10.276,7.961a.447.447,0,0,1,.13.054.691.691,0,0,1,.114.088,1.32,1.32,0,0,1,.189.208l-.05.007a1.156,1.156,0,0,1,.128-.267.287.287,0,0,1,.1-.111c.036-.043.095-.04.142-.057l0,.036c-.04.019-.095.017-.123.054a.258.258,0,0,0-.09.1,1.215,1.215,0,0,0-.111.26l-.019.05-.031-.043a1.339,1.339,0,0,0-.175-.208.527.527,0,0,0-.225-.144Z" transform="translate(-2840.737 6929.774)" fill="#2a9c3b"/>
    <path id="Caminho_49140" data-name="Caminho 49140" d="M10.257,8.257h.026a.14.14,0,0,1,.066.007.262.262,0,0,1,.161.135.422.422,0,0,1,.054.2c0,.054-.007.095-.007.095l-.036-.009s0-.036.007-.085a.416.416,0,0,0-.05-.185.25.25,0,0,0-.137-.118c-.021-.012-.047,0-.062-.007h-.026V8.257Z" transform="translate(-2840.742 6930.283)" fill="#2a9c3b"/>
    <path id="Caminho_49141" data-name="Caminho 49141" d="M10.754,8.429,10.7,8.4a.078.078,0,0,0-.054-.017.086.086,0,0,0-.064,0,.263.263,0,0,0-.116.052l-.05.036-.028-.036.054-.038a.262.262,0,0,1,.133-.054.133.133,0,0,1,.08,0,.107.107,0,0,1,.064.024l.052.036Z" transform="translate(-2840.558 6930.392)" fill="#2a9c3b"/>
    <path id="Caminho_49142" data-name="Caminho 49142" d="M10.19,8.552a.422.422,0,0,1,.064.05c.017.024.045.043.05.071a.18.18,0,0,1,.014.085l-.012.085-.026-.036a.436.436,0,0,1,.315.14l-.026.019a.419.419,0,0,0-.291-.1l-.031,0,0-.033.014-.071c.009-.024,0-.045,0-.066s-.024-.04-.036-.057a.236.236,0,0,0-.059-.05Z" transform="translate(-2840.864 6930.688)" fill="#2a9c3b"/>
    <path id="Caminho_49143" data-name="Caminho 49143" d="M9.9,7.321,9.852,9.059c-.043.869-.088,1.737-.088,1.737l-.109,0s.064-.869.128-1.735l.1-1.737Z" transform="translate(-2841.561 6929.003)" fill="#2a9c3b"/>
    <path id="Caminho_49144" data-name="Caminho 49144" d="M10.39,7.618a1.281,1.281,0,0,0-.256.043.44.44,0,0,0-.111.052.227.227,0,0,0-.069.088l-.036.05L9.893,7.8a.51.51,0,0,0-.118-.118A1.243,1.243,0,0,0,9.618,7.6l.007-.021a1.528,1.528,0,0,1,.173.066.526.526,0,0,1,.151.123l-.059,0a.247.247,0,0,1,.1-.109.369.369,0,0,1,.13-.05,1.287,1.287,0,0,1,.267-.021Z" transform="translate(-2841.613 6929.36)" fill="#2a9c3b"/>
    <path id="Caminho_49145" data-name="Caminho 49145" d="M9.486,7.832a.847.847,0,0,1,.348.057.613.613,0,0,1,.154.095.514.514,0,0,1,.109.149l-.062,0a.656.656,0,0,1,.447-.256,1.365,1.365,0,0,1,.17,0v.021c-.054.007-.111,0-.166.017a.509.509,0,0,0-.154.05.539.539,0,0,0-.237.2l-.031.05-.031-.052a.508.508,0,0,0-.088-.135.543.543,0,0,0-.135-.1.819.819,0,0,0-.331-.076Z" transform="translate(-2841.8 6929.704)" fill="#2a9c3b"/>
    <path id="Caminho_49146" data-name="Caminho 49146" d="M9.476,8.176a1.275,1.275,0,0,1,.317-.014.446.446,0,0,1,.159.059.46.46,0,0,1,.121.123L10,8.335a.506.506,0,0,1,.163-.1.289.289,0,0,1,.09-.031.415.415,0,0,1,.092-.014.478.478,0,0,1,.182.024.861.861,0,0,1,.163.078l-.012.019a.687.687,0,0,0-.161-.057.391.391,0,0,0-.166,0,.338.338,0,0,0-.08.021.432.432,0,0,0-.076.033.549.549,0,0,0-.13.1l-.05.038-.028-.05A.473.473,0,0,0,9.9,8.285a.305.305,0,0,0-.123-.064,1.271,1.271,0,0,0-.3-.021Z" transform="translate(-2841.807 6930.148)" fill="#2a9c3b"/>
    <path id="Caminho_49147" data-name="Caminho 49147" d="M9.525,8.5a.981.981,0,0,1,.22,0,.363.363,0,0,1,.218.1l-.057-.009a.672.672,0,0,1,.22-.057,1.116,1.116,0,0,1,.218,0v.024a1.01,1.01,0,0,0-.206.033.719.719,0,0,0-.185.076l-.021.014L9.9,8.657a.519.519,0,0,0-.369-.135V8.5Z" transform="translate(-2841.74 6930.609)" fill="#2a9c3b"/>
    <path id="Caminho_49148" data-name="Caminho 49148" d="M9.486,9.826l-.038.166a2.553,2.553,0,0,0-.052.445,2.984,2.984,0,0,0,.036.632,2.951,2.951,0,0,0,.078.348,3,3,0,0,0,.123.346,2.23,2.23,0,0,0,.182.32,1.817,1.817,0,0,0,.222.275,1.856,1.856,0,0,0,.258.206,1.335,1.335,0,0,0,.26.14,1.252,1.252,0,0,0,.239.076.8.8,0,0,0,.189.033l.168.019,0,.066-.173-.019a1.047,1.047,0,0,1-.2-.038,1.56,1.56,0,0,1-.246-.08,1.378,1.378,0,0,1-.27-.147A1.845,1.845,0,0,1,10,12.394a2.254,2.254,0,0,1-.227-.284,2.474,2.474,0,0,1-.182-.329,3.185,3.185,0,0,1-.2-.708,3.2,3.2,0,0,1-.028-.641,2.753,2.753,0,0,1,.057-.45l.038-.166Z" transform="translate(-2841.973 6932.417)" fill="#2a9c3b"/>
    <path id="Caminho_49149" data-name="Caminho 49149" d="M9.273,9.991l.149.251.13.265-.047.019s-.059-.133-.121-.263-.144-.253-.144-.253Z" transform="translate(-2842.129 6932.655)" fill="#2a9c3b"/>
    <path id="Caminho_49150" data-name="Caminho 49150" d="M9.65,10.03,9.6,10.1c-.028.04-.069.1-.1.151-.05.118-.1.237-.1.237l-.052-.014s.059-.125.118-.249c.038-.054.078-.107.107-.147l.05-.066Z" transform="translate(-2841.98 6932.682)" fill="#2a9c3b"/>
    <path id="Caminho_49151" data-name="Caminho 49151" d="M9.982,10.368a.522.522,0,0,0-.163.208,1.432,1.432,0,0,0-.1.253l-.017.05-.035-.04a1.16,1.16,0,0,0-.192-.211.284.284,0,0,0-.118-.069c-.04-.028-.09-.007-.135-.012l-.007-.033c.05,0,.1-.021.151.007a.323.323,0,0,1,.135.071,1.11,1.11,0,0,1,.208.213l-.05.009v0a1.531,1.531,0,0,1,.109-.258.952.952,0,0,1,.078-.121.435.435,0,0,1,.1-.095Z" transform="translate(-2842.159 6933.132)" fill="#2a9c3b"/>
    <path id="Caminho_49152" data-name="Caminho 49152" d="M9.782,10.69l-.024.007c-.012.007-.04.009-.054.028a.233.233,0,0,0-.09.156.381.381,0,0,0,.014.189.837.837,0,0,0,.035.078l-.031.019s-.019-.036-.04-.085a.426.426,0,0,1-.014-.208.265.265,0,0,1,.107-.18c.024-.021.047-.021.062-.031l.024-.007Z" transform="translate(-2841.677 6933.565)" fill="#2a9c3b"/>
    <path id="Caminho_49153" data-name="Caminho 49153" d="M9.411,10.93l.038-.05a.129.129,0,0,1,.054-.043.136.136,0,0,1,.076-.028.285.285,0,0,1,.144.009l.064.017-.017.043-.057-.014a.249.249,0,0,0-.128-.014.105.105,0,0,0-.062.019.08.08,0,0,0-.047.035l-.04.05Z" transform="translate(-2841.896 6933.766)" fill="#2a9c3b"/>
    <path id="Caminho_49154" data-name="Caminho 49154" d="M10,10.928c-.012.024-.031.047-.04.066s-.021.045-.012.066,0,.047.017.066l.038.062.017.031-.028.012a.414.414,0,0,0-.241.194l-.031-.009a.448.448,0,0,1,.251-.237l-.012.043-.038-.076a.171.171,0,0,1-.014-.085.185.185,0,0,1,.024-.085.338.338,0,0,1,.045-.064Z" transform="translate(-2841.472 6933.912)" fill="#2a9c3b"/>
    <path id="Caminho_49155" data-name="Caminho 49155" d="M9.826,9.614s.353.8.708,1.59.679,1.6.679,1.6l-.1.043s-.322-.809-.641-1.616L9.805,9.623Z" transform="translate(-2841.357 6932.14)" fill="#2a9c3b"/>
    <path id="Caminho_49156" data-name="Caminho 49156" d="M10.5,9.8a1.246,1.246,0,0,0-.211.149.371.371,0,0,0-.078.095.23.23,0,0,0-.024.111l-.009.057-.043-.028a.383.383,0,0,0-.159-.054,1.087,1.087,0,0,0-.178-.009l0-.021a1.22,1.22,0,0,1,.187-.017.525.525,0,0,1,.192.045l-.052.031a.27.27,0,0,1,.043-.142.4.4,0,0,1,.1-.1,1.532,1.532,0,0,1,.232-.137Z" transform="translate(-2841.363 6932.357)" fill="#2a9c3b"/>
    <path id="Caminho_49157" data-name="Caminho 49157" d="M9.787,10.467a.876.876,0,0,1,.338-.1.538.538,0,0,1,.182.019.6.6,0,0,1,.163.085l-.057.026a.565.565,0,0,1,.159-.312.735.735,0,0,1,.133-.111c.05-.031.1-.05.151-.076l.009.021a1.393,1.393,0,0,0-.142.083.6.6,0,0,0-.118.114.511.511,0,0,0-.123.284l0,.057-.05-.036a.506.506,0,0,0-.137-.083.451.451,0,0,0-.161-.028.853.853,0,0,0-.331.073Z" transform="translate(-2841.382 6932.665)" fill="#2a9c3b"/>
    <path id="Caminho_49158" data-name="Caminho 49158" d="M9.926,10.742a1.211,1.211,0,0,1,.279-.149.4.4,0,0,1,.168-.017.524.524,0,0,1,.161.059l-.073.024a.621.621,0,0,1,.107-.159.35.35,0,0,1,.069-.064.271.271,0,0,1,.076-.052.424.424,0,0,1,.175-.057.762.762,0,0,1,.18,0l0,.021a1.015,1.015,0,0,0-.17.019.476.476,0,0,0-.149.069.348.348,0,0,0-.062.054.257.257,0,0,0-.052.062.588.588,0,0,0-.076.142l-.028.054-.047-.033a.358.358,0,0,0-.121-.059.308.308,0,0,0-.14,0,1.358,1.358,0,0,0-.284.111Z" transform="translate(-2841.192 6933.106)" fill="#2a9c3b"/>
    <path id="Caminho_49159" data-name="Caminho 49159" d="M10.113,10.965a.972.972,0,0,1,.2-.092.351.351,0,0,1,.237-.007l-.054.014a.848.848,0,0,1,.173-.147,1.249,1.249,0,0,1,.2-.095l.007.021a1.483,1.483,0,0,0-.173.118.779.779,0,0,0-.133.149l-.014.024-.043-.007a.532.532,0,0,0-.393.04Z" transform="translate(-2840.936 6933.539)" fill="#2a9c3b"/>
    <path id="Caminho_49160" data-name="Caminho 49160" d="M10.585,12.089l.031.168a2.516,2.516,0,0,0,.125.431,2.867,2.867,0,0,0,.485.859,2.433,2.433,0,0,0,.249.27,2.652,2.652,0,0,0,.291.225,1.724,1.724,0,0,0,.312.166,1.69,1.69,0,0,0,.317.09,1.276,1.276,0,0,0,.293.026,1.3,1.3,0,0,0,.249-.024.867.867,0,0,0,.189-.043c.1-.033.161-.05.161-.05l.024.062-.168.05a.9.9,0,0,1-.2.045,1.236,1.236,0,0,1-.258.021,1.261,1.261,0,0,1-.305-.031,1.651,1.651,0,0,1-.329-.095,1.925,1.925,0,0,1-.32-.175,2.275,2.275,0,0,1-.3-.232,2.5,2.5,0,0,1-.251-.277,2.422,2.422,0,0,1-.208-.3A3.169,3.169,0,0,1,10.7,12.7a2.748,2.748,0,0,1-.123-.438c-.019-.109-.031-.168-.031-.168Z" transform="translate(-2840.339 6935.522)" fill="#2a9c3b"/>
    <path id="Caminho_49161" data-name="Caminho 49161" d="M10.5,12.307s.118.088.237.173.225.194.225.194l-.035.036s-.107-.1-.213-.2-.232-.178-.232-.178Z" transform="translate(-2840.435 6935.82)" fill="#2a9c3b"/>
    <path id="Caminho_49162" data-name="Caminho 49162" d="M10.765,12.25l-.017.083c-.007.05-.024.114-.033.18,0,.128,0,.253,0,.253l-.054.009.014-.275a1.693,1.693,0,0,1,.04-.178l.019-.083Z" transform="translate(-2840.191 6935.73)" fill="#2a9c3b"/>
    <path id="Caminho_49163" data-name="Caminho 49163" d="M11.265,12.537a.536.536,0,0,0-.069.256,1.7,1.7,0,0,0,.009.27l0,.05-.047-.024a1.207,1.207,0,0,0-.258-.118.274.274,0,0,0-.137-.019c-.047-.009-.085.028-.128.043l-.019-.028c.047-.019.09-.059.144-.052a.316.316,0,0,1,.149.014,1.22,1.22,0,0,1,.275.114l-.043.028a1.6,1.6,0,0,1,0-.282.783.783,0,0,1,.026-.142.452.452,0,0,1,.059-.128Z" transform="translate(-2840.242 6936.108)" fill="#2a9c3b"/>
    <path id="Caminho_49164" data-name="Caminho 49164" d="M11.2,12.788l-.019.017c-.009.012-.033.026-.043.05a.231.231,0,0,0-.021.178.379.379,0,0,0,.088.168c.038.038.064.059.064.059l-.021.031a.934.934,0,0,1-.069-.066.425.425,0,0,1-.095-.185.274.274,0,0,1,.028-.206.148.148,0,0,1,.047-.052l.019-.017Z" transform="translate(-2839.623 6936.445)" fill="#2a9c3b"/>
    <path id="Caminho_49165" data-name="Caminho 49165" d="M10.969,13.175l.014-.059a.1.1,0,0,1,.033-.059c.017-.021.033-.047.059-.054a.289.289,0,0,1,.137-.047l.064-.009v.045L11.218,13a.232.232,0,0,0-.123.038.109.109,0,0,0-.05.043.085.085,0,0,0-.031.05L11,13.189Z" transform="translate(-2839.766 6936.692)" fill="#2a9c3b"/>
    <path id="Caminho_49166" data-name="Caminho 49166" d="M11.432,12.936a.441.441,0,0,0-.009.076c0,.024,0,.05.014.066s.017.043.04.054l.057.043.026.021-.021.024a.412.412,0,0,0-.147.272l-.033,0a.44.44,0,0,1,.142-.315l0,.045-.064-.057c-.026-.014-.033-.047-.047-.071a.18.18,0,0,1-.012-.088.452.452,0,0,1,.014-.078Z" transform="translate(-2839.235 6936.673)" fill="#2a9c3b"/>
    <path id="Caminho_49167" data-name="Caminho 49167" d="M10.867,11.741s.637.6,1.271,1.188c.625.608,1.25,1.214,1.25,1.214l-.078.076L12.09,12.981,10.85,11.76Z" transform="translate(-2839.929 6935.047)" fill="#2a9c3b"/>
    <path id="Caminho_49168" data-name="Caminho 49168" d="M11.492,11.8a1.281,1.281,0,0,0-.137.222.354.354,0,0,0-.033.118.188.188,0,0,0,.021.109v0l.012.054L11.3,12.3a.456.456,0,0,0-.168.009,1.565,1.565,0,0,0-.166.062l-.012-.021a1.212,1.212,0,0,1,.166-.085.515.515,0,0,1,.194-.036l-.038.05v0a.263.263,0,0,1-.017-.147.466.466,0,0,1,.05-.133,1.309,1.309,0,0,1,.161-.215Z" transform="translate(-2839.78 6935.097)" fill="#2a9c3b"/>
    <path id="Caminho_49169" data-name="Caminho 49169" d="M11.058,12.777a.849.849,0,0,1,.275-.225.481.481,0,0,1,.357-.035l-.043.045a.578.578,0,0,1,.024-.348.621.621,0,0,1,.08-.151,1.473,1.473,0,0,1,.109-.133l.017.017c-.033.047-.071.085-.1.135a.726.726,0,0,0-.064.147.521.521,0,0,0,0,.312l.017.052-.059-.009a.453.453,0,0,0-.159-.024.471.471,0,0,0-.159.038.87.87,0,0,0-.277.2Z" transform="translate(-2839.645 6935.305)" fill="#2a9c3b"/>
    <path id="Caminho_49170" data-name="Caminho 49170" d="M11.3,12.991a1.3,1.3,0,0,1,.2-.246.413.413,0,0,1,.149-.08.528.528,0,0,1,.173-.007l-.059.05a.584.584,0,0,1,.036-.187.408.408,0,0,1,.038-.088.543.543,0,0,1,.05-.078.523.523,0,0,1,.137-.123.721.721,0,0,1,.166-.069l0,.021a1.006,1.006,0,0,0-.149.083.425.425,0,0,0-.111.123.42.42,0,0,0-.036.073.3.3,0,0,0-.024.078.528.528,0,0,0-.014.159l0,.062L11.8,12.75a.385.385,0,0,0-.137-.009.4.4,0,0,0-.13.05,1.317,1.317,0,0,0-.218.213Z" transform="translate(-2839.308 6935.624)" fill="#2a9c3b"/>
    <path id="Caminho_49171" data-name="Caminho 49171" d="M11.585,13.034a1.19,1.19,0,0,1,.149-.161.366.366,0,0,1,.218-.1l-.045.036a.731.731,0,0,1,.1-.2,1.345,1.345,0,0,1,.144-.163l.014.017a1.147,1.147,0,0,0-.111.175.677.677,0,0,0-.064.192l0,.026-.04.009a.532.532,0,0,0-.346.189Z" transform="translate(-2838.924 6936.009)" fill="#2a9c3b"/>
    <path id="Caminho_49172" data-name="Caminho 49172" d="M12.327,13.6l.092.144a2.388,2.388,0,0,0,.277.353,3.249,3.249,0,0,0,.471.424,2.956,2.956,0,0,0,.3.192,2.652,2.652,0,0,0,.331.156,2.458,2.458,0,0,0,.353.1,2.039,2.039,0,0,0,.353.04,1.789,1.789,0,0,0,.327-.038,1.285,1.285,0,0,0,.284-.088,1.149,1.149,0,0,0,.222-.114.809.809,0,0,0,.156-.109c.085-.066.133-.107.133-.107l.047.05s-.05.04-.137.107a.884.884,0,0,1-.163.114,1.63,1.63,0,0,1-.525.2,1.75,1.75,0,0,1-.341.035,1.918,1.918,0,0,1-.362-.045,2.151,2.151,0,0,1-.36-.1,2.617,2.617,0,0,1-.338-.163,3.061,3.061,0,0,1-.305-.2,3.284,3.284,0,0,1-.471-.433,2.807,2.807,0,0,1-.277-.36l-.09-.147Z" transform="translate(-2837.943 6937.59)" fill="#2a9c3b"/>
    <path id="Caminho_49173" data-name="Caminho 49173" d="M12.328,13.832s.142.038.284.071l.282.1-.021.047-.272-.1c-.14-.043-.282-.08-.282-.08Z" transform="translate(-2837.921 6937.904)" fill="#2a9c3b"/>
    <path id="Caminho_49174" data-name="Caminho 49174" d="M12.518,13.694a.835.835,0,0,0,.017.083c.012.047.019.116.036.178l.095.239-.047.031-.092-.26c-.014-.066-.021-.133-.028-.18l-.012-.083Z" transform="translate(-2837.694 6937.716)" fill="#2a9c3b"/>
    <path id="Caminho_49175" data-name="Caminho 49175" d="M13.03,13.888a.521.521,0,0,0,.031.263,1.471,1.471,0,0,0,.111.249l.024.045-.05,0a1.153,1.153,0,0,0-.284-.017.277.277,0,0,0-.133.036c-.047.009-.066.057-.1.085l-.028-.017c.038-.035.062-.09.114-.1a.3.3,0,0,1,.147-.045,1.144,1.144,0,0,1,.3,0l-.028.043a1.32,1.32,0,0,1-.1-.263.912.912,0,0,1-.028-.14A.49.49,0,0,1,13,13.881Z" transform="translate(-2837.539 6937.971)" fill="#2a9c3b"/>
    <path id="Caminho_49176" data-name="Caminho 49176" d="M13.13,14.037l-.009.021c0,.017-.024.038-.021.059a.229.229,0,0,0,.047.173.392.392,0,0,0,.144.125c.047.021.08.033.08.033l-.009.035s-.036-.012-.09-.035a.4.4,0,0,1-.156-.137.257.257,0,0,1-.05-.2.142.142,0,0,1,.021-.064l.012-.024Z" transform="translate(-2836.909 6938.162)" fill="#2a9c3b"/>
    <path id="Caminho_49177" data-name="Caminho 49177" d="M13.05,14.524l-.007-.062a.112.112,0,0,1,.007-.066.127.127,0,0,1,.036-.071.282.282,0,0,1,.109-.095l.054-.035.019.043-.052.031a.228.228,0,0,0-.1.08.116.116,0,0,0-.031.054.094.094,0,0,0-.009.057l.007.062Z" transform="translate(-2836.936 6938.4)" fill="#2a9c3b"/>
    <path id="Caminho_49178" data-name="Caminho 49178" d="M13.411,14.075a.59.59,0,0,0,.019.076c.012.019.014.045.038.054s.033.036.059.036l.069.019.033.009-.012.031a.4.4,0,0,0-.033.308l-.031.017a.448.448,0,0,1,.014-.346l.021.04-.083-.028c-.028,0-.05-.033-.071-.05s-.031-.05-.043-.076a.414.414,0,0,1-.014-.078Z" transform="translate(-2836.474 6938.236)" fill="#2a9c3b"/>
    <path id="Caminho_49179" data-name="Caminho 49179" d="M12.459,13.17s.812.315,1.624.627c.8.329,1.612.656,1.612.656l-.043.1s-.8-.346-1.6-.693l-1.607-.667Z" transform="translate(-2837.742 6937)" fill="#2a9c3b"/>
    <path id="Caminho_49180" data-name="Caminho 49180" d="M12.941,13.094a1.379,1.379,0,0,0-.045.256.357.357,0,0,0,.012.123.205.205,0,0,0,.062.092l.033.05-.05.012a.517.517,0,0,0-.151.071,1.271,1.271,0,0,0-.133.121l-.017-.014a1,1,0,0,1,.123-.142.483.483,0,0,1,.163-.1l-.014.059v0a.262.262,0,0,1-.071-.13.41.41,0,0,1,0-.142,1.335,1.335,0,0,1,.069-.258Z" transform="translate(-2837.466 6936.883)" fill="#2a9c3b"/>
    <path id="Caminho_49181" data-name="Caminho 49181" d="M12.845,14.228a.84.84,0,0,1,.17-.308.518.518,0,0,1,.142-.116.466.466,0,0,1,.178-.052l-.024.054a.571.571,0,0,1-.107-.334.683.683,0,0,1,.017-.17,1.287,1.287,0,0,1,.054-.161l.021.009c-.014.052-.033.1-.043.159a.611.611,0,0,0,0,.161.52.52,0,0,0,.114.291l.036.045-.059.012a.458.458,0,0,0-.156.038.534.534,0,0,0-.135.095.8.8,0,0,0-.182.286Z" transform="translate(-2837.202 6936.961)" fill="#2a9c3b"/>
    <path id="Caminho_49182" data-name="Caminho 49182" d="M13.157,14.355a1.311,1.311,0,0,1,.092-.3.413.413,0,0,1,.109-.133.579.579,0,0,1,.156-.071l-.035.069a.657.657,0,0,1-.038-.187.426.426,0,0,1,0-.095.377.377,0,0,1,.017-.09.474.474,0,0,1,.083-.166,1.3,1.3,0,0,1,.128-.128l.014.019a.952.952,0,0,0-.109.133.43.43,0,0,0-.057.156.459.459,0,0,0,0,.161.509.509,0,0,0,.047.154l.019.057-.054.012a.366.366,0,0,0-.13.043.315.315,0,0,0-.1.095,1.292,1.292,0,0,0-.121.279Z" transform="translate(-2836.776 6937.112)" fill="#2a9c3b"/>
    <path id="Caminho_49183" data-name="Caminho 49183" d="M13.485,14.223a.964.964,0,0,1,.078-.208.37.37,0,0,1,.163-.173l-.028.05a.805.805,0,0,1,.019-.227,1.245,1.245,0,0,1,.071-.206l.019.009a1.213,1.213,0,0,0-.038.206.688.688,0,0,0,.012.2l0,.026-.033.026c-.111.035-.192.178-.249.305Z" transform="translate(-2836.328 6937.395)" fill="#2a9c3b"/>
    <path id="Caminho_49184" data-name="Caminho 49184" d="M10.262,9.466s.052.036.147.092a2.469,2.469,0,0,1,.36.277,3.18,3.18,0,0,1,.433.473,2.776,2.776,0,0,1,.2.3,2.968,2.968,0,0,1,.163.338,2.288,2.288,0,0,1,.1.36,1.958,1.958,0,0,1,.043.362,1.568,1.568,0,0,1-.036.341,1.352,1.352,0,0,1-.088.3,1.514,1.514,0,0,1-.116.232,1.02,1.02,0,0,1-.111.163c-.069.088-.109.137-.109.137l-.05-.047s.04-.047.1-.13a.8.8,0,0,0,.111-.159,1.027,1.027,0,0,0,.114-.222A1.191,1.191,0,0,0,11.616,12a1.607,1.607,0,0,0,.038-.329,1.782,1.782,0,0,0-.038-.35,1.864,1.864,0,0,0-.1-.353,3.075,3.075,0,0,0-.156-.334,2.408,2.408,0,0,0-.192-.3,3.128,3.128,0,0,0-.424-.471,2.353,2.353,0,0,0-.35-.277l-.144-.092Z" transform="translate(-2840.749 6931.938)" fill="#2a9c3b"/>
    <path id="Caminho_49185" data-name="Caminho 49185" d="M10.514,9.483s.04.142.078.282.1.272.1.272l-.045.019s-.05-.14-.1-.279l-.071-.284Z" transform="translate(-2840.437 6931.96)" fill="#2a9c3b"/>
    <path id="Caminho_49186" data-name="Caminho 49186" d="M10.346,9.649l.083.014c.05.007.114.014.18.028.13.047.26.092.26.092l-.028.047s-.118-.047-.239-.092a1.771,1.771,0,0,0-.18-.038c-.05-.012-.08-.017-.08-.017Z" transform="translate(-2840.625 6932.188)" fill="#2a9c3b"/>
    <path id="Caminho_49187" data-name="Caminho 49187" d="M10.528,10.161a.406.406,0,0,1,.142,0,.858.858,0,0,1,.14.028,1.253,1.253,0,0,1,.26.107l-.043.028a1.256,1.256,0,0,1,0-.3.3.3,0,0,1,.045-.144c.014-.052.069-.076.1-.114l.017.028c-.028.036-.076.054-.085.1a.277.277,0,0,0-.036.133,1.15,1.15,0,0,0,.014.284l0,.05-.045-.024a1.3,1.3,0,0,0-.249-.111.522.522,0,0,0-.263-.033Z" transform="translate(-2840.369 6932.343)" fill="#2a9c3b"/>
    <path id="Caminho_49188" data-name="Caminho 49188" d="M10.666,10.264l.024-.009a.125.125,0,0,1,.064-.024.267.267,0,0,1,.2.05.458.458,0,0,1,.137.154c.021.052.033.09.033.09l-.036.009a.6.6,0,0,0-.031-.083.406.406,0,0,0-.123-.144.242.242,0,0,0-.173-.047.111.111,0,0,0-.059.021l-.024.009Z" transform="translate(-2840.18 6932.974)" fill="#2a9c3b"/>
    <path id="Caminho_49189" data-name="Caminho 49189" d="M11.168,10.25l-.062-.007a.081.081,0,0,0-.057.009c-.019.007-.043.009-.057.031a.242.242,0,0,0-.08.1l-.031.05-.043-.019.036-.054a.3.3,0,0,1,.095-.109.134.134,0,0,1,.073-.036.114.114,0,0,1,.066-.007l.062.007Z" transform="translate(-2839.944 6932.947)" fill="#2a9c3b"/>
    <path id="Caminho_49190" data-name="Caminho 49190" d="M10.728,10.543a.46.46,0,0,1,.078.017c.026.012.059.017.076.045s.045.043.05.069l.028.083-.038-.021a.438.438,0,0,1,.346-.014l-.014.031a.4.4,0,0,0-.308.033l-.028.012-.009-.033-.019-.069c0-.028-.021-.04-.035-.059s-.038-.024-.057-.038a.354.354,0,0,0-.076-.021Z" transform="translate(-2840.105 6933.409)" fill="#2a9c3b"/>
    <path id="Caminho_49191" data-name="Caminho 49191" d="M11.211,11.433s.062.012.168.028a2.678,2.678,0,0,1,.44.116,2.972,2.972,0,0,1,.582.267,2.66,2.66,0,0,1,.3.2,2.759,2.759,0,0,1,.282.246,2.335,2.335,0,0,1,.237.293,1.914,1.914,0,0,1,.18.317,1.471,1.471,0,0,1,.1.327,1.28,1.28,0,0,1,.033.305,1.432,1.432,0,0,1-.017.258.794.794,0,0,1-.04.2l-.047.166-.064-.021s.017-.059.047-.161a.91.91,0,0,0,.04-.189,1.153,1.153,0,0,0,.019-.249,1.183,1.183,0,0,0-.028-.293,1.6,1.6,0,0,0-.095-.317,2.012,2.012,0,0,0-.173-.31,2.34,2.34,0,0,0-.23-.286,3.392,3.392,0,0,0-.275-.246,2.844,2.844,0,0,0-.293-.2,3.006,3.006,0,0,0-.573-.27,2.8,2.8,0,0,0-.433-.118l-.168-.028Z" transform="translate(-2839.448 6934.625)" fill="#2a9c3b"/>
    <path id="Caminho_49192" data-name="Caminho 49192" d="M11.447,11.357l.182.23c.1.107.2.211.2.211l-.033.038s-.1-.111-.2-.222-.178-.234-.178-.234Z" transform="translate(-2839.148 6934.522)" fill="#2a9c3b"/>
    <path id="Caminho_49193" data-name="Caminho 49193" d="M11.358,11.615l.08-.019c.047-.012.111-.033.178-.045l.275-.019-.007.054s-.128,0-.256.007c-.064.009-.13.026-.18.036l-.08.017Z" transform="translate(-2839.235 6934.761)" fill="#2a9c3b"/>
    <path id="Caminho_49194" data-name="Caminho 49194" d="M11.638,12.112a.351.351,0,0,1,.128-.059.61.61,0,0,1,.14-.028,1.421,1.421,0,0,1,.284,0l-.028.043a1.116,1.116,0,0,1-.118-.272.33.33,0,0,1-.017-.151c-.007-.052.036-.1.05-.144l.028.019c-.012.045-.05.08-.04.13a.307.307,0,0,0,.019.137,1.191,1.191,0,0,0,.123.253l.024.047-.05,0a1.5,1.5,0,0,0-.272-.007.539.539,0,0,0-.256.071Z" transform="translate(-2838.852 6934.709)" fill="#2a9c3b"/>
    <path id="Caminho_49195" data-name="Caminho 49195" d="M11.887,12.049l.017-.019a.16.16,0,0,1,.05-.047.266.266,0,0,1,.208-.035.433.433,0,0,1,.187.092.886.886,0,0,1,.066.069l-.028.021-.059-.062a.386.386,0,0,0-.17-.085.245.245,0,0,0-.18.026c-.021.007-.036.033-.047.043l-.017.019Z" transform="translate(-2838.512 6935.321)" fill="#2a9c3b"/>
    <path id="Caminho_49196" data-name="Caminho 49196" d="M12.3,11.867l-.059.019c-.021,0-.033.017-.05.033a.1.1,0,0,0-.04.05.251.251,0,0,0-.035.123l-.007.059-.045,0,.009-.064a.284.284,0,0,1,.045-.137.127.127,0,0,1,.052-.059.123.123,0,0,1,.059-.035l.059-.017Z" transform="translate(-2838.267 6935.176)" fill="#2a9c3b"/>
    <path id="Caminho_49197" data-name="Caminho 49197" d="M12.057,12.27a.418.418,0,0,1,.078-.019c.031,0,.062-.007.088.012a.152.152,0,0,1,.073.047l.057.064-.045,0a.449.449,0,0,1,.312-.147l0,.036a.4.4,0,0,0-.27.149l-.024.021-.019-.026-.045-.057c-.012-.024-.035-.028-.054-.04s-.045-.009-.066-.014a.33.33,0,0,0-.078.012Z" transform="translate(-2838.279 6935.705)" fill="#2a9c3b"/>
    <path id="Caminho_49198" data-name="Caminho 49198" d="M12.662,12.811l.166-.038a2.544,2.544,0,0,1,.45-.057,3.052,3.052,0,0,1,.641.031,3.3,3.3,0,0,1,.355.078,2.706,2.706,0,0,1,.353.123,2.775,2.775,0,0,1,.329.182,1.918,1.918,0,0,1,.286.227,1.824,1.824,0,0,1,.215.265,1.6,1.6,0,0,1,.147.27,1.349,1.349,0,0,1,.08.246.886.886,0,0,1,.038.2l.019.173-.066,0-.019-.168a.8.8,0,0,0-.033-.189,1.367,1.367,0,0,0-.076-.239,1.242,1.242,0,0,0-.137-.258,1.57,1.57,0,0,0-.2-.258,2.011,2.011,0,0,0-.277-.225,2.1,2.1,0,0,0-.32-.18,2.624,2.624,0,0,0-.346-.125,2.71,2.71,0,0,0-.348-.078,2.988,2.988,0,0,0-.632-.038,2.808,2.808,0,0,0-.445.052l-.168.038Z" transform="translate(-2837.452 6936.372)" fill="#2a9c3b"/>
    <path id="Caminho_49199" data-name="Caminho 49199" d="M12.853,12.6s.128.071.253.147c.133.059.263.121.263.121l-.017.047s-.133-.064-.265-.133-.251-.149-.251-.149Z" transform="translate(-2837.215 6936.218)" fill="#2a9c3b"/>
    <path id="Caminho_49200" data-name="Caminho 49200" d="M12.853,12.981l.066-.05c.04-.031.092-.071.149-.107l.249-.121.014.052s-.118.05-.237.1c-.057.033-.111.073-.151.1L12.874,13Z" transform="translate(-2837.191 6936.363)" fill="#2a9c3b"/>
    <path id="Caminho_49201" data-name="Caminho 49201" d="M13.183,13.315a.4.4,0,0,1,.1-.1.928.928,0,0,1,.118-.078,1.317,1.317,0,0,1,.26-.109l-.009.05a1.265,1.265,0,0,1-.213-.208.352.352,0,0,1-.071-.135c-.026-.05,0-.1-.007-.151l.033.007c0,.045-.014.092.012.135a.273.273,0,0,0,.069.118,1.237,1.237,0,0,0,.208.192l.04.033-.05.017a1.365,1.365,0,0,0-.253.1.538.538,0,0,0-.208.161Z" transform="translate(-2836.74 6936.192)" fill="#2a9c3b"/>
    <path id="Caminho_49202" data-name="Caminho 49202" d="M13.5,13.13l.007-.024a.141.141,0,0,1,.028-.062.276.276,0,0,1,.18-.109.389.389,0,0,1,.206.017l.088.038-.019.033a.749.749,0,0,0-.08-.036.377.377,0,0,0-.189-.017.246.246,0,0,0-.156.09c-.019.017-.021.043-.028.054l-.007.026Z" transform="translate(-2836.307 6936.668)" fill="#2a9c3b"/>
    <path id="Caminho_49203" data-name="Caminho 49203" d="M13.793,12.793l-.05.04a.107.107,0,0,0-.036.05.117.117,0,0,0-.019.059.249.249,0,0,0,.014.128l.014.057-.043.017-.014-.062a.325.325,0,0,1-.009-.147.157.157,0,0,1,.028-.076.108.108,0,0,1,.043-.052l.05-.038Z" transform="translate(-2836.107 6936.452)" fill="#2a9c3b"/>
    <path id="Caminho_49204" data-name="Caminho 49204" d="M13.753,13.335a.424.424,0,0,1,.066-.047.185.185,0,0,1,.085-.024.149.149,0,0,1,.085.017l.078.038-.043.014a.441.441,0,0,1,.234-.253l.009.033a.407.407,0,0,0-.194.241l-.014.031-.028-.019-.062-.038c-.019-.017-.043-.012-.066-.017s-.045.009-.066.014a.331.331,0,0,0-.066.04Z" transform="translate(-2835.961 6936.875)" fill="#2a9c3b"/>
    <path id="Caminho_49205" data-name="Caminho 49205" d="M29.564,13.606a9.518,9.518,0,0,0-18.2-3.517c1.006-.09,2.024-.14,3.053-.14a33.008,33.008,0,0,1,15.152,3.657" transform="translate(-2839.233 6925.074)" fill="#2c4b97"/>
    <path id="Caminho_49206" data-name="Caminho 49206" d="M29.564,13.606a9.518,9.518,0,0,0-18.2-3.517c1.006-.09,2.024-.14,3.053-.14A33.008,33.008,0,0,1,29.564,13.606Z" transform="translate(-2839.233 6925.074)" fill="none" stroke="#000" stroke-miterlimit="10" stroke-width="0.019"/>
    <path id="Caminho_49207" data-name="Caminho 49207" d="M11.127,7.924a9.518,9.518,0,0,0,18.659,3.692A33.046,33.046,0,0,0,14.275,7.775q-1.594,0-3.148.149" transform="translate(-2839.709 6929.626)" fill="#2c4b97"/>
    <path id="Caminho_49208" data-name="Caminho 49208" d="M11.127,7.924a9.518,9.518,0,0,0,18.659,3.692A33.046,33.046,0,0,0,14.275,7.775Q12.681,7.775,11.127,7.924Z" transform="translate(-2839.709 6929.626)" fill="none" stroke="#000" stroke-miterlimit="10" stroke-width="0.019"/>
    <path id="Caminho_49209" data-name="Caminho 49209" d="M15.392,15.156c-.007-.118-.241-.256-.577-.218a5.79,5.79,0,0,0-.921.241,2.191,2.191,0,0,0,.883.234c.393,0,.63-.04.615-.258" transform="translate(-2835.769 6939.408)" fill="#fff"/>
    <path id="Caminho_49210" data-name="Caminho 49210" d="M15.392,15.156c-.007-.118-.241-.256-.577-.218a5.79,5.79,0,0,0-.921.241,2.191,2.191,0,0,0,.883.234C15.17,15.41,15.406,15.374,15.392,15.156Z" transform="translate(-2835.769 6939.408)" fill="none" stroke="#fff" stroke-miterlimit="10" stroke-width="0.019"/>
    <path id="Caminho_49211" data-name="Caminho 49211" d="M16.039,15.15c.007-.118.241-.253.577-.218a6.281,6.281,0,0,1,.921.244,2.165,2.165,0,0,1-.883.232c-.393-.007-.63-.043-.615-.258" transform="translate(-2832.837 6939.4)" fill="#fff"/>
    <path id="Caminho_49212" data-name="Caminho 49212" d="M16.039,15.15c.007-.118.241-.253.577-.218a6.281,6.281,0,0,1,.921.244,2.165,2.165,0,0,1-.883.232C16.262,15.4,16.025,15.365,16.039,15.15Z" transform="translate(-2832.837 6939.4)" fill="none" stroke="#fff" stroke-miterlimit="10" stroke-width="0.019"/>
    <path id="Caminho_49213" data-name="Caminho 49213" d="M15.978,7.213l-.951.7.367-1.119L14.44,6.1l1.176,0,.362-1.12.362,1.12,1.176,0-.954.691.367,1.119Z" transform="translate(-2835.022 6925.807)" fill="#fff"/>
    <path id="Caminho_49214" data-name="Caminho 49214" d="M15.978,7.213l-.951.7.367-1.119L14.44,6.1l1.176,0,.362-1.12.362,1.12,1.176,0-.954.691.367,1.119Z" transform="translate(-2835.022 6925.807)" fill="none" stroke="#fff" stroke-miterlimit="10" stroke-width="0.019"/>
    <path id="Caminho_49215" data-name="Caminho 49215" d="M13.252,10.337l-.828.606.32-.975-.833-.6,1.027,0,.315-.978.315.978,1.027,0-.831.6.32.975Z" transform="translate(-2838.48 6930.465)" fill="#fff"/>
    <path id="Caminho_49216" data-name="Caminho 49216" d="M13.252,10.337l-.828.606.32-.975-.833-.6,1.027,0,.315-.978.315.978,1.027,0-.831.6.32.975Z" transform="translate(-2838.48 6930.465)" fill="none" stroke="#fff" stroke-miterlimit="10" stroke-width="0.019"/>
    <path id="Caminho_49217" data-name="Caminho 49217" d="M15.9,10.68l-.774.563.3-.911-.776-.561.959,0L15.9,8.86l.293.914.959,0-.776.561.3.911Z" transform="translate(-2834.732 6931.109)" fill="#fff"/>
    <path id="Caminho_49218" data-name="Caminho 49218" d="M15.9,10.68l-.774.563.3-.911-.776-.561.959,0L15.9,8.86l.293.914.959,0-.776.561.3.911Z" transform="translate(-2834.732 6931.109)" fill="none" stroke="#fff" stroke-miterlimit="10" stroke-width="0.019"/>
    <path id="Caminho_49219" data-name="Caminho 49219" d="M17.8,10.823l-.774.566.3-.911-.776-.561.959,0,.293-.914.293.914.959,0-.776.561.3.911Z" transform="translate(-2832.141 6931.308)" fill="#fff"/>
    <path id="Caminho_49220" data-name="Caminho 49220" d="M17.8,10.823l-.774.566.3-.911-.776-.561.959,0,.293-.914.293.914.959,0-.776.561.3.911Z" transform="translate(-2832.141 6931.308)" fill="none" stroke="#fff" stroke-miterlimit="10" stroke-width="0.019"/>
    <path id="Caminho_49221" data-name="Caminho 49221" d="M15.731,12.719l-.772.563.3-.909-.779-.563.959,0,.293-.911.3.911.956,0-.776.563.3.909Z" transform="translate(-2834.969 6933.899)" fill="#fff"/>
    <path id="Caminho_49222" data-name="Caminho 49222" d="M15.731,12.719l-.772.563.3-.909-.779-.563.959,0,.293-.911.3.911.956,0-.776.563.3.909Z" transform="translate(-2834.969 6933.899)" fill="none" stroke="#fff" stroke-miterlimit="10" stroke-width="0.019"/>
    <path id="Caminho_49223" data-name="Caminho 49223" d="M12.488,7.063a2.645,2.645,0,0,1,.447-.017.724.724,0,0,1,.471.147.454.454,0,0,1,.144.36.472.472,0,0,1-.151.355.694.694,0,0,1-.514.154,1.145,1.145,0,0,1-.144-.014l-.021.606-.291-.012Zm.263.757a.693.693,0,0,0,.144.017c.218.009.355-.095.362-.282s-.114-.277-.317-.284a.761.761,0,0,0-.17.009Z" transform="translate(-2837.771 6928.627)" fill="#008c42"/>
    <path id="Caminho_49224" data-name="Caminho 49224" d="M13.7,8.233l-.168.445-.3-.019.62-1.569.374.024.414,1.638-.315-.021-.116-.464Zm.473-.192-.1-.4c-.024-.1-.045-.211-.062-.3h0c-.031.09-.062.2-.095.291l-.149.388Z" transform="translate(-2836.677 6928.69)" fill="#008c42"/>
    <path id="Caminho_49225" data-name="Caminho 49225" d="M14.5,7.173a2.9,2.9,0,0,1,.447.024.737.737,0,0,1,.478.189.411.411,0,0,1,.1.338.425.425,0,0,1-.343.364V8.1a.411.411,0,0,1,.185.338,3.416,3.416,0,0,0,.069.464l-.3-.04a2.26,2.26,0,0,1-.059-.393c-.019-.215-.088-.289-.251-.317l-.147-.019-.085.658-.291-.035Zm.2.743.175.024c.2.024.334-.064.355-.225s-.092-.27-.282-.3a.736.736,0,0,0-.182-.007Z" transform="translate(-2835.222 6928.801)" fill="#008c42"/>
    <path id="Caminho_49226" data-name="Caminho 49226" d="M15.705,8.463l-.227.419-.3-.062.828-1.472.367.073L16.564,9.1l-.308-.062-.05-.476Zm.5-.125-.045-.412c-.009-.1-.014-.218-.019-.315h0c-.043.088-.088.194-.135.279l-.2.362Z" transform="translate(-2834.008 6929.042)" fill="#008c42"/>
    <path id="Caminho_49227" data-name="Caminho 49227" d="M16.221,9.1l.469-1.548.322.095.2.786a4.516,4.516,0,0,1,.1.6h0c.045-.211.1-.414.17-.648l.163-.542.263.078-.469,1.55-.293-.09-.2-.8a5.266,5.266,0,0,1-.114-.62h-.007c-.05.2-.109.409-.187.663l-.168.554Z" transform="translate(-2832.588 6929.328)" fill="#008c42"/>
    <path id="Caminho_49228" data-name="Caminho 49228" d="M17.763,9.163l-.3.372-.282-.109,1.07-1.311.348.14-.1,1.69-.293-.116.031-.478Zm.511-.038.028-.414c0-.1.021-.215.033-.31l0,0c-.057.078-.121.175-.182.251l-.26.324Zm.656-1.143-.383.156-.22-.088.3-.189Z" transform="translate(-2831.269 6929.744)" fill="#008c42"/>
  </g>
</svg>
