<svg id="shield" xmlns="http://www.w3.org/2000/svg" width="50.08" height="60.097" viewBox="0 0 50.08 60.097">
  <path id="Caminho_48942" data-name="Caminho 48942" d="M85.886.743A2.409,2.409,0,0,0,84.125,0H39.053a2.407,2.407,0,0,0-1.761.743A2.406,2.406,0,0,0,36.548,2.5V32.552a17.969,17.969,0,0,0,1.311,6.671,24.863,24.863,0,0,0,3.247,5.869,36.2,36.2,0,0,0,4.617,4.989,53.806,53.806,0,0,0,4.949,4.03q2.269,1.6,4.734,3.031t3.5,1.937q1.037.509,1.663.782a2.318,2.318,0,0,0,2.036,0q.625-.273,1.662-.782t3.5-1.937q2.463-1.427,4.733-3.031a53.8,53.8,0,0,0,4.95-4.03,36.257,36.257,0,0,0,4.616-4.989,24.933,24.933,0,0,0,3.248-5.869,17.964,17.964,0,0,0,1.31-6.671V2.5A2.41,2.41,0,0,0,85.886.743Zm-6.77,31.809q0,6.886-9.195,14.085A55.193,55.193,0,0,1,61.588,52V7.511H79.116Z" transform="translate(-36.548)" fill="#ffa600"/>
</svg>
