<svg xmlns="http://www.w3.org/2000/svg" width="61.438" height="44.248" viewBox="0 0 61.438 44.248">
  <g id="Grupo_496" data-name="Grupo 496" transform="translate(2849.989 -7108.628)">
    <rect id="Retângulo_517" data-name="Retângulo 517" width="61.426" height="3.427" transform="translate(-2849.977 7130.5)" fill="#fff"/>
    <rect id="Retângulo_518" data-name="Retângulo 518" width="61.426" height="44.215" transform="translate(-2849.977 7108.662)" fill="#fff"/>
    <rect id="Retângulo_519" data-name="Retângulo 519" width="61.426" height="3.155" transform="translate(-2849.977 7146.458)"/>
    <rect id="Retângulo_520" data-name="Retângulo 520" width="61.426" height="3.155" transform="translate(-2849.977 7140.153)"/>
    <rect id="Retângulo_521" data-name="Retângulo 521" width="61.426" height="3.152" transform="translate(-2849.977 7133.851)"/>
    <rect id="Retângulo_522" data-name="Retângulo 522" width="61.426" height="3.152" transform="translate(-2849.977 7127.543)"/>
    <rect id="Retângulo_523" data-name="Retângulo 523" width="37.756" height="3.152" transform="translate(-2826.307 7121.238)"/>
    <rect id="Retângulo_524" data-name="Retângulo 524" width="37.756" height="3.152" transform="translate(-2826.307 7114.934)"/>
    <rect id="Retângulo_525" data-name="Retângulo 525" width="37.756" height="3.152" transform="translate(-2826.307 7108.628)"/>
    <rect id="Retângulo_526" data-name="Retângulo 526" width="23.674" height="15.732" transform="translate(-2849.977 7108.662)" fill="#c30a1d"/>
    <rect id="Retângulo_527" data-name="Retângulo 527" width="23.674" height="15.732" transform="translate(-2849.977 7108.662)" fill="none" stroke="#c30a1d" stroke-miterlimit="10" stroke-width="0.024"/>
    <path id="Caminho_49120" data-name="Caminho 49120" d="M11.963,83.694l-1.377,1,.533-1.616-1.38-1,1.7,0,.523-1.621.521,1.621,1.7,0-1.38,1,.53,1.616Z" transform="translate(-2841.449 7028.974)" fill="#fdea17"/>
    <path id="Caminho_49121" data-name="Caminho 49121" d="M11.963,87.69,10.585,88.7l.533-1.619-1.38-1,1.7,0,.523-1.621.521,1.621,1.7,0-1.38,1,.53,1.619Z" transform="translate(-2841.449 7034.435)" fill="#fdea17"/>
    <path id="Caminho_49122" data-name="Caminho 49122" d="M4.625,83.694l-1.375,1,.528-1.616-1.38-1,1.7,0,.523-1.621.521,1.621,1.7,0-1.38,1L6,84.7Z" transform="translate(-2851.481 7028.974)" fill="#fdea17"/>
    <path id="Caminho_49123" data-name="Caminho 49123" d="M4.625,87.69,3.25,88.7l.528-1.619-1.38-1,1.7,0,.523-1.621.521,1.621,1.7,0-1.38,1L6,88.7Z" transform="translate(-2851.481 7034.435)" fill="#fdea17"/>
    <path id="Caminho_49124" data-name="Caminho 49124" d="M10.652,80.8A6.286,6.286,0,1,1,4.366,87.09,6.286,6.286,0,0,1,10.652,80.8" transform="translate(-2848.791 7029.437)" fill="#fff"/>
    <path id="Caminho_49125" data-name="Caminho 49125" d="M9.8,91.428l.028-.017a.16.16,0,0,0,.026-.033.67.67,0,0,0,.059-.054c.009-.014.057-.059.066-.076a.475.475,0,0,0,.045-.1.185.185,0,0,1,.033-.069c.009-.014.007-.019.021-.031a.241.241,0,0,0,.043-.054c.007-.024.007-.028,0-.043s-.014,0-.024-.012.009-.019.028-.028a.024.024,0,0,0,.019-.028l.012-.047c0-.019.026-.017.05-.019s.038-.017.04-.028.012-.014.031-.017,0-.024-.007-.036.007-.019.017-.026.026-.012.033-.024a.516.516,0,0,0,0-.064c0-.021.021-.024.036-.028s-.009-.024-.017-.045.009-.009.031,0,.007.024.019.043.017.012.021,0,.017,0,.028,0,0-.019.012-.038.036.024.036.033-.021.028-.033.031,0,.033-.014.05a.094.094,0,0,1-.026.045c-.014.012-.024.009-.028.028s-.021.017-.045.026,0,0-.009.026a.166.166,0,0,1-.033.064c-.017.026-.017.017-.04.024s-.014.017-.031.033a.119.119,0,0,1-.045.026c-.021.009-.017,0-.033.024s0,.024.007.024.038-.024.052-.031.045-.026.062-.033a.471.471,0,0,0,.062-.05.972.972,0,0,0,.085-.08.513.513,0,0,0,.059-.092.227.227,0,0,1,.038-.052.346.346,0,0,0,.033-.066c.009-.021.043-.1.054-.116s.014-.014.019-.031.012-.017.026-.026.043-.062.054-.078l.047-.047c.014-.009.038-.038.05-.04s.028-.028.054-.038a.2.2,0,0,0,.057-.024c.024-.009.014-.033.017-.05l0-.045c0-.017.012-.014.017-.028l.021-.057.019-.031c.009-.012-.009-.036-.009-.043a.117.117,0,0,1,0-.062c.009-.026.017-.014.024-.024s-.028-.026-.033-.043,0-.009,0-.043,0-.017-.007-.031,0-.012,0-.028a.09.09,0,0,1,.024-.062c.017-.009.017-.045.024-.059s-.026-.021-.036-.038.014-.033.024-.04a.067.067,0,0,0,.024-.028l.014-.024s0-.019.019-.028.014-.028.014-.043.019-.021.038-.028a.133.133,0,0,1,.045-.012c.031,0,.021-.019.024-.031a.07.07,0,0,1,.017-.035.228.228,0,0,1,.059-.028c.017-.007.021-.019.028-.024a.074.074,0,0,1,.04-.012c.019,0,.038-.024.057-.033s.026-.024.036-.04a.065.065,0,0,1,.031-.031.3.3,0,0,1,.054-.031c.021-.007.064-.017.088-.026s.024-.019.043-.036.04,0,.076,0,.04.019.073.024.012-.014,0-.033.012-.031.024-.036a.224.224,0,0,1,.05,0l.024-.019.028-.026c.009-.012.026,0,.05.012s.028,0,.04-.012,0-.026-.012-.033,0-.009,0-.021.019-.009.033-.012a.091.091,0,0,1,.047-.007.1.1,0,0,0,.059,0c.021-.009.033.007.05.007a.307.307,0,0,1,.062.007c.019,0,.035,0,.031.014l-.043.007c-.017,0,0,.019.017.019s.031-.007.05-.007a.305.305,0,0,0,.062-.019c.014,0,.017,0,.031,0l.047.009a.387.387,0,0,1,.052,0,.023.023,0,0,0,.019,0l.08.021c.024.009.021-.009.033-.021s.007-.014.019-.017-.007-.021-.012-.031,0-.019,0-.028.019-.024.031-.026.047-.028.062-.031a.97.97,0,0,1,.125-.031.069.069,0,0,0,.057-.04c.009-.014,0-.036,0-.057s0-.043,0-.057.012-.017.024-.033.021-.05.031-.059a.158.158,0,0,0,.019-.04c0-.017.036-.024.062-.033s.017-.012.038-.026.021-.036.031-.05l.035-.04c.012-.009.014-.045.019-.059a.127.127,0,0,1,.035-.05c.009-.007.026-.035.043-.043s.028-.009.043-.028.009-.012.009-.033A.394.394,0,0,1,13.282,88c0-.017,0-.078,0-.1a.388.388,0,0,1,.009-.059l0-.021c0-.033.019-.043.038-.069a.128.128,0,0,0,.021-.038.1.1,0,0,1,.043-.05.2.2,0,0,0,.054-.043c.021-.021,0-.047,0-.066a.408.408,0,0,1,.007-.085c.007-.033,0-.031.021-.05s.007-.024.009-.05a.25.25,0,0,1,.036-.1.276.276,0,0,0,.036-.1.716.716,0,0,0,0-.1c0-.031,0-.062,0-.085s0-.073,0-.095a.62.62,0,0,1,.009-.1.637.637,0,0,1,.028-.08.13.13,0,0,0,.009-.059c0-.012-.014-.024-.007-.05s.014-.019.028-.036-.028-.024-.035-.043.038-.021.04-.033a.086.086,0,0,1,.043-.05c.019,0,.014-.021.012-.052s-.021-.026-.031-.052.054-.007.073,0,.019.024.031.043.012.024.033.033.017-.009.033-.021a.871.871,0,0,0,.092-.095c.012-.017.066-.076.078-.09s0,0,0-.009a.429.429,0,0,1,.021-.069.206.206,0,0,1,.043-.052c.017-.021.014-.045.036-.069l.045-.05c.017-.017.019-.047.033-.062a.245.245,0,0,1,.059-.035.253.253,0,0,1,.064-.019c.024,0,.043-.031.064-.05s.028-.033.05-.045.031-.033.05-.05.017-.038.047-.064.05-.028.062-.043a.515.515,0,0,1,.064-.057.426.426,0,0,0,.054-.1.409.409,0,0,0,.024-.078c.012-.033.021-.026.035-.045s.007-.05.009-.073a.171.171,0,0,1,.028-.064c.012-.021,0-.04.009-.073a.53.53,0,0,0,0-.083v-.137a.327.327,0,0,1,0-.059c0-.021-.021-.057-.028-.08a.313.313,0,0,1-.012-.088V84.6a.2.2,0,0,0-.026-.064.436.436,0,0,0-.05-.088c-.024-.031-.054-.017-.088-.038s-.019-.012-.031-.012-.031.009-.064.014-.066-.014-.08-.012a.116.116,0,0,1-.071-.017.08.08,0,0,0-.059-.033.057.057,0,0,1-.05-.033.125.125,0,0,0-.038-.047.214.214,0,0,0-.066-.033c-.031-.009-.014-.031-.031-.05a.357.357,0,0,0-.066-.069c-.026-.021-.033-.057-.062-.085s-.04-.021-.059-.038-.026-.031-.057-.057-.033-.024-.057-.047-.009-.021-.028-.026-.076-.043-.1-.054-.064-.043-.088-.052-.045,0-.08-.014a.088.088,0,0,0-.083.009c-.019.014-.078-.007-.1-.007a.1.1,0,0,0-.059.021c-.009.009-.069-.028-.092-.033s-.047-.038-.059-.043a.29.29,0,0,0-.045,0l-.012-.012a.721.721,0,0,1-.085,0c-.026,0-.043-.024-.062-.04s-.05-.017-.088-.035a.17.17,0,0,0-.083-.028.054.054,0,0,1-.054-.024c-.017-.021-.012,0-.024.014s-.021.038-.036.057-.038.017-.059.036a.094.094,0,0,1-.057.019l-.019.009s-.033.012-.047-.007.012-.019,0-.045.007-.04.012-.057.021-.019.047-.021-.007-.031-.014-.057a.318.318,0,0,0-.033-.076c-.009-.019-.017-.04-.028-.062a.054.054,0,0,0-.05-.033.368.368,0,0,1-.047,0c-.026,0-.031.019-.045.045s-.033,0-.033-.026-.012-.031-.026-.038,0-.024-.017-.031a.421.421,0,0,1-.045-.038c-.021-.017-.033.012-.043-.012s-.05-.024-.073-.05-.019,0-.05,0-.009-.028-.028-.028a.347.347,0,0,1-.069,0c-.028,0-.017-.012-.033-.028s-.024.007-.05,0-.017-.021-.028-.043a.023.023,0,0,0-.031-.012c-.028-.017-.021-.009-.035,0s-.014,0-.028.007-.026-.021-.038-.031-.045.031-.064.036-.024,0-.038,0-.036.052-.045.076-.028.028-.047.05l-.052.062c-.024.026-.036.028-.057.019s0-.021.021-.04.017-.047.028-.064.033-.021.031-.043.021-.028.028-.052a.4.4,0,0,0,.017-.057.089.089,0,0,1,.024-.05c.012-.026-.007-.017-.033-.026a.077.077,0,0,0-.05,0c-.014,0-.031-.014-.052-.012a.236.236,0,0,1-.078-.014c-.038-.009-.024,0-.04.019s-.033,0-.059.007-.038-.012-.069-.026a.316.316,0,0,0-.088-.026c-.038-.007-.045,0-.071.019a.129.129,0,0,0-.045.05c-.017.024-.026-.024-.009-.045a.155.155,0,0,0,.028-.05c.007-.019-.04-.019-.064-.014s-.017-.019-.012-.038.026-.012.047-.021A.142.142,0,0,0,11,82.735c.007-.019.036-.04.054-.057s.028,0,.052,0a.039.039,0,0,0,.036-.024c.017-.017.014-.031.017-.054s.017-.036.019-.05a.429.429,0,0,0,0-.078c0-.024-.012-.017-.014-.043s-.033-.017-.054-.019a.112.112,0,0,1-.066-.017c-.043-.021-.028-.017-.033-.038a.148.148,0,0,0-.024-.047c-.009-.017,0-.028-.007-.05s-.031-.078-.036-.1a.284.284,0,0,0-.014-.057.165.165,0,0,1-.017-.073c0-.024-.012-.052-.012-.078s-.007-.021,0-.038,0-.033-.017-.054a.145.145,0,0,1-.014-.05c0-.019-.033-.043-.047-.066s-.038-.007-.04.014l0,.024-.009-.007-.017-.009-.009.024h0v0l-.026.017c-.009,0-.007.014-.012.024a.043.043,0,0,1-.017.024l-.012.019-.012.007-.012.031-.017.031-.028.045A.022.022,0,0,1,10.6,82l-.017.021,0,.028-.012.031-.014.024-.017.04-.009.026,0,.026c0,.012-.021.021-.026.036s-.024.017-.036.021l-.017.019c0,.009-.021.012-.033.012l-.019-.007a.052.052,0,0,0-.033,0c-.012,0-.017,0-.017,0l.007-.012-.017-.019c-.009-.009-.012,0-.017.007l-.021.012a.048.048,0,0,1-.026,0l-.031-.012-.012-.009h-.019l-.024.019-.014.017c0,.009-.017.007-.026.007s-.014.019-.024.014l-.024,0-.028-.012c-.009-.007-.012,0-.021,0a.033.033,0,0,1-.024-.019c0-.009-.021-.009-.026-.009a.025.025,0,0,1-.019-.021l0-.017-.031,0c-.012,0-.014,0-.021-.012a.031.031,0,0,1-.007-.028c0-.009-.017,0-.019.007l-.028.007-.009,0-.026.012a.018.018,0,0,0-.021.009.017.017,0,0,1-.021.009c-.007,0-.028,0-.043,0l-.028,0-.026-.012L9.663,82.2l-.014.024c0,.007-.007.019-.017.019a.016.016,0,0,0-.014.017c0,.009,0,.014.009.012s.014.014.017.024l.014.019a.043.043,0,0,1,.012.035c0,.012,0,.021-.009.028s-.012,0-.035,0-.014-.007-.026-.009a.087.087,0,0,1-.04-.012c-.012-.007-.014,0-.024,0l-.028.007c-.009,0-.014,0-.024,0s-.019,0-.028,0l-.021.009-.026-.009c-.012-.007-.021,0-.033-.012s0-.012-.017-.014-.028.009-.04.012l-.026.007c0,.009-.012,0-.021.012l-.009.031-.014.017c-.007.012-.021,0-.031,0a.073.073,0,0,0-.033,0c-.012,0-.017.012-.031.014s-.017.009-.019.019-.021.017-.036.017-.012-.007-.021-.009l-.019,0c-.014,0-.014,0-.019,0l-.007.021-.019.009L9,82.487l0,.028c0,.012-.014.014-.019.014l-.028,0c-.009,0-.009,0-.019.014s-.009.009-.026.014-.019-.007-.021-.017L8.88,82.52l-.043-.007a.105.105,0,0,1-.04-.019l-.017-.028c0-.012-.014-.007-.024-.014l-.024-.031c-.007-.014-.012-.012-.024-.009S8.7,82.4,8.7,82.387s0-.009-.014-.012-.012-.014-.012-.028,0-.019,0-.028a.088.088,0,0,1,0-.043c0-.012-.012-.012-.017-.012l-.031-.026v-.019a.389.389,0,0,0-.017-.047l-.007-.031a.173.173,0,0,1,.007-.052c0-.009,0-.028.009-.038l.007-.028.014-.031c.007-.014,0-.019,0-.031l-.007-.031c0-.012.009-.012.021-.017a.067.067,0,0,0,.026-.019c.007-.007,0-.014.009-.019s.009-.014.009-.026a.012.012,0,0,1,.012-.014c0-.007,0-.009-.009-.014s0-.007-.012-.017l-.007-.026c0-.009-.014-.007-.019-.017s0-.012,0-.019l.009-.021c0-.009,0-.012-.014-.014L8.638,81.7l-.031-.009a.053.053,0,0,0-.033,0c-.012,0-.014-.014-.012-.021l.019-.017.007-.021,0-.033.009-.043c0-.019,0-.021-.012-.028L8.57,81.5c-.007-.012-.014,0-.021-.009s-.012,0-.021,0a.048.048,0,0,1-.033.012c-.009,0-.012.007-.021,0s-.019,0-.038,0a.029.029,0,0,0-.031,0,.185.185,0,0,1,.028.045c0,.017.026.021,0,.043s-.054.021-.066.047-.014.05-.04.05-.038-.017-.052-.007.012.021-.014.024-.043,0-.045.019.007.031-.021.031a.129.129,0,0,0-.066.021c-.017.007,0-.012-.038,0s-.038.024-.064.012-.059-.031-.069-.012,0,.033-.017.033-.045-.012-.052.009a.076.076,0,0,0,0,.05c.007.028.014.038,0,.05s-.009.033-.043,0-.038-.028-.052-.05,0-.038-.045-.047-.021,0-.028.019-.009,0-.036-.009-.012-.014-.047-.009-.038.019-.05.021-.009-.014-.024-.035a.059.059,0,0,0-.064-.031c-.036.007-.033.021-.054.009s-.031-.04-.045-.04-.045.007-.024.033.031.038.047.054a.122.122,0,0,0,.054.05c.026.012.052.035.047.05s0,.009,0,.045-.014.038,0,.059.036.05.045.069.019.036.012.054-.026.04-.007.045.019.019.054.019.038-.017.071,0,.054,0,.047.026,0,.035-.017.04a.2.2,0,0,0-.064.028c-.017.012.017.007-.038.017s-.054,0-.059.038.012.05-.019.069-.033.038-.043.028,0-.021-.033,0-.021.028-.04.036-.04.033-.05.024-.019-.007-.038.009-.047,0-.052.026,0,.052-.024.052-.033.007-.043.031-.021.05-.028.033.014-.024,0-.05-.028-.054-.066-.033-.031.043-.066.05l-.045.007c-.021,0-.021.012-.04,0s-.128-.111-.128-.111l-.054.014,0-.066c0-.019-.021-.045-.017-.054s-.009-.028-.024-.043a.094.094,0,0,1-.026-.057c0-.014.007-.035-.007-.038s-.024,0-.047.024,0,.028-.031.031-.033,0-.04.012l0,.031c0,.012,0,.024-.021.007s-.021-.031-.038-.043-.031-.031-.04-.009-.017.033,0,.04a.033.033,0,0,1,.021.021h-.3s-.028-.026-.047-.017a.06.06,0,0,1-.038.012l-.038,0v.156l.033,0c.024,0,.043.019.054.009s.04-.017.05,0,.033.033.028.052a.052.052,0,0,0,0,.038c.007.021.014.04-.017.026l-.05-.026c-.017-.007-.021,0-.038.009s-.012,0-.033.009a.284.284,0,0,1-.078.017l0,.18a.042.042,0,0,0,.028.043.341.341,0,0,1,.064.04c.009.009.024.019.019.033s-.017.017-.007.033a.561.561,0,0,0,.036.059c.014.017.019.024.019.033s-.009,0,0,.024a.126.126,0,0,1,0,.045l-.14.724-.024.014c-.019.007-.017,0-.031,0s-.028.007-.038-.009-.007-.028-.031-.026-.009.017-.033.009-.007-.017-.028-.012-.043,0-.05.017-.014.033-.038.038a.252.252,0,0,1-.045.009c-.024,0-.007.012-.033.017s0,0-.047,0a.232.232,0,0,0-.08.009.1.1,0,0,0-.05.026c-.021.019-.026.031-.047.033s-.04-.012-.045.009,0,.036-.033.047-.031.028-.059.033-.033,0-.036.024-.009.05-.014.078,0,.028-.019.052-.019.043-.028.05-.033.009-.024.031.019.017.021.043.024.052.007.064a.106.106,0,0,1-.045.028.482.482,0,0,0-.064.028.092.092,0,0,0-.043.033c-.009.017-.019.021-.012.05l.009.045c0,.007.019.033,0,.035s-.033,0-.04.009-.024.045-.017.05.026.031.04.036.033.014.021.026-.024.007-.012.021.033.012.031.033a.071.071,0,0,0,.012.045c.009.026,0,.036.031.05s.024.014.026.033.017.019.036.038a.356.356,0,0,1,.033.043c.012.017.028.009.031.028s.014.021,0,.04-.028.017-.038.033-.024.031-.009.031a.267.267,0,0,0,.064.007c.052,0,.057-.007.083.007s.04.007.05.019a.187.187,0,0,1,.043.069c0,.021-.009.031,0,.04a.081.081,0,0,0,.045.014s.156,0,.168-.007a.051.051,0,0,0,.038-.019.275.275,0,0,1,.04-.038l.054-.045c.014-.012.045-.04.05-.026s0,.026,0,.043.017.009,0,.033a.234.234,0,0,0-.019.043l0,.249s.024-.007.031,0,0,.024.021.026.047,0,.057,0a.136.136,0,0,1,.059-.026.127.127,0,0,1,.057.007l.021,0a.288.288,0,0,1,.054,0c.014,0,.054-.007.066,0l.038.009c.012,0,.007,0,.021.014a.043.043,0,0,0,.05,0c.012-.012.031-.028.043-.026s.033,0,.04-.007.026-.026.028-.033,0-.038.017-.038l.04-.007c.014,0,.04.017.045,0l.031-.04a.06.06,0,0,1,.026-.021c.014-.007.019-.017.028-.024l.026-.014c.012,0,.028,0,.04-.021s.026-.014.043-.033a.477.477,0,0,1,.043-.036c.017-.017.019-.026.033-.024a.069.069,0,0,0,.038,0,.417.417,0,0,1,.057-.026c.017,0,.043,0,.054,0a.064.064,0,0,1,.036-.012.068.068,0,0,1,.038,0c.012.009.019.012.031,0s.021-.028.033-.031.019,0,.028.017-.009.038,0,.054.024.064.017.078-.028.026-.028.038v.033l.009.026a.09.09,0,0,0,0,.036.1.1,0,0,1,.014.05.232.232,0,0,1-.012.062c0,.012.007.043,0,.052s-.021.036,0,.038.017,0,.021.019.019,0,.028.019a.11.11,0,0,1,.021.047c0,.024.009.021.019.019s.033-.007.036.007,0,.009.009.014.009.026.021.028.028-.007.038.009a.179.179,0,0,0,.028.047c.012.014,0,.014.031.019s.038,0,.045.009.024,0,.036.012.019.014.024,0,.007-.026.024-.021a.251.251,0,0,1,.047.007l.038.017a.068.068,0,0,1,.031.024c.007.012.021,0,.036,0a.025.025,0,0,1,.036.017c0,.017-.012.043.017.038s.033,0,.04.012.026.014.04.019l.024,0,.05.009L7.9,86.1c.009,0,.012-.012.031.009s0,.012.019.028.009.019.024.028.026,0,.031.019.007.021.036.021a.167.167,0,0,1,.05,0c.014,0,.033.012.043.007s.019,0,.033,0,.012-.014.038,0,.026,0,.04.019.019.028.033.028.036,0,.04.012.014,0,.019.019a.1.1,0,0,0,.007.038.037.037,0,0,1,.014.038.161.161,0,0,0,0,.05.115.115,0,0,0,.026.059l.021.033v.106l-.073.007.071.095.019.2.426.024.019-.012s.021.007.012.026a.329.329,0,0,1-.024.05c-.007.014,0,.014,0,.038a.142.142,0,0,0,0,.045.309.309,0,0,0,.009.05.063.063,0,0,0,.017.05c.014.014.007.014.036.017s.033-.007.047.012l.028.026A.037.037,0,0,1,9,87.263c0,.009.017.033.014.043a.061.061,0,0,0,.007.045.271.271,0,0,1,.031.054c0,.014-.007.019-.014.028l-.014.045a.951.951,0,0,0-.028.1s.014.012.012.026-.019.026-.026.033L8.9,87.8l.043.045c.007.012.026.028.014.035s-.024,0-.033.009-.04.007-.04.017a.046.046,0,0,0,.012.035c.009.012.019.019.019.031s-.007.026,0,.043l.021.038c.007.009,0,.019,0,.033l.009.026a.046.046,0,0,1,0,.035c0,.012-.019.026-.012.036s.019,0,.012.021-.021.031-.021.052a.521.521,0,0,1,0,.054c0,.017,0,.021,0,.033s-.017.057,0,.064.028.009.04,0,.009-.024.024-.009a.06.06,0,0,0,.05.019c.026,0,.045.009.054,0a.029.029,0,0,1,.031,0c.012.009-.014,0,.024.009s.043,0,.047,0l.021,0,.028-.019.043-.009a.286.286,0,0,0,.038.038.086.086,0,0,0,.043.007l.028,0a.03.03,0,0,1,.033.014c.009.012.012.012.014.024l.012.038c.007.007.021.017.017.036a.288.288,0,0,0,0,.064c0,.017,0,.009.009.033s0,.014.007.019a.02.02,0,0,1,0,.021c0,.009-.007.007,0,.024s0,.026,0,.043,0,.021.009.035a.256.256,0,0,1,.017.064c0,.009.026.04.045.038l.047-.009.038-.017a.086.086,0,0,1,.033-.017l.017-.007s.026.007.036.014.012.014.026.021.04.021.026.031-.021.021-.014.033.021.033.014.047-.021.028-.019.038.012.024,0,.04a.294.294,0,0,0-.024.047.183.183,0,0,0,0,.043c0,.007.017.017.007.031l-.017.028c0,.007-.026.024-.028.038s-.007.021,0,.031.021.014.026.026,0,.019.012.007.017-.024.028-.017.019,0,.028-.009,0,0,.019.012.019-.009.024.007.024.009.026.021l.009.043s-.007.024,0,.036.017.012.019.028l.009.04c0,.009.009.038,0,.05l-.014.031a.1.1,0,0,0-.007.047l0,.057s-.024.028-.024.038,0,.012-.026.024-.024.019-.033.024-.019,0-.028.012-.014.033-.031.031-.028,0-.038,0-.014.009-.031.014l-.035.007c-.009,0-.007-.009-.024.021s-.019.021-.028.031,0,.026-.014.028l-.026.009a.072.072,0,0,0-.043.019c-.007.012-.021.033-.033.033a.072.072,0,0,0-.038.019c-.009.007-.024.009-.014.026s.009.024-.007.024a.079.079,0,0,0-.04.024l-.036.019a.1.1,0,0,0-.033.028c-.007.014-.014.014-.024.031s0,.028-.024.035-.019.019-.031.028-.021.035-.033.04l-.026.014-.031.024a.532.532,0,0,1-.028.05l-.014.024a.158.158,0,0,1-.038.033.131.131,0,0,0-.038.028l-.019.019c-.009,0-.024-.009-.036,0a.06.06,0,0,0-.019.033c0,.017-.012.021-.017.031a.06.06,0,0,1-.026.028c-.009,0-.019,0-.014.014s.009.019.024.019a.138.138,0,0,1,.045,0c.009,0,.017,0,.028-.019s0-.019.009-.021.028,0,.038,0,.009-.017.024,0,.026.014.033.026,0,.017.012.024a.085.085,0,0,1,.033.026.118.118,0,0,0,.028.033c.014.009.014,0,.026.021l.026.033c.007.009.019.012.019.028a.023.023,0,0,1,0,.019l0,.026c0,.012,0,.026.009.026l.028,0,.017-.014c.007-.014.012-.017.017-.017l.009-.012c0-.007.012-.019.019-.009l.021.021.014.021c.012.009.012.012.012.021l.007.017c0,.012,0,.017.014.024l.019.012.014,0s.009-.007.019,0,.014.024.028.028l.031.007c.012,0,.014,0,.021.009l.019.021.007.028.024.021A.059.059,0,0,0,9.614,91l.014.017.014,0,.021,0,.026.017c0,.007,0,.014.014.017s.007,0,.014.019l.021.045s-.007.012,0,.021l.014.021.014.017.009.012a.025.025,0,0,0,.019.014c.012,0,.024,0,.031.012l.024.028-.019.019L9.8,91.3a.017.017,0,0,1-.012.019.124.124,0,0,0-.033.026.04.04,0,0,0-.009.031.384.384,0,0,1,0,.05l-.007.054.007.017.017,0c.021-.071.028-.069.028-.066" transform="translate(-2847.861 7030.369)" fill="#284291"/>
  </g>
</svg>
