<svg id="Componente_14_1" data-name="Componente 14 – 1" xmlns="http://www.w3.org/2000/svg" xmlns:xlink="http://www.w3.org/1999/xlink" width="56.264" height="72.049" viewBox="0 0 56.264 72.049">
  <defs>
    <clipPath id="clip-path">
      <rect id="Retângulo_542" data-name="Retângulo 542" width="56.264" height="72.049" fill="#ffa600"/>
    </clipPath>
  </defs>
  <g id="Grupo_530" data-name="Grupo 530" clip-path="url(#clip-path)">
    <path id="Caminho_50320" data-name="Caminho 50320" d="M42.249,57.546H37.866l2.4-5.314a1.513,1.513,0,1,0-2.758-1.245l-3.364,7.45a1.513,1.513,0,0,0,1.38,2.136h4.383l-2.4,5.315a1.513,1.513,0,1,0,2.758,1.245l3.363-7.45a1.514,1.514,0,0,0-1.379-2.136" transform="translate(-10.754 -15.84)" fill="#ffa600"/>
    <path id="Caminho_50321" data-name="Caminho 50321" d="M54.751,0H1.513A1.513,1.513,0,0,0,0,1.513v63.9a1.513,1.513,0,0,0,1.513,1.513H16.53v3.61a1.513,1.513,0,0,0,3.027,0v-3.61h3.7v3.61a1.514,1.514,0,0,0,3.027,0v-3.61h3.7v3.61a1.513,1.513,0,1,0,3.027,0v-3.61h3.7v3.61a1.513,1.513,0,0,0,3.027,0v-3.61H54.751a1.513,1.513,0,0,0,1.513-1.513V1.513A1.513,1.513,0,0,0,54.751,0M53.238,63.9H3.027V3.027h50.21Z" transform="translate(0 0)" fill="#ffa600"/>
    <path id="Caminho_50322" data-name="Caminho 50322" d="M11.35,63.31H51.134A1.514,1.514,0,0,0,52.648,61.8V11.35a1.514,1.514,0,0,0-1.514-1.514H11.35A1.514,1.514,0,0,0,9.836,11.35V61.8A1.514,1.514,0,0,0,11.35,63.31m1.513-50.446H49.621v47.42H12.863Z" transform="translate(-3.11 -3.11)" fill="#ffa600"/>
    <path id="Caminho_50323" data-name="Caminho 50323" d="M47.519,19.673H21.186a1.513,1.513,0,0,0-1.513,1.513V32.233a1.513,1.513,0,0,0,1.513,1.513H47.519a1.513,1.513,0,0,0,1.513-1.513V21.186a1.513,1.513,0,0,0-1.513-1.513M46.006,30.72H22.7V22.7H46.006Z" transform="translate(-6.221 -6.221)" fill="#ffa600"/>
  </g>
</svg>
